<svg xmlns="http://www.w3.org/2000/svg" width="1080" height="1080" viewBox="0 0 1080 1080">
  <title>logo</title>
  <g id="a61f015c-5b6d-47f4-b6fd-16b86ff6d15b" data-name="Fundo">
    <rect width="1080" height="1080" fill="#2c0eeb"/>
  </g>
  <g id="f309c41e-dffe-4919-a831-ba15571c9373" data-name="Elementos">
    <g>
      <g>
        <path d="M398.3,418V656.11c0,22.17-11.07,32.92-32.91,32.92H126.26c-21.84,0-32.88-11.32-32.88-32.92V418c0-23.09,12.29-34.4,34.15-34.4-.09-.07,237.16,0,237.16,0C387.23,383.6,398.3,395.48,398.3,418Z" fill="#ecdcc4"/>
        <g>
          <circle cx="353.73" cy="449.33" r="9.16" fill="none" stroke="#2c0eeb" stroke-linecap="round" stroke-linejoin="round" stroke-width="8"/>
          <circle cx="353.73" cy="513.6" r="14.57" fill="none" stroke="#2c0eeb" stroke-linecap="round" stroke-linejoin="round" stroke-width="8"/>
          <line x1="353.73" y1="499.02" x2="353.73" y2="458.47" fill="none" stroke="#2c0eeb" stroke-linecap="round" stroke-linejoin="round" stroke-width="8"/>
          <line x1="353.73" y1="593.03" x2="353.73" y2="572.32" fill="none" stroke="#2c0eeb" stroke-linecap="round" stroke-linejoin="round" stroke-width="8"/>
          <line x1="353.73" y1="553.63" x2="353.73" y2="528.16" fill="none" stroke="#2c0eeb" stroke-linecap="round" stroke-linejoin="round" stroke-width="8"/>
          <line x1="353.73" y1="632.43" x2="353.73" y2="611.72" fill="none" stroke="#2c0eeb" stroke-linecap="round" stroke-linejoin="round" stroke-width="8"/>
        </g>
        <path d="M270.59,424.4H177.48a47.35,47.35,0,0,0-47.35,47.35V594.27a24.87,24.87,0,0,0,23.58,24.83v16.11a13,13,0,0,0,26,0V619.13h88.67v16.08a13,13,0,0,0,26,0V619.1a24.87,24.87,0,0,0,23.57-24.83V471.75A47.34,47.34,0,0,0,270.59,424.4ZM185.4,435.81h77.27a5.71,5.71,0,0,1,0,11.42H185.4a5.71,5.71,0,0,1,0-11.42ZM166.7,595.88a13,13,0,1,1,13-13A13,13,0,0,1,166.7,595.88Zm114.67,0a13,13,0,1,1,13-13A13,13,0,0,1,281.37,595.88Zm20.29-78a11.83,11.83,0,0,1-11.84,11.83H158.26a11.83,11.83,0,0,1-11.84-11.83v-47.3a11.84,11.84,0,0,1,11.84-11.84H289.82a11.84,11.84,0,0,1,11.84,11.84Z" fill="#2c0eeb"/>
      </g>
      <g>
        <path d="M443.54,525.63V411.49h22.19V525.63Z" fill="#ecdcc4"/>
        <path d="M565.72,525.63H544.18V478.37q0-10.14-3.54-14.79a11.6,11.6,0,0,0-9.8-4.67,18.36,18.36,0,0,0-6.59,1.29,24,24,0,0,0-6.35,3.62,29.25,29.25,0,0,0-5.39,5.54,22,22,0,0,0-3.54,7.08v49.19H487.43V441.39h19.45V457a32,32,0,0,1,13.51-12.54,43.3,43.3,0,0,1,19.93-4.5q7.88,0,12.86,2.9a21,21,0,0,1,7.72,7.55A31.78,31.78,0,0,1,564.68,461a69.31,69.31,0,0,1,1,12.06Z" fill="#ecdcc4"/>
        <path d="M634.21,521.29a93.81,93.81,0,0,1-10.61,3.86,44.42,44.42,0,0,1-13.18,1.93A31,31,0,0,1,602,526a18.52,18.52,0,0,1-6.91-3.62,17.57,17.57,0,0,1-4.75-6.43,23.3,23.3,0,0,1-1.77-9.57V458H577.46V441.39h11.09V414.06H610.1v27.33h17.68V458H610.1v41.16c0,3,.77,5.12,2.33,6.35a8.91,8.91,0,0,0,5.71,1.85,19.85,19.85,0,0,0,6.59-1.13c2.14-.75,3.86-1.39,5.14-1.93Z" fill="#ecdcc4"/>
        <path d="M682.45,527.24a46.79,46.79,0,0,1-18.33-3.45,42,42,0,0,1-14-9.41,41.59,41.59,0,0,1-8.92-13.83A44.37,44.37,0,0,1,638.07,484a46.87,46.87,0,0,1,3.06-17,41.2,41.2,0,0,1,8.84-14A42.27,42.27,0,0,1,664,443.48a46.79,46.79,0,0,1,18.57-3.54,45.61,45.61,0,0,1,18.4,3.54A42.19,42.19,0,0,1,714.84,453a40.27,40.27,0,0,1,8.68,13.82,46.11,46.11,0,0,1,3,16.4c0,1.39,0,2.73-.08,4a16.38,16.38,0,0,1-.41,3.22H660.9a25.08,25.08,0,0,0,2.41,8.84A21.71,21.71,0,0,0,675.21,510a22.8,22.8,0,0,0,8,1.45,24.88,24.88,0,0,0,12.14-3.14,16.59,16.59,0,0,0,7.79-8.28l18.49,5.15a37.52,37.52,0,0,1-14.87,15.83Q696.59,527.24,682.45,527.24Zm21.86-50.8q-.81-9.48-7-15.19a22.57,22.57,0,0,0-23.15-4.19,21.13,21.13,0,0,0-6.68,4.27,21.89,21.89,0,0,0-4.74,6.59,23.17,23.17,0,0,0-2.17,8.52Z" fill="#ecdcc4"/>
        <path d="M789.84,460a42.52,42.52,0,0,0-17.52,3.78,22.11,22.11,0,0,0-11.1,10.85v51H739.68V441.39h19.78v18a38,38,0,0,1,5.3-7.8,41,41,0,0,1,6.59-6,30.61,30.61,0,0,1,7.16-3.94,19.75,19.75,0,0,1,7-1.37h2.65a9.23,9.23,0,0,1,1.69.16Z" fill="#ecdcc4"/>
        <path d="M880.19,525.63H858.65V478.37q0-10.14-3.54-14.79a11.61,11.61,0,0,0-9.8-4.67,18.46,18.46,0,0,0-6.6,1.29,24.3,24.3,0,0,0-6.35,3.62,29.51,29.51,0,0,0-5.38,5.54,22,22,0,0,0-3.54,7.08v49.19H801.9V441.39h19.45V457a32,32,0,0,1,13.51-12.54,43.3,43.3,0,0,1,19.93-4.5q7.88,0,12.86,2.9a21,21,0,0,1,7.72,7.55A31.78,31.78,0,0,1,879.15,461a70.3,70.3,0,0,1,1,12.06Z" fill="#ecdcc4"/>
        <path d="M937.91,527.24a46.4,46.4,0,0,1-18.49-3.53,41.58,41.58,0,0,1-13.91-9.57,42.4,42.4,0,0,1-8.76-13.91,45.31,45.31,0,0,1-3-16.56,45.81,45.81,0,0,1,3-16.72,42.25,42.25,0,0,1,8.76-13.9,41.58,41.58,0,0,1,13.91-9.57,46.23,46.23,0,0,1,18.49-3.54,45.66,45.66,0,0,1,18.41,3.54A41.6,41.6,0,0,1,978.91,467,46,46,0,0,1,982,483.67a45.52,45.52,0,0,1-3.05,16.56,42.88,42.88,0,0,1-8.69,13.91,40.71,40.71,0,0,1-13.82,9.57A46.4,46.4,0,0,1,937.91,527.24Zm-22-43.57a29.43,29.43,0,0,0,1.69,10.21,25,25,0,0,0,4.66,8,20.89,20.89,0,0,0,7,5.22,21.29,21.29,0,0,0,17.36,0,20.76,20.76,0,0,0,7-5.22,24.72,24.72,0,0,0,4.67-8,30.14,30.14,0,0,0,1.69-10.29,29.7,29.7,0,0,0-1.69-10.13,24.93,24.93,0,0,0-4.67-8,20.55,20.55,0,0,0-15.67-7.07,19.74,19.74,0,0,0-8.68,1.93,21.85,21.85,0,0,0-7,5.31,24.93,24.93,0,0,0-4.66,8A29.7,29.7,0,0,0,915.88,483.67Z" fill="#ecdcc4"/>
        <path d="M443.54,659.61V545.46H494a32.38,32.38,0,0,1,14.55,3.3,37.74,37.74,0,0,1,11.5,8.68,41,41,0,0,1,7.55,12.22,36.84,36.84,0,0,1,2.74,13.75,37.92,37.92,0,0,1-5.55,20.17,31.85,31.85,0,0,1-15,13.11l26,42.92H510.9l-23.31-38.26H465.73v38.26Zm22.19-57.72h27.81a11.81,11.81,0,0,0,5.71-1.44,14.82,14.82,0,0,0,4.58-3.94,19.77,19.77,0,0,0,3.05-5.87,22.72,22.72,0,0,0,1.13-7.23,20.58,20.58,0,0,0-1.29-7.4,19.48,19.48,0,0,0-3.45-5.87,15.79,15.79,0,0,0-5-3.86,12.94,12.94,0,0,0-5.71-1.36H465.73Z" fill="#ecdcc4"/>
        <path d="M584.86,661.22a46.19,46.19,0,0,1-18.49-3.54,41.31,41.31,0,0,1-13.91-9.56,42.24,42.24,0,0,1-8.76-13.91,45.32,45.32,0,0,1-3.06-16.56,45.78,45.78,0,0,1,3.06-16.72A42.24,42.24,0,0,1,552.46,587a41.46,41.46,0,0,1,13.91-9.56,46.19,46.19,0,0,1,18.49-3.54,45.61,45.61,0,0,1,18.4,3.54A41.72,41.72,0,0,1,617.09,587a42.24,42.24,0,0,1,8.76,13.91,45.78,45.78,0,0,1,3.06,16.72,45.32,45.32,0,0,1-3.06,16.56,42.86,42.86,0,0,1-8.68,13.91,40.49,40.49,0,0,1-13.83,9.56A46.18,46.18,0,0,1,584.86,661.22Zm-22-43.57a29.28,29.28,0,0,0,1.69,10.21,24.94,24.94,0,0,0,4.66,8,20.76,20.76,0,0,0,7,5.22,21.31,21.31,0,0,0,17.37,0,20.76,20.76,0,0,0,7-5.22,24.7,24.7,0,0,0,4.66-8,29.94,29.94,0,0,0,1.69-10.29,29.46,29.46,0,0,0-1.69-10.13,24.7,24.7,0,0,0-4.66-8,20.55,20.55,0,0,0-15.67-7.07,19.78,19.78,0,0,0-8.69,1.93,21.67,21.67,0,0,0-7,5.3,24.7,24.7,0,0,0-4.66,8A29.46,29.46,0,0,0,562.83,617.65Z" fill="#ecdcc4"/>
        <path d="M692.73,655.27a95.8,95.8,0,0,1-10.61,3.86,44.42,44.42,0,0,1-13.18,1.93,30.58,30.58,0,0,1-8.44-1.13,18.5,18.5,0,0,1-6.91-3.61,17.6,17.6,0,0,1-4.75-6.44,23.21,23.21,0,0,1-1.77-9.56V591.93H636V575.37h11.09V548h21.55v27.33H686.3v16.56H668.62v41.15c0,3,.77,5.12,2.33,6.35a8.86,8.86,0,0,0,5.71,1.85,19.84,19.84,0,0,0,6.59-1.12c2.14-.75,3.86-1.39,5.14-1.93Z" fill="#ecdcc4"/>
        <path d="M727,661.22a32,32,0,0,1-11.42-2,27.5,27.5,0,0,1-9.16-5.63,26.21,26.21,0,0,1-6-8.44,25.48,25.48,0,0,1-2.17-10.61,23.34,23.34,0,0,1,2.65-11,25.17,25.17,0,0,1,7.4-8.6,36.63,36.63,0,0,1,11.33-5.55,49.47,49.47,0,0,1,14.47-2,61.68,61.68,0,0,1,11,1,44.73,44.73,0,0,1,9.57,2.73v-4.82c0-5.58-1.58-9.86-4.74-12.87s-7.86-4.5-14.07-4.5a37.39,37.39,0,0,0-13.18,2.41,61.45,61.45,0,0,0-13.19,7.08l-6.59-13.67a62.22,62.22,0,0,1,35-10.77q18.17,0,28.22,8.92t10,25.81v26.2c0,2.25.41,3.86,1.21,4.83a5.25,5.25,0,0,0,3.94,1.6v18.33a48.11,48.11,0,0,1-9.49,1.13q-6.11,0-9.4-2.74a11.7,11.7,0,0,1-4.1-7.23l-.48-4.66a37.33,37.33,0,0,1-13.67,11.25A39.27,39.27,0,0,1,727,661.22Zm6.11-15.76a28,28,0,0,0,10.37-1.93,18.71,18.71,0,0,0,7.63-5.14q3.54-2.73,3.54-6.11v-9.65a53.26,53.26,0,0,0-8.36-2.33,45,45,0,0,0-8.68-.88q-8.37,0-13.67,3.78t-5.3,9.56a11.52,11.52,0,0,0,4.18,9.09A15.15,15.15,0,0,0,733.09,645.46Z" fill="#ecdcc4"/>
        <path d="M828.1,661.22a65.21,65.21,0,0,1-20.74-3.38A50.54,50.54,0,0,1,790,648.2l8-13.51a68.58,68.58,0,0,0,15,8.28,40.2,40.2,0,0,0,14.55,2.82q6.42,0,10.13-2.42a7.77,7.77,0,0,0,3.7-6.91,6.9,6.9,0,0,0-4.35-6.59A94.87,94.87,0,0,0,823,625q-8.21-2.24-14-4.34a35.8,35.8,0,0,1-9.33-4.74,16.24,16.24,0,0,1-5.14-6.11,19.5,19.5,0,0,1-1.61-8.28A26.23,26.23,0,0,1,795.38,590a25.34,25.34,0,0,1,7-8.77,32.25,32.25,0,0,1,10.53-5.54,42.63,42.63,0,0,1,13.1-1.93,56.48,56.48,0,0,1,17.77,2.73A43.54,43.54,0,0,1,859,585.33l-8.68,13a50.68,50.68,0,0,0-12.46-7.08,34.11,34.11,0,0,0-12-2.25,17.32,17.32,0,0,0-9.16,2.25q-3.71,2.26-3.7,7.24a7,7,0,0,0,.88,3.7,7.82,7.82,0,0,0,2.82,2.57,27.47,27.47,0,0,0,5.06,2.17q3.13,1,7.8,2.17,8.69,2.25,14.87,4.5a40.64,40.64,0,0,1,10.13,5.15,18.36,18.36,0,0,1,5.79,6.67,20.51,20.51,0,0,1,1.84,9.08q0,12.39-9.16,19.53T828.1,661.22Z" fill="#ecdcc4"/>
      </g>
    </g>
  </g>
</svg>
