<?xml version="1.0" encoding="utf-8"?>
<!-- Generator: Adobe Illustrator 24.0.1, SVG Export Plug-In . SVG Version: 6.00 Build 0)  -->
<svg version="1.1" xmlns="http://www.w3.org/2000/svg" xmlns:xlink="http://www.w3.org/1999/xlink" x="0px" y="0px"
	 viewBox="0 0 2235 754" enable-background="new 0 0 2235 754" xml:space="preserve">
<g id="Fundo">
	<rect fill="#2C0EEB" width="2235" height="754"/>
</g>
<g id="Elementos">
	<g>
		<g>
			<g>
				<path fill="#ECDCC4" d="M996.1,272.5v204c0,19-9.5,28.2-28.2,28.2H763.1c-18.7,0-28.2-9.7-28.2-28.2v-204
					c0-19.8,10.5-29.5,29.3-29.5c-0.1-0.1,203.2,0,203.2,0C986.6,243,996.1,253.2,996.1,272.5z"/>
			</g>
			<g>
				
					<circle fill="none" stroke="#2C0EEB" stroke-width="6.853" stroke-linecap="round" stroke-linejoin="round" stroke-miterlimit="10" cx="957.9" cy="299.3" r="7.8"/>
				
					<circle fill="none" stroke="#2C0EEB" stroke-width="6.853" stroke-linecap="round" stroke-linejoin="round" stroke-miterlimit="10" cx="957.9" cy="354.4" r="12.5"/>
				
					<line fill="none" stroke="#2C0EEB" stroke-width="6.853" stroke-linecap="round" stroke-linejoin="round" stroke-miterlimit="10" x1="957.9" y1="341.9" x2="957.9" y2="307.2"/>
				
					<line fill="none" stroke="#2C0EEB" stroke-width="6.853" stroke-linecap="round" stroke-linejoin="round" stroke-miterlimit="10" x1="957.9" y1="422.4" x2="957.9" y2="404.7"/>
				
					<line fill="none" stroke="#2C0EEB" stroke-width="6.853" stroke-linecap="round" stroke-linejoin="round" stroke-miterlimit="10" x1="957.9" y1="388.7" x2="957.9" y2="366.9"/>
				
					<line fill="none" stroke="#2C0EEB" stroke-width="6.853" stroke-linecap="round" stroke-linejoin="round" stroke-miterlimit="10" x1="957.9" y1="456.2" x2="957.9" y2="438.4"/>
			</g>
			<path fill="#2C0EEB" d="M886.7,278H807c-22.4,0-40.6,18.2-40.6,40.6v105c0,11.4,9,20.7,20.2,21.3v13.8c0,6.1,5,11.1,11.1,11.1
				c6.1,0,11.1-5,11.1-11.1v-13.8h76v13.8c0,6.1,5,11.1,11.1,11.1c6.2,0,11.1-5,11.1-11.1v-13.8c11.2-0.6,20.2-9.9,20.2-21.3v-105
				C927.3,296.1,909.1,278,886.7,278z M813.7,287.7h66.2c1.4,0,2.6,0.5,3.5,1.4c0.9,0.9,1.4,2.1,1.4,3.5c0,2.7-2.2,4.9-4.9,4.9
				h-66.2c-1.3,0-2.6-0.5-3.4-1.4c-0.9-0.9-1.4-2.1-1.4-3.5C808.9,289.9,811,287.7,813.7,287.7z M797.7,424.9
				c-6.2,0-11.1-5-11.1-11.1c0-6.2,5-11.1,11.1-11.1c6.2,0,11.1,5,11.1,11.1C808.8,419.9,803.9,424.9,797.7,424.9z M895.9,424.9
				c-6.1,0-11.1-5-11.1-11.1c0-6.2,5-11.1,11.1-11.1c6.2,0,11.1,5,11.1,11.1C907.1,419.9,902.1,424.9,895.9,424.9z M913.3,358
				c0,5.6-4.5,10.1-10.1,10.1H790.5c-5.6,0-10.1-4.5-10.1-10.1v-40.5c0-5.6,4.5-10.1,10.1-10.1h112.7c5.6,0,10.1,4.5,10.1,10.1V358z
				"/>
		</g>
		<g>
			<path fill="#ECDCC4" d="M1034.9,364.7v-97.8h19v97.8H1034.9z"/>
			<path fill="#ECDCC4" d="M1139.5,364.7h-18.5v-40.5c0-5.8-1-10-3-12.7c-2-2.7-4.8-4-8.4-4c-1.8,0-3.7,0.4-5.6,1.1
				c-1.9,0.7-3.7,1.8-5.4,3.1c-1.7,1.3-3.2,2.9-4.6,4.8c-1.4,1.8-2.4,3.9-3,6.1v42.1h-18.5v-72.2h16.7v13.4
				c2.7-4.6,6.5-8.2,11.6-10.7c5-2.6,10.7-3.9,17.1-3.9c4.5,0,8.2,0.8,11,2.5c2.8,1.7,5,3.8,6.6,6.5c1.6,2.7,2.6,5.7,3.2,9.1
				c0.6,3.4,0.9,6.8,0.9,10.3V364.7z"/>
			<path fill="#ECDCC4" d="M1198.2,361c-2.5,1.1-5.5,2.2-9.1,3.3s-7.3,1.7-11.3,1.7c-2.6,0-5-0.3-7.2-1c-2.3-0.6-4.2-1.7-5.9-3.1
				c-1.7-1.4-3.1-3.3-4.1-5.5c-1-2.2-1.5-5-1.5-8.2v-41.5h-9.5v-14.2h9.5v-23.4h18.5v23.4h15.1v14.2h-15.1V342c0,2.6,0.7,4.4,2,5.4
				c1.3,1.1,3,1.6,4.9,1.6c1.9,0,3.8-0.3,5.6-1c1.8-0.6,3.3-1.2,4.4-1.7L1198.2,361z"/>
			<path fill="#ECDCC4" d="M1239.5,366.1c-5.8,0-11-1-15.7-3c-4.7-2-8.7-4.7-12-8.1c-3.3-3.4-5.9-7.3-7.6-11.8
				c-1.8-4.5-2.7-9.2-2.7-14.2c0-5.1,0.9-10,2.6-14.5c1.7-4.5,4.3-8.5,7.6-12c3.3-3.4,7.3-6.2,12-8.2c4.7-2,10-3,15.9-3
				c5.9,0,11.1,1,15.8,3c4.6,2,8.6,4.7,11.8,8.1c3.3,3.4,5.7,7.3,7.4,11.8c1.7,4.5,2.5,9.2,2.5,14c0,1.2,0,2.3-0.1,3.4
				c0,1.1-0.2,2-0.3,2.8h-55.8c0.3,2.8,1,5.4,2.1,7.6c1.1,2.2,2.5,4.1,4.3,5.6c1.7,1.6,3.7,2.8,5.9,3.6c2.2,0.8,4.5,1.2,6.9,1.2
				c3.7,0,7.1-0.9,10.4-2.7c3.3-1.8,5.5-4.2,6.7-7.1l15.8,4.4c-2.7,5.5-6.9,10-12.7,13.6C1254.6,364.3,1247.6,366.1,1239.5,366.1z
				 M1258.3,322.6c-0.5-5.4-2.5-9.8-6-13c-3.5-3.3-7.8-4.9-12.9-4.9c-2.5,0-4.8,0.4-7,1.3c-2.2,0.9-4.1,2.1-5.7,3.7
				c-1.7,1.6-3,3.4-4.1,5.6c-1.1,2.2-1.7,4.6-1.9,7.3H1258.3z"/>
			<path fill="#ECDCC4" d="M1331.5,308.5c-5.6,0.1-10.6,1.2-15,3.2c-4.4,2.1-7.6,5.2-9.5,9.3v43.7h-18.5v-72.2h16.9V308
				c1.3-2.5,2.8-4.7,4.5-6.7c1.7-2,3.6-3.7,5.6-5.2c2-1.5,4.1-2.6,6.1-3.4c2.1-0.8,4.1-1.2,6-1.2c1,0,1.8,0,2.3,0c0.5,0,1,0,1.4,0.1
				V308.5z"/>
			<path fill="#ECDCC4" d="M1408.9,364.7h-18.5v-40.5c0-5.8-1-10-3-12.7c-2-2.7-4.8-4-8.4-4c-1.8,0-3.7,0.4-5.6,1.1
				c-1.9,0.7-3.7,1.8-5.4,3.1c-1.7,1.3-3.2,2.9-4.6,4.8c-1.4,1.8-2.4,3.9-3,6.1v42.1h-18.5v-72.2h16.7v13.4
				c2.7-4.6,6.5-8.2,11.6-10.7c5-2.6,10.7-3.9,17.1-3.9c4.5,0,8.2,0.8,11,2.5c2.8,1.7,5,3.8,6.6,6.5c1.6,2.7,2.6,5.7,3.2,9.1
				c0.6,3.4,0.9,6.8,0.9,10.3V364.7z"/>
			<path fill="#ECDCC4" d="M1458.4,366.1c-5.9,0-11.2-1-15.8-3s-8.7-4.8-11.9-8.2c-3.3-3.4-5.8-7.4-7.5-11.9
				c-1.7-4.5-2.6-9.2-2.6-14.2c0-5,0.9-9.8,2.6-14.3c1.7-4.5,4.2-8.5,7.5-11.9c3.3-3.4,7.2-6.2,11.9-8.2c4.7-2,10-3,15.8-3
				c5.9,0,11.1,1,15.8,3c4.6,2,8.6,4.8,11.8,8.2c3.3,3.4,5.8,7.4,7.5,11.9c1.7,4.5,2.6,9.3,2.6,14.3c0,5-0.9,9.7-2.6,14.2
				c-1.7,4.5-4.2,8.5-7.4,11.9c-3.2,3.4-7.2,6.2-11.8,8.2S1464.2,366.1,1458.4,366.1z M1439.5,328.7c0,3.2,0.5,6.1,1.4,8.7
				c1,2.6,2.3,4.9,4,6.8c1.7,1.9,3.7,3.4,6,4.5c2.3,1.1,4.8,1.6,7.4,1.6c2.7,0,5.1-0.5,7.4-1.6c2.3-1.1,4.3-2.5,6-4.5
				c1.7-1.9,3-4.2,4-6.9c1-2.7,1.4-5.6,1.4-8.8c0-3.1-0.5-6-1.4-8.7c-1-2.7-2.3-5-4-6.9c-1.7-1.9-3.7-3.4-6-4.5
				c-2.3-1.1-4.8-1.6-7.4-1.6c-2.7,0-5.1,0.6-7.4,1.7c-2.3,1.1-4.3,2.6-6,4.5c-1.7,1.9-3,4.2-4,6.9
				C1440,322.7,1439.5,325.6,1439.5,328.7z"/>
			<path fill="#ECDCC4" d="M1034.9,479.5v-97.8h43.2c4.5,0,8.7,0.9,12.5,2.8c3.8,1.9,7.1,4.4,9.8,7.4c2.8,3.1,4.9,6.6,6.5,10.5
				c1.6,3.9,2.3,7.8,2.3,11.8c0,6.3-1.6,12.1-4.8,17.3c-3.2,5.2-7.5,8.9-12.9,11.2l22.3,36.8h-21.3l-20-32.8h-18.7v32.8H1034.9z
				 M1053.9,430h23.8c1.7,0,3.4-0.4,4.9-1.2c1.5-0.8,2.8-1.9,3.9-3.4c1.1-1.4,2-3.1,2.6-5c0.6-1.9,1-4,1-6.2c0-2.3-0.4-4.4-1.1-6.3
				c-0.7-1.9-1.7-3.6-3-5c-1.2-1.4-2.7-2.5-4.3-3.3c-1.6-0.8-3.2-1.2-4.9-1.2h-23V430z"/>
			<path fill="#ECDCC4" d="M1155.9,480.8c-5.9,0-11.2-1-15.8-3s-8.7-4.8-11.9-8.2c-3.3-3.4-5.8-7.4-7.5-11.9
				c-1.7-4.5-2.6-9.2-2.6-14.2c0-5,0.9-9.8,2.6-14.3c1.7-4.5,4.2-8.5,7.5-11.9c3.3-3.4,7.2-6.2,11.9-8.2c4.7-2,10-3,15.8-3
				c5.9,0,11.1,1,15.8,3c4.6,2,8.6,4.8,11.8,8.2c3.3,3.4,5.8,7.4,7.5,11.9c1.7,4.5,2.6,9.3,2.6,14.3c0,5-0.9,9.7-2.6,14.2
				c-1.7,4.5-4.2,8.5-7.4,11.9c-3.2,3.4-7.2,6.2-11.8,8.2S1161.8,480.8,1155.9,480.8z M1137.1,443.5c0,3.2,0.5,6.1,1.4,8.7
				c1,2.6,2.3,4.9,4,6.8c1.7,1.9,3.7,3.4,6,4.5c2.3,1.1,4.8,1.6,7.4,1.6c2.7,0,5.1-0.5,7.4-1.6c2.3-1.1,4.3-2.5,6-4.5
				c1.7-1.9,3-4.2,4-6.9c1-2.7,1.4-5.6,1.4-8.8c0-3.1-0.5-6-1.4-8.7c-1-2.7-2.3-5-4-6.9c-1.7-1.9-3.7-3.4-6-4.5
				c-2.3-1.1-4.8-1.6-7.4-1.6c-2.7,0-5.1,0.6-7.4,1.7c-2.3,1.1-4.3,2.6-6,4.5c-1.7,1.9-3,4.2-4,6.9
				C1137.5,437.5,1137.1,440.4,1137.1,443.5z"/>
			<path fill="#ECDCC4" d="M1248.3,475.7c-2.5,1.1-5.5,2.2-9.1,3.3s-7.3,1.7-11.3,1.7c-2.6,0-5-0.3-7.2-1c-2.3-0.6-4.2-1.7-5.9-3.1
				c-1.7-1.4-3.1-3.3-4.1-5.5c-1-2.2-1.5-5-1.5-8.2v-41.5h-9.5v-14.2h9.5v-23.4h18.5v23.4h15.1v14.2h-15.1v35.3c0,2.6,0.7,4.4,2,5.4
				c1.3,1.1,3,1.6,4.9,1.6c1.9,0,3.8-0.3,5.6-1c1.8-0.6,3.3-1.2,4.4-1.7L1248.3,475.7z"/>
			<path fill="#ECDCC4" d="M1277.7,480.8c-3.5,0-6.7-0.6-9.8-1.7c-3-1.1-5.6-2.8-7.8-4.8c-2.2-2.1-3.9-4.5-5.2-7.2
				c-1.2-2.8-1.9-5.8-1.9-9.1c0-3.4,0.8-6.5,2.3-9.4c1.5-2.9,3.6-5.3,6.3-7.4c2.7-2,5.9-3.6,9.7-4.8c3.8-1.1,7.9-1.7,12.4-1.7
				c3.2,0,6.4,0.3,9.4,0.8c3.1,0.6,5.8,1.3,8.2,2.3v-4.1c0-4.8-1.4-8.4-4.1-11c-2.7-2.6-6.7-3.9-12.1-3.9c-3.9,0-7.6,0.7-11.3,2.1
				c-3.7,1.4-7.4,3.4-11.3,6.1l-5.6-11.7c9.3-6.2,19.3-9.2,30-9.2c10.4,0,18.4,2.5,24.2,7.6c5.7,5.1,8.6,12.5,8.6,22.1v22.4
				c0,1.9,0.3,3.3,1,4.1s1.8,1.3,3.4,1.4v15.7c-3.1,0.6-5.8,1-8.1,1c-3.5,0-6.2-0.8-8.1-2.3c-1.9-1.6-3.1-3.6-3.5-6.2l-0.4-4
				c-3.2,4.2-7.1,7.4-11.7,9.6C1287.8,479.7,1282.9,480.8,1277.7,480.8z M1282.9,467.3c3.1,0,6.1-0.6,8.9-1.7c2.8-1.1,5-2.6,6.5-4.4
				c2-1.6,3-3.3,3-5.2v-8.3c-2.2-0.8-4.6-1.5-7.2-2c-2.6-0.5-5-0.8-7.4-0.8c-4.8,0-8.7,1.1-11.7,3.2c-3,2.2-4.5,4.9-4.5,8.2
				c0,3.1,1.2,5.7,3.6,7.8C1276.5,466.3,1279.4,467.3,1282.9,467.3z"/>
			<path fill="#ECDCC4" d="M1364.3,480.8c-6.1,0-12-1-17.8-2.9c-5.8-1.9-10.7-4.7-14.9-8.3l6.9-11.6c4.4,3.1,8.7,5.5,12.9,7.1
				c4.2,1.6,8.3,2.4,12.5,2.4c3.7,0,6.6-0.7,8.7-2.1c2.1-1.4,3.2-3.4,3.2-5.9c0-2.6-1.2-4.5-3.7-5.6c-2.5-1.2-6.5-2.6-12.1-4.1
				c-4.7-1.3-8.7-2.5-12-3.7c-3.3-1.2-6-2.5-8-4.1c-2-1.5-3.5-3.3-4.4-5.2c-0.9-2-1.4-4.3-1.4-7.1c0-3.7,0.7-7,2.1-9.9
				c1.4-2.9,3.4-5.4,6-7.5c2.6-2.1,5.6-3.6,9-4.8c3.4-1.1,7.2-1.7,11.2-1.7c5.4,0,10.5,0.8,15.2,2.3c4.7,1.6,9.1,4.1,13,7.6
				l-7.4,11.2c-3.7-2.8-7.2-4.8-10.7-6.1c-3.4-1.3-6.9-1.9-10.3-1.9c-3.1,0-5.7,0.6-7.8,1.9c-2.1,1.3-3.2,3.4-3.2,6.2
				c0,1.3,0.3,2.3,0.8,3.2c0.5,0.8,1.3,1.6,2.4,2.2c1.1,0.6,2.5,1.3,4.3,1.9c1.8,0.6,4,1.2,6.7,1.9c5,1.3,9.2,2.6,12.7,3.9
				c3.5,1.3,6.4,2.8,8.7,4.4c2.2,1.7,3.9,3.6,5,5.7c1.1,2.2,1.6,4.8,1.6,7.8c0,7.1-2.6,12.6-7.8,16.7
				C1380.4,478.8,1373.3,480.8,1364.3,480.8z"/>
		</g>
	</g>
</g>
</svg>
