<svg xmlns="http://www.w3.org/2000/svg" width="2235" height="754" viewBox="0 0 2235 754">
  <title>logo</title>
  <g id="f48eaf0f-2a5f-4535-9cc4-c8e961fab495" data-name="Fundo">
    <rect width="2235" height="754" fill="#2c0eeb"/>
  </g>
  <g id="fa39c74f-bef2-42bb-9b7c-59185121b7b2" data-name="Elementos">
    <g>
      <g>
        <path d="M996.12,272.49v204c0,19-9.49,28.2-28.2,28.2H763.08c-18.71,0-28.17-9.69-28.17-28.2v-204c0-19.78,10.53-29.46,29.26-29.46-.08-.06,203.15,0,203.15,0C986.63,243,996.12,253.2,996.12,272.49Z" fill="#ecdcc4"/>
        <g>
          <circle cx="957.94" cy="299.33" r="7.84" fill="none" stroke="#2c0eeb" stroke-linecap="round" stroke-linejoin="round" stroke-width="6.85"/>
          <circle cx="957.94" cy="354.39" r="12.48" fill="none" stroke="#2c0eeb" stroke-linecap="round" stroke-linejoin="round" stroke-width="6.85"/>
          <line x1="957.94" y1="341.89" x2="957.94" y2="307.16" fill="none" stroke="#2c0eeb" stroke-linecap="round" stroke-linejoin="round" stroke-width="6.85"/>
          <line x1="957.94" y1="422.43" x2="957.94" y2="404.68" fill="none" stroke="#2c0eeb" stroke-linecap="round" stroke-linejoin="round" stroke-width="6.85"/>
          <line x1="957.94" y1="388.68" x2="957.94" y2="366.85" fill="none" stroke="#2c0eeb" stroke-linecap="round" stroke-linejoin="round" stroke-width="6.85"/>
          <line x1="957.94" y1="456.18" x2="957.94" y2="438.43" fill="none" stroke="#2c0eeb" stroke-linecap="round" stroke-linejoin="round" stroke-width="6.85"/>
        </g>
        <path d="M886.71,278H807a40.56,40.56,0,0,0-40.56,40.56v105a21.3,21.3,0,0,0,20.2,21.27v13.8a11.14,11.14,0,0,0,22.28,0V444.79h76v13.77a11.14,11.14,0,0,0,22.27,0v-13.8a21.31,21.31,0,0,0,20.19-21.27V318.54A40.56,40.56,0,0,0,886.71,278Zm-73,9.77h66.19a4.89,4.89,0,1,1,0,9.78H813.74a4.89,4.89,0,0,1,0-9.78Zm-16,137.12a11.13,11.13,0,1,1,11.13-11.13A11.14,11.14,0,0,1,797.72,424.87Zm98.23,0a11.13,11.13,0,1,1,11.14-11.13A11.14,11.14,0,0,1,896,424.87ZM913.33,358a10.13,10.13,0,0,1-10.14,10.14H790.49A10.13,10.13,0,0,1,780.35,358V317.53a10.14,10.14,0,0,1,10.14-10.15h112.7a10.14,10.14,0,0,1,10.14,10.15Z" fill="#2c0eeb"/>
      </g>
      <g>
        <path d="M1034.87,364.69V266.91h19v97.78Z" fill="#ecdcc4"/>
        <path d="M1139.54,364.69h-18.46V324.2q0-8.67-3-12.67a10,10,0,0,0-8.4-4,15.82,15.82,0,0,0-5.64,1.1,20.81,20.81,0,0,0-5.44,3.1,25.42,25.42,0,0,0-4.62,4.75,18.75,18.75,0,0,0-3,6.06v42.14h-18.45V292.53h16.66v13.36a27.4,27.4,0,0,1,11.57-10.75,37.23,37.23,0,0,1,17.08-3.85q6.75,0,11,2.48a18,18,0,0,1,6.62,6.47,27.11,27.11,0,0,1,3.23,9.09,59.3,59.3,0,0,1,.9,10.33Z" fill="#ecdcc4"/>
        <path d="M1198.21,361a80.42,80.42,0,0,1-9.09,3.31,38.28,38.28,0,0,1-11.3,1.65,26.32,26.32,0,0,1-7.23-1,15.91,15.91,0,0,1-5.92-3.1,15.09,15.09,0,0,1-4.06-5.51,19.93,19.93,0,0,1-1.52-8.19V306.71h-9.5V292.53h9.5V269.12h18.46v23.41h15.15v14.18h-15.15V342q0,3.86,2,5.44a7.63,7.63,0,0,0,4.89,1.58,17.07,17.07,0,0,0,5.65-1q2.76-1,4.41-1.65Z" fill="#ecdcc4"/>
        <path d="M1239.52,366.07a40.12,40.12,0,0,1-15.7-3,35.42,35.42,0,0,1-19.62-19.9,38,38,0,0,1-2.69-14.19,40.11,40.11,0,0,1,2.62-14.53,35.57,35.57,0,0,1,7.57-12,36.23,36.23,0,0,1,12-8.19,40.12,40.12,0,0,1,15.91-3,39.12,39.12,0,0,1,15.77,3,36.42,36.42,0,0,1,11.84,8.12,34.59,34.59,0,0,1,7.44,11.85,39.4,39.4,0,0,1,2.55,14c0,1.2,0,2.35-.07,3.45a13.71,13.71,0,0,1-.35,2.75h-55.77a21.38,21.38,0,0,0,2.06,7.58,18.94,18.94,0,0,0,4.27,5.64,18.34,18.34,0,0,0,5.93,3.58,19.31,19.31,0,0,0,6.88,1.24,21.29,21.29,0,0,0,10.4-2.68,14.23,14.23,0,0,0,6.68-7.09l15.84,4.4a32.22,32.22,0,0,1-12.74,13.57Q1251.65,366.07,1239.52,366.07Zm18.73-43.52a19.19,19.19,0,0,0-6-13,19.3,19.3,0,0,0-19.83-3.58,18,18,0,0,0-5.72,3.65,19,19,0,0,0-4.06,5.64,20,20,0,0,0-1.86,7.3Z" fill="#ecdcc4"/>
        <path d="M1331.52,308.5a36.47,36.47,0,0,0-15,3.24,18.89,18.89,0,0,0-9.5,9.3v43.65h-18.46V292.53h16.94V308a33,33,0,0,1,4.55-6.68,35,35,0,0,1,5.64-5.16,26.66,26.66,0,0,1,6.13-3.38,17.15,17.15,0,0,1,6-1.17h2.27a7.51,7.51,0,0,1,1.45.14Z" fill="#ecdcc4"/>
        <path d="M1408.92,364.69h-18.46V324.2q0-8.67-3-12.67a10,10,0,0,0-8.4-4,15.86,15.86,0,0,0-5.64,1.1,20.81,20.81,0,0,0-5.44,3.1,25.42,25.42,0,0,0-4.62,4.75,19,19,0,0,0-3,6.06v42.14h-18.45V292.53h16.66v13.36a27.4,27.4,0,0,1,11.57-10.75,37.23,37.23,0,0,1,17.08-3.85q6.75,0,11,2.48a18,18,0,0,1,6.61,6.47,27.11,27.11,0,0,1,3.23,9.09,59.3,59.3,0,0,1,.9,10.33Z" fill="#ecdcc4"/>
        <path d="M1458.36,366.07a39.6,39.6,0,0,1-15.84-3,35.63,35.63,0,0,1-11.91-8.19,36.19,36.19,0,0,1-7.51-11.92,38.91,38.91,0,0,1-2.61-14.18,39.4,39.4,0,0,1,2.61-14.33,36.25,36.25,0,0,1,7.51-11.91,35.63,35.63,0,0,1,11.91-8.19,39.6,39.6,0,0,1,15.84-3,39.15,39.15,0,0,1,15.77,3,35.84,35.84,0,0,1,11.84,8.19,36.41,36.41,0,0,1,7.51,11.91,39.4,39.4,0,0,1,2.61,14.33,38.91,38.91,0,0,1-2.61,14.18,37,37,0,0,1-7.44,11.92A34.83,34.83,0,0,1,1474.2,363,39.67,39.67,0,0,1,1458.36,366.07Zm-18.87-37.32a25,25,0,0,0,1.45,8.74,21.26,21.26,0,0,0,4,6.82,18,18,0,0,0,6,4.48,18.28,18.28,0,0,0,14.87,0,17.9,17.9,0,0,0,6-4.48,21.25,21.25,0,0,0,4-6.89,25.76,25.76,0,0,0,1.45-8.81,25.46,25.46,0,0,0-1.45-8.68,21.31,21.31,0,0,0-4-6.88,17.9,17.9,0,0,0-6-4.48,17.63,17.63,0,0,0-7.43-1.58,17,17,0,0,0-7.44,1.65,18.72,18.72,0,0,0-6,4.55,21,21,0,0,0-4,6.88A25.22,25.22,0,0,0,1439.49,328.75Z" fill="#ecdcc4"/>
        <path d="M1034.87,479.46V381.68h43.24a27.8,27.8,0,0,1,12.47,2.82,32.23,32.23,0,0,1,9.84,7.44,35,35,0,0,1,6.48,10.47,31.46,31.46,0,0,1,2.34,11.77,32.45,32.45,0,0,1-4.75,17.28,27.25,27.25,0,0,1-12.88,11.23l22.31,36.77h-21.34l-20-32.78h-18.73v32.78Zm19-49.44h23.82a10,10,0,0,0,4.89-1.24,12.63,12.63,0,0,0,3.93-3.37,16.87,16.87,0,0,0,2.61-5,19.59,19.59,0,0,0,1-6.2,17.5,17.5,0,0,0-1.11-6.33,16.38,16.38,0,0,0-3-5,13.42,13.42,0,0,0-4.27-3.31,11.18,11.18,0,0,0-4.88-1.17h-23Z" fill="#ecdcc4"/>
        <path d="M1155.93,480.84a39.6,39.6,0,0,1-15.84-3,35.55,35.55,0,0,1-11.92-8.2,36.18,36.18,0,0,1-7.5-11.91,38.79,38.79,0,0,1-2.62-14.18,39.19,39.19,0,0,1,2.62-14.33,36.28,36.28,0,0,1,7.5-11.91,35.67,35.67,0,0,1,11.92-8.19,39.6,39.6,0,0,1,15.84-3,39.07,39.07,0,0,1,15.76,3,35.48,35.48,0,0,1,19.35,20.1,39.19,39.19,0,0,1,2.62,14.33A38.79,38.79,0,0,1,1191,457.7a36.66,36.66,0,0,1-7.43,11.91,34.76,34.76,0,0,1-11.85,8.2A39.58,39.58,0,0,1,1155.93,480.84Zm-18.87-37.32a25.24,25.24,0,0,0,1.44,8.74,21.46,21.46,0,0,0,4,6.82,17.7,17.7,0,0,0,6,4.47,18.18,18.18,0,0,0,14.87,0,17.7,17.7,0,0,0,6-4.47,21.27,21.27,0,0,0,4-6.89,25.8,25.8,0,0,0,1.44-8.81,25.46,25.46,0,0,0-1.44-8.68,21.22,21.22,0,0,0-4-6.88,17.86,17.86,0,0,0-6-4.48,17.63,17.63,0,0,0-7.43-1.58,17,17,0,0,0-7.44,1.65,18.73,18.73,0,0,0-6,4.54,21.38,21.38,0,0,0-4,6.89A25.42,25.42,0,0,0,1137.06,443.52Z" fill="#ecdcc4"/>
        <path d="M1248.34,475.74a82.42,82.42,0,0,1-9.09,3.31,38.28,38.28,0,0,1-11.3,1.65,26.32,26.32,0,0,1-7.23-1,16.05,16.05,0,0,1-5.92-3.1,15.17,15.17,0,0,1-4.06-5.51,19.94,19.94,0,0,1-1.52-8.2V421.48h-9.5V407.29h9.5V383.88h18.46v23.41h15.15v14.19h-15.15v35.26c0,2.57.66,4.38,2,5.44a7.64,7.64,0,0,0,4.88,1.58,17.07,17.07,0,0,0,5.65-1c1.84-.64,3.31-1.2,4.41-1.66Z" fill="#ecdcc4"/>
        <path d="M1277.67,480.84a27.55,27.55,0,0,1-9.78-1.72,23.6,23.6,0,0,1-7.85-4.82,22.58,22.58,0,0,1-5.16-7.23A21.93,21.93,0,0,1,1253,458a20,20,0,0,1,2.27-9.44,21.7,21.7,0,0,1,6.34-7.37,31.58,31.58,0,0,1,9.7-4.75,42.67,42.67,0,0,1,12.4-1.72,53.43,53.43,0,0,1,9.43.83,38.4,38.4,0,0,1,8.2,2.34v-4.13q0-7.17-4.07-11t-12-3.86a31.86,31.86,0,0,0-11.29,2.07,52.58,52.58,0,0,0-11.29,6.06L1257,415.28a53.27,53.27,0,0,1,30-9.22q15.57,0,24.17,7.64t8.61,22.1v22.45a6.52,6.52,0,0,0,1,4.13,4.53,4.53,0,0,0,3.38,1.38v15.7a41.24,41.24,0,0,1-8.13,1q-5.23,0-8-2.34a10,10,0,0,1-3.52-6.19l-.41-4a31.8,31.8,0,0,1-11.7,9.64A33.59,33.59,0,0,1,1277.67,480.84Zm5.23-13.5a24.16,24.16,0,0,0,8.89-1.65,16.13,16.13,0,0,0,6.54-4.41q3-2.34,3-5.23v-8.26a44.47,44.47,0,0,0-7.16-2,38.27,38.27,0,0,0-7.44-.76q-7.17,0-11.71,3.24t-4.54,8.19a9.84,9.84,0,0,0,3.58,7.78A13,13,0,0,0,1282.9,467.34Z" fill="#ecdcc4"/>
        <path d="M1364.29,480.84a56,56,0,0,1-17.76-2.89,43.3,43.3,0,0,1-14.87-8.27l6.88-11.57a59.19,59.19,0,0,0,12.88,7.1,34.62,34.62,0,0,0,12.46,2.41q5.5,0,8.68-2.07a6.66,6.66,0,0,0,3.17-5.92A5.93,5.93,0,0,0,1372,454a80.73,80.73,0,0,0-12.12-4.13q-7-1.92-12-3.72a30.73,30.73,0,0,1-8-4.06,14,14,0,0,1-4.41-5.23,16.71,16.71,0,0,1-1.38-7.1,22.35,22.35,0,0,1,2.14-9.91,21.61,21.61,0,0,1,6-7.51,27.83,27.83,0,0,1,9-4.75,36.66,36.66,0,0,1,11.22-1.65,48.29,48.29,0,0,1,15.22,2.34,37.23,37.23,0,0,1,13,7.57L1383.3,427a43.5,43.5,0,0,0-10.67-6.06,29.13,29.13,0,0,0-10.26-1.93,14.78,14.78,0,0,0-7.85,1.93,6.7,6.7,0,0,0-3.17,6.2,5.92,5.92,0,0,0,.76,3.16,6.6,6.6,0,0,0,2.41,2.21,23.78,23.78,0,0,0,4.33,1.86c1.8.6,4,1.22,6.68,1.86q7.44,1.92,12.74,3.85a34.87,34.87,0,0,1,8.68,4.41,15.7,15.7,0,0,1,5,5.72,17.61,17.61,0,0,1,1.58,7.78q0,10.61-7.85,16.73T1364.29,480.84Z" fill="#ecdcc4"/>
      </g>
    </g>
  </g>
</svg>
