<?xml version="1.0" encoding="UTF-8"?>
<svg id="Elementos" xmlns="http://www.w3.org/2000/svg" viewBox="0 0 1080 1080">
  <defs>
    <style>
      .cls-1 {
        fill: #f00631;
      }

      .cls-2 {
        fill: #ffefdf;
      }
    </style>
  </defs>
  <path class="cls-1" d="M540,60.35c-169.29,0-306.5,137.21-306.5,306.5,0,73,25.67,139.94,68.32,192.55,13.75,16.93,36.75,43.6,48.74,61.83,69.03,104.88,157.6,257.19,183.41,382.19,4.43,21.35,9.77,21.72,15.51.69,18.41-67.4,66.15-214.66,164.75-368.76,11.76-18.38,35.59-44.09,50.39-60.11,21.43-23.21,39.27-49.79,52.83-78.76,18.48-39.53,29.05-83.28,29.05-129.6,0-169.31-137.21-306.54-306.5-306.54Z"/>
  <path class="cls-2" d="M612.88,180.14h-145.77c-40.94,0-74.13,33.19-74.13,74.13v191.81c0,20.84,16.38,37.82,36.91,38.87v25.22c0,11.22,9.1,20.34,20.35,20.34s20.35-9.11,20.35-20.34v-25.17h138.81v25.17c0,11.22,9.1,20.34,20.34,20.34s20.35-9.11,20.35-20.34v-25.22c20.56-1.06,36.9-18.05,36.9-38.87v-191.81c0-40.94-33.17-74.13-74.13-74.13ZM479.52,198h120.97c2.47,0,4.71,1,6.32,2.61,1.61,1.61,2.61,3.84,2.61,6.32,0,4.93-4.01,8.94-8.94,8.94h-120.97c-2.46,0-4.68-1-6.29-2.61-1.61-1.61-2.61-3.87-2.61-6.32,0-4.95,3.98-8.94,8.91-8.94ZM450.24,448.59c-11.24,0-20.35-9.11-20.35-20.34s9.11-20.35,20.35-20.35,20.34,9.1,20.34,20.35-9.1,20.34-20.34,20.34ZM629.76,448.59c-11.22,0-20.34-9.11-20.34-20.34s9.11-20.35,20.34-20.35,20.35,9.1,20.35,20.35-9.1,20.34-20.35,20.34ZM661.52,326.47c0,10.24-8.3,18.52-18.54,18.52h-205.96c-10.24,0-18.54-8.28-18.54-18.52v-74.05c0-10.24,8.3-18.54,18.54-18.54h205.96c10.24,0,18.54,8.3,18.54,18.54v74.05Z"/>
</svg>