<svg width="10" height="10" viewBox="0 0 10 10" fill="none" xmlns="http://www.w3.org/2000/svg">
<path d="M9.88672 8.40886L6.47005 4.97917L9.89453 1.59375C10.0352 1.45313 10.0352 1.22396 9.89453 1.08333L8.92057 0.104167C8.85286 0.0364583 8.76172 0 8.66536 0C8.56901 0 8.47786 0.0390625 8.41016 0.104167L5.0013 3.47917L1.58724 0.106771C1.51953 0.0390627 1.42839 0.00260433 1.33203 0.00260433C1.23568 0.00260433 1.14453 0.0416668 1.07682 0.106771L0.105469 1.08594C-0.0351562 1.22656 -0.0351562 1.45573 0.105469 1.59635L3.52995 4.98177L0.115885 8.40886C0.0481771 8.47656 0.00911466 8.56771 0.00911466 8.66406C0.00911466 8.76042 0.045573 8.85156 0.115885 8.91927L1.08984 9.89844C1.16016 9.96875 1.2513 10.0052 1.34505 10.0052C1.4362 10.0052 1.52995 9.97135 1.60026 9.89844L5.0013 6.48177L8.40495 9.89583C8.47526 9.96615 8.56641 10.0026 8.66016 10.0026C8.7513 10.0026 8.84505 9.96875 8.91536 9.89583L9.88932 8.91667C9.95703 8.84896 9.99609 8.75781 9.99609 8.66146C9.99349 8.56771 9.95443 8.47656 9.88672 8.40886Z" fill="#ECDCC4"/>
</svg>
