<svg width="2300" height="400" viewBox="0 0 2300 400" fill="none" xmlns="http://www.w3.org/2000/svg">
<g clip-path="url(#clip0_714_6)">
<path d="M512.869 310.136V108.518H552.048V310.136H512.869Z" fill="#FFEFDF"/>
<path d="M728.689 310.136H690.635V227.848C690.635 216.083 688.59 207.512 684.523 202.089C680.456 196.688 674.619 193.977 667.059 193.977C661.957 193.977 656.787 195.264 651.571 197.86C646.355 200.457 641.713 204.019 637.645 208.546C633.578 213.073 630.407 218.289 628.132 224.217V310.136H590.354V162.748H624.708V190.231C628.5 183.866 633.325 178.535 639.185 174.215C645.045 169.918 651.778 166.54 659.338 164.104C666.898 161.668 675.055 160.45 683.765 160.45C693.048 160.45 700.654 162.082 706.629 165.368C712.58 168.631 717.13 173.089 720.255 178.696C723.381 184.303 725.564 190.53 726.781 197.378C727.999 204.203 728.62 211.097 728.62 218.013V310.113L728.689 310.136Z" fill="#FFEFDF"/>
<path d="M850.248 302.76C846.847 304.277 842.918 305.84 838.46 307.448C834.002 309.057 829.177 310.39 823.983 311.424C818.767 312.458 813.528 312.986 808.22 312.986C801.027 312.986 794.501 311.768 788.618 309.333C782.759 306.897 778.071 302.99 774.555 297.659C771.039 292.305 769.293 285.319 769.293 276.702V191.726H749.991V162.749H769.293V114.47H807.622V162.749H838.851V191.726H807.622V263.765C807.806 268.82 809.231 272.497 811.873 274.841C814.516 277.185 817.94 278.334 822.099 278.334C825.891 278.334 829.659 277.621 833.451 276.197C837.242 274.772 840.367 273.508 842.826 272.359L850.202 302.738L850.248 302.76Z" fill="#FFEFDF"/>
<path d="M937.132 312.986C925.206 312.986 914.406 310.963 904.755 306.942C895.104 302.921 886.854 297.383 880.052 290.374C873.227 283.366 868.034 275.346 864.426 266.361C860.819 257.376 859.026 247.725 859.026 237.43C859.026 223.574 862.198 210.798 868.54 199.101C874.882 187.405 883.867 178.029 895.517 171.021C907.168 164.012 921.116 160.496 937.408 160.496C953.7 160.496 967.327 164.012 978.862 171.044C990.398 178.075 999.314 187.313 1005.56 198.757C1011.81 210.2 1014.94 222.655 1014.94 236.167C1014.94 238.602 1014.85 240.9 1014.66 243.06C1014.48 245.22 1014.27 247.036 1014.09 248.552H899.355C899.929 256.319 902.043 262.937 905.743 268.406C909.443 273.875 914.176 278.08 919.944 281.045C925.712 284.009 931.824 285.48 938.258 285.48C946.025 285.48 953.264 283.641 959.974 279.942C966.683 276.242 971.279 271.279 973.738 265.028L1006.12 274.128C1002.71 281.711 997.682 288.421 991.064 294.281C984.446 300.14 976.588 304.736 967.488 308.045C958.388 311.354 948.277 313.009 937.109 313.009L937.132 312.986ZM898.229 224.654H976.036C975.278 217.255 973.141 210.821 969.648 205.375C966.132 199.906 961.559 195.654 955.883 192.598C950.207 189.542 943.865 188.025 936.857 188.025C929.848 188.025 923.827 189.542 918.267 192.598C912.683 195.654 908.133 199.906 904.64 205.375C901.124 210.844 899.01 217.255 898.252 224.654H898.229Z" fill="#FFEFDF"/>
<path d="M1127.12 194.276C1115.38 194.46 1104.97 196.688 1095.89 200.94C1086.8 205.191 1080.18 211.487 1076.02 219.828V310.136H1038.24V162.748H1073.17V193.127C1078.48 182.901 1085.23 174.858 1093.48 168.999C1101.71 163.139 1110.37 159.922 1119.47 159.347C1121.36 159.531 1122.87 159.577 1124.02 159.485C1125.17 159.393 1126.2 159.531 1127.15 159.922V194.276H1127.12Z" fill="#FFEFDF"/>
<path d="M1286.44 310.136H1248.38V227.848C1248.38 216.083 1246.34 207.512 1242.27 202.089C1238.2 196.688 1232.37 193.977 1224.81 193.977C1219.71 193.977 1214.54 195.264 1209.32 197.86C1204.1 200.457 1199.46 204.019 1195.39 208.546C1191.33 213.073 1188.16 218.289 1185.88 224.217V310.136H1148.1V162.748H1182.46V190.231C1186.25 183.866 1191.07 178.535 1196.93 174.215C1202.79 169.918 1209.53 166.54 1217.09 164.104C1224.65 161.668 1232.8 160.45 1241.51 160.45C1250.8 160.45 1258.4 162.082 1264.38 165.368C1270.33 168.631 1274.88 173.089 1278 178.696C1281.13 184.303 1283.31 190.53 1284.53 197.378C1285.75 204.203 1286.37 211.097 1286.37 218.013V310.113L1286.44 310.136Z" fill="#FFEFDF"/>
<path d="M1388.4 312.986C1376.29 312.986 1365.44 310.918 1355.88 306.804C1346.32 302.691 1338.14 297.061 1331.32 289.961C1324.49 282.837 1319.34 274.749 1315.83 265.672C1312.31 256.595 1310.57 246.99 1310.57 236.879C1310.57 226.768 1312.31 216.565 1315.83 207.397C1319.32 198.228 1324.44 190.116 1331.15 183.108C1337.86 176.099 1346.07 170.561 1355.72 166.54C1365.37 162.519 1376.17 160.496 1388.1 160.496C1400.02 160.496 1411.33 162.519 1420.89 166.54C1430.45 170.561 1438.63 176.099 1445.45 183.108C1452.28 190.116 1457.47 198.228 1461.08 207.397C1464.66 216.565 1466.48 226.4 1466.48 236.879C1466.48 247.357 1464.69 256.595 1461.08 265.672C1457.47 274.749 1452.28 282.86 1445.45 289.961C1438.63 297.084 1430.45 302.691 1420.89 306.804C1411.33 310.918 1400.48 312.986 1388.37 312.986H1388.4ZM1349.47 236.856C1349.47 245.22 1351.17 252.734 1354.57 259.421C1357.97 266.108 1362.66 271.302 1368.63 275.024C1374.61 278.747 1381.18 280.585 1388.37 280.585C1395.57 280.585 1402.09 278.678 1407.97 274.863C1413.83 271.049 1418.52 265.855 1422.04 259.26C1425.53 252.665 1427.3 245.105 1427.3 236.557C1427.3 228.009 1425.55 220.725 1422.04 214.13C1418.52 207.535 1413.83 202.341 1407.97 198.527C1402.11 194.712 1395.47 192.805 1388.1 192.805C1380.72 192.805 1374.38 194.712 1368.5 198.527C1362.64 202.341 1357.99 207.535 1354.57 214.13C1351.17 220.725 1349.47 228.285 1349.47 236.833V236.856Z" fill="#FFEFDF"/>
<path d="M1563.59 310.136V108.518H1653.05C1662.12 108.518 1670.6 110.402 1678.46 114.194C1686.32 117.985 1693.12 123.087 1698.91 129.521C1704.68 135.955 1709.14 143.147 1712.26 151.098C1715.39 159.049 1716.95 167.183 1716.95 175.525C1716.95 183.866 1715.48 192.185 1712.54 199.952C1709.6 207.719 1705.39 214.566 1699.9 220.541C1694.41 226.516 1687.97 231.088 1680.6 234.305L1726.6 310.136H1683.45L1641.99 242.555H1602.81V310.136H1563.63H1563.59ZM1602.79 208.178H1651.92C1656.84 208.178 1661.2 206.708 1664.97 203.766C1668.76 200.825 1671.8 196.895 1674.05 191.978C1676.32 187.06 1677.45 181.568 1677.45 175.502C1677.45 169.435 1676.12 163.668 1673.47 158.75C1670.83 153.833 1667.52 149.949 1663.52 147.1C1659.53 144.25 1655.18 142.849 1650.47 142.849H1602.77V208.155L1602.79 208.178Z" fill="#FFEFDF"/>
<path d="M1812.36 312.986C1800.25 312.986 1789.4 310.918 1779.85 306.804C1770.29 302.691 1762.11 297.061 1755.28 289.961C1748.46 282.837 1743.31 274.749 1739.79 265.672C1736.28 256.595 1734.53 246.99 1734.53 236.879C1734.53 226.768 1736.28 216.565 1739.79 207.397C1743.29 198.228 1748.41 190.116 1755.12 183.108C1761.83 176.099 1770.03 170.561 1779.68 166.54C1789.34 162.519 1800.14 160.496 1812.06 160.496C1823.99 160.496 1835.29 162.519 1844.85 166.54C1854.41 170.561 1862.59 176.099 1869.42 183.108C1876.24 190.116 1881.44 198.228 1885.04 207.397C1888.63 216.565 1890.44 226.4 1890.44 236.879C1890.44 247.357 1888.65 256.595 1885.04 265.672C1881.44 274.749 1876.24 282.86 1869.42 289.961C1862.59 297.084 1854.41 302.691 1844.85 306.804C1835.29 310.918 1824.45 312.986 1812.34 312.986H1812.36ZM1773.46 236.856C1773.46 245.22 1775.16 252.734 1778.56 259.421C1781.96 266.108 1786.65 271.302 1792.62 275.024C1798.6 278.747 1805.17 280.585 1812.36 280.585C1819.55 280.585 1826.08 278.678 1831.96 274.863C1837.82 271.049 1842.51 265.855 1846.03 259.26C1849.52 252.665 1851.29 245.105 1851.29 236.557C1851.29 228.009 1849.54 220.725 1846.03 214.13C1842.51 207.535 1837.82 202.341 1831.96 198.527C1826.1 194.712 1819.46 192.805 1812.09 192.805C1804.71 192.805 1798.37 194.712 1792.48 198.527C1786.62 202.341 1781.98 207.535 1778.56 214.13C1775.16 220.725 1773.46 228.285 1773.46 236.833V236.856Z" fill="#FFEFDF"/>
<path d="M2002.63 302.76C1999.23 304.277 1995.3 305.84 1990.84 307.448C1986.38 309.057 1981.56 310.39 1976.36 311.424C1971.15 312.458 1965.91 312.986 1960.6 312.986C1953.41 312.986 1946.88 311.768 1941 309.333C1935.14 306.897 1930.45 302.99 1926.93 297.659C1923.42 292.305 1921.67 285.319 1921.67 276.702V191.726H1902.37V162.749H1921.67V114.47H1960V162.749H1991.23V191.726H1960V263.765C1960.19 268.82 1961.61 272.497 1964.25 274.841C1966.89 277.185 1970.32 278.334 1974.48 278.334C1978.27 278.334 1982.04 277.621 1985.83 276.197C1989.62 274.772 1992.75 273.508 1995.21 272.359L2002.58 302.738L2002.63 302.76Z" fill="#FFEFDF"/>
<path d="M2012.28 266.683C2012.28 257.147 2014.97 248.829 2020.37 241.705C2025.77 234.605 2033.24 229.044 2042.79 225.022C2052.35 221.001 2063.48 218.979 2076.16 218.979C2082.41 218.979 2088.75 219.461 2095.19 220.403C2101.62 221.346 2107.21 222.862 2111.94 224.953V216.75C2111.94 207.65 2109.18 200.572 2103.71 195.563C2098.22 190.554 2089.99 188.026 2079.01 188.026C2070.67 188.026 2062.83 189.451 2055.43 192.277C2048.06 195.126 2040.29 199.194 2032.16 204.479L2020.23 179.776C2029.88 173.158 2039.88 168.264 2050.19 165.162C2060.51 162.037 2071.36 160.474 2082.71 160.474C2103.92 160.474 2120.44 165.667 2132.28 176.008C2144.11 186.371 2150.02 201.354 2150.02 220.932V267.694C2150.02 271.624 2150.73 274.427 2152.15 276.105C2153.58 277.782 2155.9 278.816 2159.12 279.184V310.137C2155.71 310.711 2152.64 311.171 2149.88 311.562C2147.12 311.929 2144.8 312.021 2142.91 311.837C2135.33 311.837 2129.61 310.183 2125.73 306.874C2121.84 303.565 2119.52 299.452 2118.76 294.511L2117.91 286.836C2111.3 295.177 2103.14 301.612 2093.49 306.138C2083.84 310.665 2073.98 312.963 2063.96 312.963C2053.94 312.963 2045.25 310.895 2037.39 306.782C2029.54 302.669 2023.38 297.108 2018.94 290.099C2014.48 283.09 2012.28 275.278 2012.28 266.66V266.683ZM2104.86 273.807C2106.95 271.969 2108.65 269.831 2109.96 267.442C2111.3 265.052 2111.96 263.007 2111.96 261.352V246.669C2107.41 244.83 2102.49 243.406 2097.19 242.371C2091.88 241.36 2086.87 240.855 2082.14 240.855C2072.28 240.855 2064.19 242.923 2057.85 247.082C2051.5 251.241 2048.33 256.733 2048.33 263.558C2048.33 267.258 2049.37 270.797 2051.46 274.22C2053.55 277.644 2056.51 280.356 2060.4 282.378C2064.28 284.4 2069.06 285.434 2074.74 285.434C2080.41 285.434 2086 284.331 2091.49 282.102C2096.98 279.896 2101.44 277.116 2104.84 273.784L2104.86 273.807Z" fill="#FFEFDF"/>
<path d="M2240.32 312.986C2227.64 312.986 2215.48 310.895 2203.83 306.735C2192.18 302.576 2182.3 296.418 2174.17 288.283L2188.07 263.581C2196.78 270.773 2205.4 276.081 2213.92 279.482C2222.45 282.883 2230.76 284.584 2238.92 284.584C2246.3 284.584 2252.23 283.297 2256.66 280.746C2261.1 278.195 2263.33 274.358 2263.33 269.256C2263.33 265.511 2262.08 262.661 2259.63 260.708C2257.17 258.755 2253.61 257.054 2248.99 255.653C2244.34 254.251 2238.71 252.62 2232.1 250.758C2221.11 247.403 2211.97 243.979 2204.68 240.533C2197.4 237.086 2191.86 232.766 2188.07 227.641C2184.28 222.494 2182.39 215.922 2182.39 207.879C2182.39 198.159 2184.9 189.795 2189.93 182.786C2194.94 175.777 2201.95 170.308 2210.96 166.379C2219.94 162.45 2230.51 160.496 2242.62 160.496C2253.21 160.496 2263.26 162.151 2272.72 165.46C2282.19 168.769 2290.81 174.123 2298.58 181.499L2282.95 205.926C2275.57 199.86 2268.47 195.471 2261.65 192.713C2254.82 189.979 2247.93 188.6 2240.92 188.6C2236.95 188.6 2233.2 189.059 2229.71 190.002C2226.19 190.944 2223.36 192.483 2221.18 194.62C2219 196.757 2217.92 199.791 2217.92 203.697C2217.92 207.052 2218.91 209.764 2220.91 211.809C2222.91 213.854 2225.92 215.623 2230.01 217.117C2234.07 218.611 2239.04 220.288 2244.92 222.149C2256.85 225.504 2266.89 228.905 2275.02 232.352C2283.16 235.799 2289.36 240.119 2293.61 245.358C2297.86 250.574 2300 257.652 2300 266.591C2300 281.137 2294.6 292.488 2283.82 300.692C2273.05 308.895 2258.55 312.986 2240.37 312.986H2240.32Z" fill="#FFEFDF"/>
<path d="M432.948 68.7412V356.348C432.948 383.118 419.574 396.102 393.194 396.102H104.346C77.9663 396.102 64.6384 382.429 64.6384 356.348V68.7412C64.6384 40.8445 79.4829 27.1949 105.886 27.1949C105.771 27.103 392.343 27.1949 392.343 27.1949C419.574 27.1949 432.948 41.5339 432.948 68.7412Z" fill="#FFEFDF"/>
<path fill-rule="evenodd" clip-rule="evenodd" d="M379.107 100.372C375.674 100.372 372.891 103.155 372.891 106.588C372.891 110.021 375.674 112.804 379.107 112.804C382.54 112.804 385.323 110.021 385.323 106.588C385.323 103.155 382.54 100.372 379.107 100.372ZM363.217 106.588C363.217 97.8122 370.331 90.698 379.107 90.698C387.883 90.698 394.997 97.8122 394.997 106.588C394.997 115.364 387.883 122.478 379.107 122.478C370.331 122.478 363.217 115.364 363.217 106.588Z" fill="#F00631"/>
<path fill-rule="evenodd" clip-rule="evenodd" d="M379.107 171.446C372.058 171.446 366.343 177.162 366.343 184.211C366.343 191.261 372.058 196.976 379.107 196.976C386.157 196.976 391.872 191.261 391.872 184.211C391.872 177.162 386.157 171.446 379.107 171.446ZM356.668 184.211C356.668 171.819 366.715 161.772 379.107 161.772C391.5 161.772 401.547 171.819 401.547 184.211C401.547 196.604 391.5 206.65 379.107 206.65C366.715 206.65 356.668 196.604 356.668 184.211Z" fill="#F00631"/>
<path fill-rule="evenodd" clip-rule="evenodd" d="M379.107 112.803C381.779 112.803 383.945 114.969 383.945 117.641V166.609C383.945 169.28 381.779 171.446 379.107 171.446C376.436 171.446 374.27 169.28 374.27 166.609V117.641C374.27 114.969 376.436 112.803 379.107 112.803Z" fill="#F00631"/>
<path fill-rule="evenodd" clip-rule="evenodd" d="M379.107 250.311C381.779 250.311 383.945 252.476 383.945 255.148V280.172C383.945 282.843 381.779 285.009 379.107 285.009C376.436 285.009 374.27 282.843 374.27 280.172V255.148C374.27 252.476 376.436 250.311 379.107 250.311Z" fill="#F00631"/>
<path fill-rule="evenodd" clip-rule="evenodd" d="M379.107 196.976C381.779 196.976 383.945 199.142 383.945 201.813V232.582C383.945 235.254 381.779 237.42 379.107 237.42C376.436 237.42 374.27 235.254 374.27 232.582V201.813C374.27 199.142 376.436 196.976 379.107 196.976Z" fill="#F00631"/>
<path fill-rule="evenodd" clip-rule="evenodd" d="M379.107 297.9C381.779 297.9 383.945 300.066 383.945 302.737V327.762C383.945 330.433 381.779 332.599 379.107 332.599C376.436 332.599 374.27 330.433 374.27 327.762V302.737C374.27 300.066 376.436 297.9 379.107 297.9Z" fill="#F00631"/>
<path d="M278.689 76.4851H166.229C134.633 76.4851 109.034 102.084 109.034 133.68V281.665C109.034 297.751 121.672 310.849 137.505 311.653V331.117C137.505 339.78 144.514 346.811 153.2 346.811C161.886 346.811 168.895 339.78 168.895 331.117V311.699H276V331.117C276 339.78 283.009 346.811 291.695 346.811C300.381 346.811 307.39 339.78 307.39 331.117V311.653C323.245 310.826 335.861 297.728 335.861 281.665V133.68C335.861 102.084 310.262 76.4851 278.666 76.4851H278.689ZM175.788 90.2726H269.129C271.037 90.2726 272.76 91.0539 274.001 92.2947C275.242 93.5356 276.023 95.259 276.023 97.1663C276.023 100.981 272.921 104.06 269.129 104.06H175.788C173.881 104.06 172.181 103.279 170.94 102.038C169.699 100.797 168.918 99.0506 168.918 97.1663C168.918 93.3518 171.997 90.2726 175.788 90.2726ZM153.2 283.596C144.537 283.596 137.505 276.564 137.505 267.901C137.505 259.238 144.537 252.206 153.2 252.206C161.863 252.206 168.895 259.215 168.895 267.901C168.895 276.587 161.886 283.596 153.2 283.596ZM291.695 283.596C283.032 283.596 276 276.564 276 267.901C276 259.238 283.032 252.206 291.695 252.206C300.358 252.206 307.39 259.215 307.39 267.901C307.39 276.587 300.381 283.596 291.695 283.596ZM316.214 189.381C316.214 197.286 309.802 203.674 301.921 203.674H143.02C135.115 203.674 128.727 197.286 128.727 189.381V132.255C128.727 124.351 135.138 117.962 143.02 117.962H301.921C309.825 117.962 316.214 124.374 316.214 132.255V189.381Z" fill="#F00631"/>
<path d="M64.7305 241.384C67.465 258.251 55.9984 274.198 39.1318 276.956C22.2651 279.713 6.31762 268.223 3.56012 251.357C0.825609 234.49 12.2922 218.543 29.1588 215.785C46.0255 213.051 61.973 224.517 64.7305 241.384Z" fill="#FFEFDF"/>
<path d="M63.8573 161.118C63.099 167.391 62.5245 173.595 60.8011 179.662C59.0777 185.728 56.8487 191.68 54.2291 197.471C51.8852 202.595 47.2664 211.511 44.394 216.382C39.982 215.302 33.2951 214.406 28.5385 215.188C26.5393 215.509 22.6328 212.729 20.7945 213.349C6.52447 176.008 5.81212 121.823 18.1059 79.2891C18.1289 79.1742 26.2635 58.3321 26.2635 58.2172C30.5606 48.2903 33.6628 39.5122 39.4765 32.4347C56.5959 11.5237 92.2136 6.12363 116.479 7.04279C142.814 8.05387 182.82 17.1996 207.247 27.4023C203.455 28.9649 187.508 35.2152 183.349 38.0187C153.177 58.4241 109.747 77.8414 64.8914 138.368C64.7765 138.529 64.0871 158.981 63.8344 161.095L63.8573 161.118Z" fill="#F00631"/>
<path d="M84.3315 181.27C83.1136 179.731 81.7119 178.145 80.2183 176.468C75.4386 171.068 70.3372 165.277 68.1083 158.544C68.2921 156.338 68.43 154.132 68.4989 151.926C68.5679 149.145 68.5449 146.365 68.43 143.585C69.3721 140.988 70.8198 138.253 72.842 135.358C111.815 79.4499 172.319 46.3829 189.783 37.559C226.434 19.0608 232.845 32.5035 232.845 32.5035C244.772 46.9804 259.8 64.4215 257.571 75.1068C256.744 79.0822 263.109 74.2566 248.425 91.3531L118.18 192.99C114.434 195.977 110.964 197.333 107.426 197.218C101.152 196.988 94.0057 192.07 84.3086 181.293L84.3315 181.27Z" fill="#FFEFDF"/>
<path fill-rule="evenodd" clip-rule="evenodd" d="M224.117 28.4333C218.649 27.1475 208.907 28.482 189.528 38.3544L189.49 38.3734C166.635 49.6187 110.077 81.9007 72.8262 135.369L72.8209 135.376C68.9656 140.874 67.3384 145.713 67.034 149.978C66.7295 154.246 67.7327 158.172 69.5071 161.867C71.2952 165.591 73.8416 169.029 76.5637 172.281C77.7825 173.737 79.0119 175.127 80.2167 176.49C80.3559 176.647 80.4948 176.804 80.6334 176.961C81.8771 178.369 83.0989 179.761 84.1824 181.106C84.2115 181.136 84.24 181.166 84.268 181.197C92.5414 190.414 98.2944 194.947 103.491 196.219C108.355 197.41 113.477 195.879 121.052 190.46L246.516 88.9962C251.761 84.7475 254.688 81.0472 256.062 77.6598C257.392 74.3798 257.378 71.1162 256.153 67.4166C254.894 63.6114 252.371 59.4031 248.706 54.4219C245.569 50.1583 241.729 45.5007 237.345 40.1844C236.641 39.3307 235.923 38.46 235.191 37.5712C234.385 36.7202 233.624 35.8085 232.922 34.969C232.828 34.8559 232.734 34.744 232.642 34.6338C231.814 33.6451 231.041 32.7428 230.201 31.917C228.573 30.3159 226.741 29.0503 224.117 28.4333ZM79.9715 185.492C88.1231 194.543 94.9167 200.366 102.048 202.112C109.56 203.95 116.601 201.117 124.658 195.34C124.706 195.306 124.752 195.27 124.798 195.233L250.333 93.7116L250.335 93.7099C255.982 89.1347 259.771 84.6572 261.684 79.9395C263.64 75.1144 263.512 70.3453 261.913 65.511C260.348 60.7824 257.366 55.9555 253.593 50.8267C250.348 46.4161 246.383 41.6082 242.009 36.3054C241.286 35.4282 240.551 34.5374 239.807 33.6326C239.759 33.5748 239.71 33.5187 239.658 33.4646C238.971 32.7458 238.319 31.9654 237.577 31.0785C237.484 30.9669 237.389 30.8537 237.293 30.7387C236.459 29.7433 235.523 28.6419 234.455 27.5917C232.268 25.4408 229.491 23.4649 225.506 22.5279C217.758 20.7063 206.284 23.012 186.793 32.9394C163.587 44.3597 105.962 77.1962 67.8513 131.897C63.4819 138.129 61.3786 144.002 60.9829 149.546C60.5873 155.09 61.915 160.071 64.0384 164.493C66.1482 168.887 69.0665 172.776 71.9118 176.175C73.1868 177.698 74.4719 179.151 75.6706 180.507C75.8107 180.665 75.9496 180.822 76.0872 180.978C77.4178 182.484 78.6158 183.852 79.6378 185.136C79.7405 185.265 79.8522 185.384 79.9715 185.492Z" fill="#2B0606"/>
<path fill-rule="evenodd" clip-rule="evenodd" d="M118.258 3.11825C150.085 4.33195 184.012 13.2399 208.551 24.6757C210.069 25.3834 210.727 27.1879 210.019 28.7063C209.311 30.2248 207.507 30.882 205.988 30.1744C182.156 19.0677 149.019 10.3622 118.027 9.18033C86.8493 7.99139 58.8484 14.4376 44.098 32.4491C28.9327 50.9813 18.0398 82.8431 13.902 117.381C9.7701 151.871 12.4493 188.421 23.8523 216.148C24.4895 217.697 23.7501 219.47 22.2008 220.107C20.6515 220.744 18.879 220.005 18.2418 218.455C6.32102 189.47 3.66908 151.797 7.8786 116.66C12.0822 81.572 23.203 48.4034 39.4038 28.6063L39.4045 28.6054C56.0436 8.28776 86.6164 1.91162 118.258 3.11825Z" fill="#2B0606"/>
<path d="M41.3148 214.337C42.9693 211.603 44.5549 208.822 46.0715 206.019C46.8069 204.617 47.5422 203.193 48.2545 201.768C48.9669 200.343 49.6333 198.895 50.2997 197.471C52.9193 191.68 55.1483 185.751 56.8487 179.662C57.0785 178.904 57.2624 178.145 57.4692 177.387C57.676 176.629 57.8598 175.87 58.0436 175.089C58.2275 174.331 58.4113 173.549 58.5722 172.791C58.733 172.01 58.8939 171.252 59.0547 170.47C59.6752 167.368 60.1577 164.266 60.5254 161.118C60.893 157.993 61.1458 154.821 61.2377 151.673C61.3526 148.502 61.3756 145.354 61.2377 142.183C61.2148 141.379 61.1688 140.597 61.1228 139.793C61.1228 139.402 61.0769 138.989 61.0539 138.598C61.0309 138.208 61.0079 137.794 60.985 137.403C60.8701 135.818 60.7322 134.232 60.5943 132.647C60.4335 131.061 60.2496 129.476 60.0428 127.89C59.836 126.304 59.6062 124.719 59.3764 123.133C58.8939 119.962 58.3194 116.814 57.6989 113.643C57.0785 110.472 56.4351 107.301 55.7457 104.13C55.0564 100.958 54.367 97.7414 53.7925 94.5013C53.5168 92.8698 53.241 91.2383 53.0112 89.6068C52.8963 88.7795 52.8044 87.9523 52.7125 87.1251C52.6206 86.2978 52.5516 85.4476 52.4827 84.6203C52.3678 82.9429 52.3218 81.2424 52.3678 79.5419C52.4367 77.8415 52.5976 76.1181 52.9423 74.4176C53.1261 73.5674 53.3329 72.7401 53.6087 71.9129C53.8844 71.0857 54.2061 70.2814 54.5968 69.5231C55.3781 67.9835 56.4121 66.6047 57.676 65.5017C57.6989 65.5017 57.7449 65.5017 57.7679 65.5017C57.7679 65.5017 57.7679 65.5477 57.7679 65.5706C57.3772 66.306 57.0555 67.0413 56.7798 67.7996L56.596 68.3741L56.4351 68.9486C56.3891 69.1324 56.3432 69.3392 56.2972 69.5231C56.2513 69.7069 56.2053 69.9137 56.1593 70.0975C55.9985 70.8558 55.9066 71.6371 55.8376 72.3954C55.7687 73.1767 55.7687 73.9351 55.7687 74.7164C55.8147 77.8185 56.3432 80.9207 56.9866 83.9999C57.63 87.102 58.4343 90.2042 59.2385 93.3294L60.4335 98.0401C60.8471 99.6027 61.2148 101.188 61.6284 102.774C62.4097 105.945 63.2139 109.116 63.9493 112.333C64.6846 115.55 65.351 118.79 65.9484 122.03C66.2472 123.662 66.5229 125.293 66.7757 126.948C67.0285 128.579 67.2583 130.234 67.4421 131.888C67.6489 133.543 67.8098 135.197 67.9706 136.852C68.0166 137.265 68.0395 137.679 68.0855 138.093C68.1085 138.506 68.1544 138.92 68.1774 139.334C68.2464 140.161 68.2923 141.011 68.3153 141.838C68.4761 145.17 68.5221 148.525 68.4302 151.88C68.3383 155.235 68.0855 158.59 67.7408 161.922C67.3502 165.254 66.8446 168.586 66.1782 171.872C65.8565 173.527 65.4659 175.158 65.0752 176.79C64.8684 177.617 64.6616 178.421 64.4548 179.225C64.225 180.03 64.0182 180.834 63.7654 181.638C61.8582 188.072 59.3994 194.345 56.4811 200.366C55.7457 201.86 54.9874 203.353 54.2061 204.824C53.8155 205.559 53.4019 206.295 53.0112 207.03C52.8044 207.398 52.5976 207.765 52.3908 208.11C52.184 208.478 51.9771 208.822 51.7703 209.19C50.0699 212.062 48.3005 214.866 46.3932 217.6C45.4511 218.979 43.5438 219.324 42.1651 218.359C40.8323 217.44 40.4646 215.67 41.2919 214.314L41.3148 214.337Z" fill="#2B0606"/>
<path fill-rule="evenodd" clip-rule="evenodd" d="M34.1453 217.532C18.218 217.532 5.30647 230.443 5.30647 246.37C5.30647 262.298 18.218 275.209 34.1453 275.209C50.0725 275.209 62.984 262.298 62.984 246.37C62.984 230.443 50.0725 217.532 34.1453 217.532ZM-0.76001 246.37C-0.76001 227.093 14.8676 211.465 34.1453 211.465C53.4229 211.465 69.0505 227.093 69.0505 246.37C69.0505 265.648 53.4229 281.276 34.1453 281.276C14.8676 281.276 -0.76001 265.648 -0.76001 246.37Z" fill="#2B0606"/>
</g>
<defs>
<clipPath id="clip0_714_6">
<rect width="2300" height="400" fill="white"/>
</clipPath>
</defs>
</svg>
