<svg width="333" height="58" viewBox="0 0 333 58" fill="none" xmlns="http://www.w3.org/2000/svg">
<path d="M57.0275 6.44954V50.9853C57.0275 55.1266 54.9569 57.1294 50.8835 57.1294H6.14404C2.07064 57.1294 0 55.0248 0 50.9853V6.44954C0 2.13853 2.30826 0 6.38165 0H50.7477C54.9569 0.033945 57.0275 2.24037 57.0275 6.44954Z" fill="#ECDCC4"/>
<path d="M48.677 14.7661C47.3192 14.7661 46.199 13.646 46.199 12.2882C46.199 10.9304 47.3192 9.81018 48.677 9.81018C50.0348 9.81018 51.155 10.9304 51.155 12.2882C51.155 13.646 50.0348 14.7661 48.677 14.7661ZM48.677 11.3377C48.1339 11.3377 47.7266 11.779 47.7266 12.2882C47.7266 12.8313 48.1678 13.2386 48.677 13.2386C49.2201 13.2386 49.6275 12.7973 49.6275 12.2882C49.6614 11.779 49.2201 11.3377 48.677 11.3377Z" fill="#2C0EEB"/>
<path d="M48.677 27.801C46.7761 27.801 45.2147 26.2395 45.2147 24.3386C45.2147 22.4377 46.7761 20.8762 48.677 20.8762C50.578 20.8762 52.1394 22.4377 52.1394 24.3386C52.1394 26.2395 50.6119 27.801 48.677 27.801ZM48.677 22.3698C47.5908 22.3698 46.7082 23.2524 46.7082 24.3386C46.7082 25.4248 47.5908 26.3074 48.677 26.3074C49.7633 26.3074 50.6459 25.4248 50.6459 24.3386C50.6459 23.2524 49.7633 22.3698 48.677 22.3698Z" fill="#2C0EEB"/>
<path d="M48.677 22.3698C48.2697 22.3698 47.9302 22.0303 47.9302 21.623V14.0533C47.9302 13.6459 48.2697 13.3065 48.677 13.3065C49.0844 13.3065 49.4238 13.6459 49.4238 14.0533V21.623C49.4238 22.0303 49.0844 22.3698 48.677 22.3698Z" fill="#2C0EEB"/>
<path d="M48.677 39.9533C48.2697 39.9533 47.9302 39.6138 47.9302 39.2065V35.3368C47.9302 34.9294 48.2697 34.59 48.677 34.59C49.0844 34.59 49.4238 34.9294 49.4238 35.3368V39.2065C49.4238 39.6138 49.0844 39.9533 48.677 39.9533Z" fill="#2C0EEB"/>
<path d="M48.677 32.5872C48.2697 32.5872 47.9302 32.2478 47.9302 31.8404V27.0881C47.9302 26.6808 48.2697 26.3414 48.677 26.3414C49.0844 26.3414 49.4238 26.6808 49.4238 27.0881V31.8404C49.4238 32.2478 49.0844 32.5872 48.677 32.5872Z" fill="#2C0EEB"/>
<path d="M48.677 47.3194C48.2697 47.3194 47.9302 46.9799 47.9302 46.5726V42.7028C47.9302 42.2955 48.2697 41.9561 48.677 41.9561C49.0844 41.9561 49.4238 42.2955 49.4238 42.7028V46.5726C49.4238 46.9799 49.0844 47.3194 48.677 47.3194Z" fill="#2C0EEB"/>
<path d="M33.1303 7.63763H15.7165C10.8284 7.63763 6.85687 11.6092 6.85687 16.4973V39.4101C6.85687 41.8881 8.82568 43.9248 11.2697 44.0606V47.0817C11.2697 48.4395 12.356 49.5257 13.7138 49.5257C15.0716 49.5257 16.1578 48.4395 16.1578 47.0817V44.0606H32.7569V47.0817C32.7569 48.4395 33.8431 49.5257 35.2009 49.5257C36.5587 49.5257 37.6449 48.4395 37.6449 47.0817V44.0606C40.089 43.9248 42.0578 41.8881 42.0578 39.4101V16.4973C41.9899 11.6092 38.0183 7.63763 33.1303 7.63763ZM17.2101 9.77617H31.6706C31.9761 9.77617 32.2477 9.91195 32.4174 10.0817C32.6211 10.2853 32.7229 10.5569 32.7229 10.8285C32.7229 11.4055 32.2477 11.8808 31.6706 11.8808H17.2101C16.9046 11.8808 16.667 11.745 16.4633 11.5753C16.2596 11.3716 16.1578 11.1 16.1578 10.8285C16.1238 10.2514 16.5991 9.77617 17.2101 9.77617ZM13.7138 39.7156C12.356 39.7156 11.2697 38.6294 11.2697 37.2716C11.2697 35.9138 12.356 34.8276 13.7138 34.8276C15.0716 34.8276 16.1578 35.9138 16.1578 37.2716C16.1238 38.6294 15.0376 39.7156 13.7138 39.7156ZM35.133 39.7156C33.7752 39.7156 32.689 38.6294 32.689 37.2716C32.689 35.9138 33.7752 34.8276 35.133 34.8276C36.4908 34.8276 37.5771 35.9138 37.5771 37.2716C37.5771 38.6294 36.4908 39.7156 35.133 39.7156ZM38.9349 25.1193C38.9349 26.3413 37.9505 27.3257 36.7284 27.3257H12.1183C10.8963 27.3257 9.91192 26.3413 9.91192 25.1193V16.2597C9.91192 15.0376 10.8963 14.0532 12.1183 14.0532H36.7284C37.9505 14.0532 38.9349 15.0376 38.9349 16.2597V25.1193Z" fill="#2C0EEB"/>
<path d="M68.8404 41.7183V11.9486H74.645V41.7183H68.8404Z" fill="#ECDCC4"/>
<path d="M100.715 41.7184H95.0798V29.3964C95.0798 27.6312 94.7743 26.3413 94.1633 25.5266C93.5523 24.7119 92.7036 24.3046 91.6174 24.3046C91.0743 24.3046 90.4972 24.4064 89.8862 24.6441C89.3091 24.8817 88.7321 25.1872 88.2229 25.5945C87.7137 26.0019 87.2385 26.4771 86.8312 27.0541C86.4238 27.5973 86.1183 28.2422 85.9146 28.8872V41.7184H80.2798V19.722H85.3715V23.7954C86.1862 22.4037 87.3403 21.3174 88.9018 20.5367C90.4293 19.756 92.1605 19.3486 94.0954 19.3486C95.4532 19.3486 96.5734 19.5863 97.4559 20.0954C98.3385 20.6046 98.9835 21.2496 99.4587 22.0642C99.9339 22.8789 100.273 23.7954 100.443 24.8477C100.613 25.8661 100.715 26.9184 100.715 28.0046V41.7184Z" fill="#ECDCC4"/>
<path d="M118.57 40.5642C117.823 40.9037 116.906 41.2431 115.786 41.5826C114.7 41.922 113.546 42.0917 112.358 42.0917C111.577 42.0917 110.83 41.9899 110.151 41.7862C109.472 41.5826 108.861 41.277 108.352 40.8358C107.843 40.3945 107.436 39.8514 107.13 39.1725C106.825 38.4936 106.655 37.6449 106.655 36.6605V24.033H103.77V19.722H106.655V12.5936H112.29V19.722H116.906V24.033H112.29V34.7596C112.29 35.5404 112.494 36.0835 112.901 36.4229C113.308 36.7284 113.817 36.8982 114.394 36.8982C114.972 36.8982 115.549 36.7963 116.126 36.5926C116.669 36.389 117.144 36.2192 117.483 36.0835L118.57 40.5642Z" fill="#ECDCC4"/>
<path d="M131.163 42.1257C129.398 42.1257 127.803 41.8202 126.377 41.2092C124.951 40.5982 123.729 39.7835 122.711 38.7652C121.693 37.7468 120.912 36.5248 120.369 35.167C119.826 33.8092 119.554 32.3496 119.554 30.856C119.554 29.2945 119.826 27.8009 120.335 26.4431C120.878 25.0514 121.625 23.8294 122.643 22.7771C123.661 21.7248 124.883 20.9101 126.309 20.2652C127.735 19.6541 129.364 19.3486 131.163 19.3486C132.962 19.3486 134.558 19.6541 135.983 20.2652C137.409 20.8762 138.597 21.6908 139.582 22.7431C140.566 23.7615 141.313 24.9835 141.856 26.3413C142.365 27.6991 142.637 29.1248 142.637 30.6184C142.637 30.9918 142.637 31.3312 142.603 31.6706C142.603 32.0101 142.569 32.2817 142.501 32.5193H125.495C125.562 33.4018 125.8 34.1486 126.139 34.8275C126.479 35.5064 126.92 36.0835 127.429 36.5587C127.972 37.034 128.55 37.4074 129.228 37.645C129.907 37.8826 130.586 38.0184 131.333 38.0184C132.453 38.0184 133.506 37.7468 134.49 37.2037C135.474 36.6606 136.153 35.9477 136.527 35.0312L141.347 36.389C140.532 38.0523 139.242 39.4441 137.477 40.5303C135.746 41.5826 133.641 42.1257 131.163 42.1257ZM136.866 28.8872C136.73 27.2239 136.119 25.9 135.033 24.9156C133.947 23.9312 132.657 23.422 131.095 23.422C130.349 23.422 129.636 23.5578 128.991 23.8294C128.346 24.1009 127.769 24.4743 127.26 24.9496C126.75 25.4248 126.343 26.0019 126.038 26.6808C125.732 27.3597 125.528 28.1064 125.461 28.9211H136.866V28.8872Z" fill="#ECDCC4"/>
<path d="M159.202 24.61C157.505 24.644 155.977 24.9834 154.619 25.5944C153.262 26.2394 152.311 27.1559 151.734 28.4119V41.7183H146.099V19.722H151.259V24.4064C151.666 23.6596 152.107 22.9807 152.651 22.3697C153.194 21.7586 153.771 21.2495 154.382 20.8082C154.993 20.3669 155.604 20.0274 156.249 19.7898C156.894 19.5522 157.471 19.4164 158.082 19.4164C158.387 19.4164 158.625 19.4164 158.761 19.4164C158.93 19.4164 159.066 19.4164 159.202 19.4504V24.61Z" fill="#ECDCC4"/>
<path d="M182.76 41.7184H177.125V29.3964C177.125 27.6312 176.819 26.3413 176.208 25.5266C175.597 24.7119 174.749 24.3046 173.662 24.3046C173.119 24.3046 172.542 24.4064 171.931 24.6441C171.354 24.8817 170.777 25.1872 170.268 25.5945C169.759 26.0019 169.284 26.4771 168.876 27.0541C168.469 27.5973 168.163 28.2422 167.96 28.8872V41.7184H162.325V19.722H167.417V23.7954C168.231 22.4037 169.385 21.3174 170.947 20.5367C172.474 19.756 174.206 19.3486 176.14 19.3486C177.498 19.3486 178.618 19.5863 179.501 20.0954C180.384 20.6046 181.028 21.2496 181.504 22.0642C181.979 22.8789 182.318 23.7954 182.488 24.8477C182.658 25.8661 182.76 26.9184 182.76 28.0046V41.7184Z" fill="#ECDCC4"/>
<path d="M197.831 42.1257C196.032 42.1257 194.437 41.8201 193.011 41.2091C191.585 40.5981 190.363 39.7495 189.379 38.6972C188.395 37.6449 187.614 36.4229 187.105 35.0651C186.562 33.7073 186.324 32.2477 186.324 30.7541C186.324 29.2266 186.595 27.7669 187.105 26.3752C187.648 25.0174 188.395 23.7954 189.379 22.7431C190.363 21.6908 191.585 20.8761 193.011 20.2312C194.437 19.6201 196.032 19.3146 197.831 19.3146C199.63 19.3146 201.226 19.6201 202.617 20.2312C204.043 20.8422 205.231 21.6908 206.216 22.7431C207.2 23.7954 207.981 25.0174 208.49 26.3752C209.033 27.733 209.271 29.1926 209.271 30.7541C209.271 32.2477 208.999 33.7073 208.49 35.0651C207.947 36.4229 207.2 37.6449 206.216 38.6972C205.231 39.7495 204.043 40.5642 202.617 41.2091C201.226 41.8201 199.596 42.1257 197.831 42.1257ZM192.061 30.7541C192.061 31.7385 192.196 32.6211 192.502 33.4018C192.807 34.1825 193.215 34.8954 193.724 35.4724C194.233 36.0495 194.844 36.5247 195.557 36.8302C196.27 37.1357 197.017 37.3055 197.831 37.3055C198.646 37.3055 199.393 37.1357 200.106 36.8302C200.818 36.5247 201.429 36.0495 201.939 35.4724C202.448 34.8954 202.855 34.1825 203.161 33.3678C203.466 32.5532 203.602 31.6706 203.602 30.6862C203.602 29.7357 203.466 28.8532 203.161 28.0385C202.855 27.2238 202.448 26.5449 201.939 25.9339C201.429 25.3568 200.818 24.8816 200.106 24.5761C199.393 24.2706 198.646 24.1009 197.831 24.1009C197.017 24.1009 196.27 24.2706 195.557 24.61C194.844 24.9495 194.233 25.3908 193.724 26.0018C193.215 26.5789 192.807 27.2917 192.502 28.1064C192.23 28.921 192.061 29.8036 192.061 30.7541Z" fill="#ECDCC4"/>
<path d="M223.697 41.7183V11.9486H236.868C238.226 11.9486 239.516 12.2202 240.67 12.7972C241.824 13.3743 242.842 14.1211 243.657 15.0715C244.506 16.022 245.15 17.0743 245.626 18.2624C246.101 19.4504 246.339 20.6385 246.339 21.8605C246.339 23.7954 245.863 25.5605 244.879 27.122C243.928 28.7174 242.605 29.8376 240.941 30.5504L247.73 41.7523H241.213L235.137 31.7725H229.434V41.7523H223.697V41.7183ZM229.502 26.6468H236.766C237.309 26.6468 237.784 26.511 238.26 26.2734C238.735 26.0358 239.108 25.6963 239.448 25.255C239.787 24.8137 240.059 24.3046 240.228 23.7275C240.432 23.1504 240.534 22.5055 240.534 21.8266C240.534 21.1137 240.432 20.4688 240.195 19.8917C239.957 19.3147 239.685 18.8055 239.278 18.3642C238.905 17.9229 238.463 17.5835 237.988 17.3459C237.513 17.1082 237.004 16.9725 236.495 16.9725H229.502V26.6468Z" fill="#ECDCC4"/>
<path d="M260.595 42.1257C258.796 42.1257 257.201 41.8201 255.775 41.2091C254.35 40.5981 253.128 39.7495 252.143 38.6972C251.159 37.6449 250.378 36.4229 249.869 35.0651C249.326 33.7073 249.088 32.2477 249.088 30.7541C249.088 29.2266 249.36 27.7669 249.869 26.3752C250.412 25.0174 251.159 23.7954 252.143 22.7431C253.128 21.6908 254.35 20.8761 255.775 20.2312C257.201 19.6201 258.796 19.3146 260.595 19.3146C262.395 19.3146 263.99 19.6201 265.382 20.2312C266.807 20.8422 267.995 21.6908 268.98 22.7431C269.964 23.7954 270.745 25.0174 271.254 26.3752C271.797 27.733 272.035 29.1926 272.035 30.7541C272.035 32.2477 271.763 33.7073 271.254 35.0651C270.711 36.4229 269.964 37.6449 268.98 38.6972C267.995 39.7495 266.807 40.5642 265.382 41.2091C263.99 41.8201 262.361 42.1257 260.595 42.1257ZM254.825 30.7541C254.825 31.7385 254.961 32.6211 255.266 33.4018C255.572 34.1825 255.979 34.8954 256.488 35.4724C256.997 36.0495 257.608 36.5247 258.321 36.8302C259.034 37.1357 259.781 37.3055 260.595 37.3055C261.41 37.3055 262.157 37.1357 262.87 36.8302C263.583 36.5247 264.194 36.0495 264.703 35.4724C265.212 34.8954 265.619 34.1825 265.925 33.3678C266.23 32.5532 266.366 31.6706 266.366 30.6862C266.366 29.7357 266.23 28.8532 265.925 28.0385C265.619 27.2238 265.212 26.5449 264.703 25.9339C264.194 25.3568 263.583 24.8816 262.87 24.5761C262.157 24.2706 261.41 24.1009 260.595 24.1009C259.781 24.1009 259.034 24.2706 258.321 24.61C257.608 24.9495 256.997 25.3908 256.488 26.0018C255.979 26.5789 255.572 27.2917 255.266 28.1064C254.995 28.921 254.825 29.8036 254.825 30.7541Z" fill="#ECDCC4"/>
<path d="M288.736 40.5642C287.989 40.9037 287.072 41.2431 285.952 41.5826C284.866 41.922 283.712 42.0917 282.524 42.0917C281.743 42.0917 280.996 41.9899 280.317 41.7862C279.639 41.5826 279.028 41.277 278.518 40.8358C278.009 40.3945 277.602 39.8514 277.296 39.1725C276.991 38.4936 276.821 37.6449 276.821 36.6605V24.033H273.936V19.722H276.821V12.5936H282.422V19.722H287.039V24.033H282.422V34.7596C282.422 35.5404 282.626 36.0835 283.033 36.4229C283.44 36.7284 283.95 36.8982 284.527 36.8982C285.104 36.8982 285.681 36.7963 286.258 36.5926C286.801 36.389 287.276 36.2192 287.616 36.0835L288.736 40.5642Z" fill="#ECDCC4"/>
<path d="M297.663 42.1257C296.611 42.1257 295.593 41.9559 294.676 41.6165C293.76 41.277 292.945 40.7678 292.3 40.1568C291.655 39.5458 291.112 38.799 290.739 37.9504C290.365 37.1018 290.161 36.1853 290.161 35.1669C290.161 34.1486 290.399 33.1642 290.84 32.2816C291.316 31.399 291.961 30.6522 292.775 30.0412C293.59 29.4302 294.574 28.955 295.728 28.5816C296.883 28.2422 298.139 28.0724 299.496 28.0724C300.481 28.0724 301.431 28.1403 302.382 28.3101C303.332 28.4798 304.147 28.7174 304.894 29.0229V27.7669C304.894 26.3073 304.486 25.1871 303.672 24.4064C302.857 23.6256 301.635 23.2183 300.006 23.2183C298.817 23.2183 297.697 23.422 296.577 23.8632C295.457 24.2706 294.303 24.8816 293.149 25.6963L291.417 22.1321C294.235 20.2651 297.29 19.3146 300.549 19.3146C303.706 19.3146 306.15 20.0954 307.915 21.6568C309.646 23.2183 310.528 25.4587 310.528 28.3779V35.2009C310.528 35.7779 310.63 36.2192 310.834 36.4568C311.038 36.6945 311.377 36.8642 311.852 36.8642V41.6504C310.902 41.8541 310.087 41.9559 309.374 41.9559C308.322 41.9559 307.507 41.7183 306.93 41.2431C306.353 40.7678 306.014 40.1229 305.844 39.3422L305.708 38.1201C304.724 39.41 303.536 40.3944 302.144 41.0733C300.752 41.7862 299.259 42.1257 297.663 42.1257ZM299.259 38.0183C300.209 38.0183 301.126 37.8486 301.974 37.5091C302.823 37.1697 303.502 36.7284 303.977 36.1513C304.588 35.6761 304.894 35.133 304.894 34.5559V32.044C304.215 31.8064 303.502 31.6027 302.721 31.433C301.94 31.2633 301.194 31.1954 300.447 31.1954C298.987 31.1954 297.799 31.5348 296.883 32.1798C295.966 32.8247 295.491 33.6733 295.491 34.6917C295.491 35.6422 295.864 36.4229 296.577 37.0678C297.29 37.7128 298.206 38.0183 299.259 38.0183Z" fill="#ECDCC4"/>
<path d="M324.039 42.1257C322.206 42.1257 320.373 41.8201 318.641 41.2431C316.876 40.666 315.383 39.8174 314.127 38.7312L316.231 35.2009C317.589 36.1513 318.879 36.8642 320.169 37.3734C321.425 37.8486 322.715 38.1201 323.971 38.1201C325.091 38.1201 325.973 37.9165 326.618 37.4752C327.263 37.0679 327.569 36.4568 327.569 35.6761C327.569 34.8954 327.196 34.3183 326.449 33.9449C325.702 33.5715 324.446 33.1642 322.749 32.6889C321.323 32.2816 320.101 31.9082 319.083 31.5688C318.064 31.1954 317.25 30.788 316.639 30.3467C316.028 29.8715 315.586 29.3623 315.281 28.7513C315.009 28.1403 314.873 27.4275 314.873 26.5788C314.873 25.4587 315.077 24.4403 315.518 23.5578C315.96 22.6752 316.571 21.8944 317.351 21.2834C318.132 20.6385 319.049 20.1633 320.101 19.8238C321.153 19.4844 322.273 19.3146 323.529 19.3146C325.193 19.3146 326.72 19.5522 328.18 20.0275C329.606 20.5027 330.929 21.2834 332.151 22.3357L329.877 25.7302C328.757 24.8816 327.671 24.2706 326.618 23.8972C325.566 23.4899 324.514 23.3201 323.496 23.3201C322.545 23.3201 321.73 23.5238 321.119 23.8972C320.474 24.3045 320.169 24.9155 320.169 25.7981C320.169 26.2055 320.237 26.511 320.407 26.7486C320.576 26.9862 320.814 27.2238 321.153 27.4275C321.493 27.6311 321.934 27.8009 322.477 28.0045C323.02 28.1743 323.699 28.3779 324.514 28.5816C326.007 28.9889 327.331 29.3623 328.384 29.7697C329.47 30.177 330.352 30.6183 331.031 31.1275C331.71 31.6367 332.219 32.2137 332.525 32.8587C332.83 33.5036 333 34.3183 333 35.2348C333 37.3733 332.219 39.1045 330.624 40.3266C328.961 41.5146 326.788 42.1257 324.039 42.1257Z" fill="#ECDCC4"/>
</svg>
