<?xml version="1.0" encoding="UTF-8"?>
<svg xmlns="http://www.w3.org/2000/svg" viewBox="0 0 2235 754">
  <defs>
    <style>
      .cls-1 {
        stroke: #2b0606;
        stroke-width: 4.1px;
      }

      .cls-1, .cls-2 {
        fill: none;
        stroke-linecap: round;
        stroke-linejoin: round;
      }

      .cls-3 {
        fill: #f00631;
      }

      .cls-2 {
        stroke: #f00631;
        stroke-width: 6.54px;
      }

      .cls-4 {
        fill: #2b0606;
      }

      .cls-5 {
        fill: #ffefdf;
      }
    </style>
  </defs>
  <g id="Fundo">
    <rect class="cls-3" width="2235" height="754"/>
  </g>
  <g id="Elementos">
    <g>
      <g>
        <path class="cls-5" d="M1034.87,364.69v-97.78h19.01v97.78h-19.01Z"/>
        <path class="cls-5" d="M1139.54,364.69h-18.45v-39.9c0-5.7-.99-9.86-2.96-12.49-1.98-2.62-4.8-3.94-8.47-3.94-2.48,0-4.98.63-7.51,1.88-2.53,1.26-4.78,2.98-6.75,5.18-1.97,2.2-3.51,4.73-4.61,7.6v41.67h-18.32v-71.48h16.66v13.33c1.83-3.09,4.18-5.67,7.02-7.76,2.84-2.09,6.11-3.72,9.78-4.9,3.67-1.18,7.62-1.77,11.84-1.77,4.5,0,8.19.8,11.09,2.38,2.89,1.59,5.1,3.74,6.61,6.47,1.51,2.72,2.57,5.74,3.17,9.05.6,3.31.89,6.65.89,10.01v44.67Z"/>
        <path class="cls-5" d="M1198.48,361.11c-1.65.74-3.56,1.49-5.72,2.27-2.16.78-4.5,1.42-7.02,1.93-2.53.5-5.07.76-7.64.76-3.49,0-6.66-.59-9.5-1.77-2.85-1.18-5.12-3.07-6.82-5.66-1.7-2.59-2.55-5.98-2.55-10.16v-41.21h-9.36v-14.05h9.36v-23.41h18.59v23.41h15.15v14.05h-15.15v34.94c.09,2.45.78,4.24,2.07,5.37,1.29,1.13,2.94,1.7,4.96,1.7,1.84,0,3.67-.34,5.51-1.03,1.84-.69,3.35-1.31,4.54-1.86l3.58,14.74Z"/>
        <path class="cls-5" d="M1240.62,366.07c-5.78,0-11.02-.98-15.7-2.93-4.68-1.95-8.68-4.63-11.98-8.04-3.31-3.4-5.83-7.29-7.58-11.64-1.75-4.36-2.62-9.03-2.62-14.03,0-6.72,1.54-12.92,4.61-18.59,3.08-5.68,7.44-10.22,13.08-13.62s12.42-5.11,20.31-5.11,14.51,1.71,20.11,5.12c5.6,3.41,9.92,7.89,12.95,13.44,3.03,5.55,4.54,11.59,4.54,18.14,0,1.18-.05,2.3-.14,3.34-.09,1.05-.18,1.93-.28,2.66h-55.64c.28,3.77,1.31,6.98,3.1,9.63,1.79,2.65,4.08,4.69,6.89,6.12,2.8,1.44,5.76,2.15,8.88,2.15,3.76,0,7.28-.9,10.54-2.69,3.26-1.79,5.48-4.2,6.68-7.23l15.7,4.41c-1.65,3.67-4.09,6.93-7.3,9.78-3.21,2.85-7.02,5.07-11.43,6.68s-9.32,2.41-14.74,2.41ZM1221.76,323.24h37.74c-.37-3.59-1.4-6.71-3.1-9.35-1.7-2.65-3.92-4.71-6.68-6.19-2.75-1.48-5.83-2.22-9.23-2.22s-6.31.74-9.02,2.22c-2.71,1.48-4.91,3.54-6.61,6.19-1.7,2.65-2.73,5.77-3.1,9.35Z"/>
        <path class="cls-5" d="M1332.76,308.5c-5.69.09-10.74,1.17-15.15,3.24-4.41,2.07-7.62,5.12-9.64,9.16v43.79h-18.32v-71.48h16.94v14.74c2.57-4.96,5.85-8.86,9.85-11.71,3.99-2.84,8.19-4.41,12.6-4.68.92.09,1.65.12,2.2.07.55-.05,1.05.02,1.52.21v16.66Z"/>
        <path class="cls-5" d="M1410.02,364.69h-18.45v-39.9c0-5.7-.99-9.86-2.96-12.49-1.98-2.62-4.8-3.94-8.47-3.94-2.48,0-4.98.63-7.51,1.88-2.53,1.26-4.78,2.98-6.75,5.18-1.97,2.2-3.51,4.73-4.61,7.6v41.67h-18.32v-71.48h16.66v13.33c1.83-3.09,4.18-5.67,7.02-7.76,2.84-2.09,6.11-3.72,9.78-4.9,3.67-1.18,7.62-1.77,11.84-1.77,4.5,0,8.19.8,11.09,2.38,2.89,1.59,5.1,3.74,6.61,6.47,1.51,2.72,2.57,5.74,3.17,9.05.6,3.31.89,6.65.89,10.01v44.67Z"/>
        <path class="cls-5" d="M1459.46,366.07c-5.88,0-11.13-1-15.77-3-4.64-2-8.61-4.72-11.91-8.17-3.31-3.45-5.81-7.38-7.51-11.78-1.7-4.4-2.55-9.06-2.55-13.96s.85-9.85,2.55-14.3c1.7-4.45,4.18-8.38,7.44-11.78,3.26-3.4,7.23-6.08,11.91-8.04,4.68-1.95,9.92-2.93,15.7-2.93s11.27.98,15.91,2.93c4.64,1.95,8.61,4.63,11.91,8.04,3.31,3.4,5.83,7.33,7.58,11.78,1.74,4.45,2.62,9.22,2.62,14.3s-.87,9.56-2.62,13.96c-1.75,4.4-4.27,8.33-7.58,11.78-3.3,3.45-7.28,6.18-11.91,8.17-4.64,2-9.89,3-15.77,3ZM1440.59,329.16c0,4.05.83,7.7,2.48,10.94,1.65,3.24,3.92,5.76,6.82,7.57,2.89,1.8,6.08,2.7,9.57,2.7s6.66-.92,9.5-2.77c2.84-1.85,5.12-4.37,6.82-7.56,1.7-3.2,2.55-6.87,2.55-11.01s-.85-7.68-2.55-10.88c-1.7-3.2-3.97-5.72-6.82-7.57-2.85-1.85-6.06-2.77-9.64-2.77s-6.66.92-9.5,2.77c-2.85,1.85-5.1,4.37-6.75,7.57-1.65,3.2-2.48,6.87-2.48,11.01Z"/>
        <path class="cls-5" d="M1034.87,479.46v-97.78h43.38c4.41,0,8.52.92,12.33,2.75,3.81,1.84,7.11,4.32,9.92,7.44,2.8,3.12,4.96,6.61,6.47,10.47,1.51,3.86,2.27,7.81,2.27,11.84s-.71,8.08-2.13,11.84c-1.42,3.77-3.47,7.09-6.13,9.98-2.66,2.89-5.78,5.12-9.36,6.68l22.31,36.77h-20.93l-20.11-32.78h-19v32.78h-19.01ZM1053.88,430.02h23.83c2.39,0,4.5-.71,6.33-2.13,1.84-1.42,3.31-3.33,4.41-5.72,1.1-2.39,1.65-5.05,1.65-7.99s-.64-5.74-1.93-8.13c-1.29-2.39-2.89-4.27-4.82-5.65-1.93-1.38-4.04-2.07-6.33-2.07h-23.14v31.68Z"/>
        <path class="cls-5" d="M1155.51,480.84c-5.88,0-11.13-1-15.77-3-4.64-2-8.61-4.72-11.91-8.17-3.31-3.45-5.81-7.38-7.51-11.78-1.7-4.4-2.55-9.06-2.55-13.96s.85-9.85,2.55-14.3c1.7-4.45,4.18-8.38,7.44-11.78,3.26-3.4,7.23-6.08,11.91-8.04,4.68-1.95,9.92-2.93,15.7-2.93s11.27.98,15.91,2.93c4.64,1.95,8.61,4.63,11.91,8.04,3.31,3.4,5.83,7.33,7.58,11.78,1.74,4.45,2.62,9.22,2.62,14.3s-.87,9.56-2.62,13.96c-1.75,4.4-4.27,8.33-7.58,11.78-3.3,3.45-7.28,6.18-11.91,8.17-4.64,2-9.89,3-15.77,3ZM1136.65,443.93c0,4.05.83,7.7,2.48,10.94,1.65,3.24,3.92,5.76,6.82,7.57,2.89,1.8,6.08,2.7,9.57,2.7s6.66-.92,9.5-2.77c2.84-1.85,5.12-4.37,6.82-7.56,1.7-3.2,2.55-6.87,2.55-11.01s-.85-7.68-2.55-10.88c-1.7-3.2-3.97-5.72-6.82-7.57-2.85-1.85-6.06-2.77-9.64-2.77s-6.66.92-9.5,2.77c-2.85,1.85-5.1,4.37-6.75,7.57-1.65,3.2-2.48,6.87-2.48,11.01Z"/>
        <path class="cls-5" d="M1247.79,475.88c-1.65.74-3.56,1.49-5.72,2.27-2.16.78-4.5,1.42-7.02,1.93-2.53.5-5.07.76-7.64.76-3.49,0-6.66-.59-9.5-1.77-2.85-1.18-5.12-3.07-6.82-5.66-1.7-2.59-2.55-5.98-2.55-10.16v-41.21h-9.36v-14.05h9.36v-23.41h18.59v23.41h15.15v14.05h-15.15v34.94c.09,2.45.78,4.24,2.07,5.37,1.29,1.13,2.94,1.7,4.96,1.7,1.84,0,3.67-.34,5.51-1.03,1.84-.69,3.35-1.31,4.54-1.86l3.58,14.74Z"/>
        <path class="cls-5" d="M1252.47,458.39c0-4.63,1.31-8.66,3.92-12.11,2.62-3.45,6.24-6.15,10.88-8.1,4.63-1.95,10.03-2.93,16.18-2.93,3.03,0,6.1.23,9.23.69,3.12.46,5.83,1.19,8.13,2.2v-3.97c0-4.42-1.33-7.84-3.99-10.28-2.66-2.43-6.66-3.65-11.98-3.65-4.04,0-7.85.69-11.43,2.07-3.58,1.38-7.35,3.35-11.29,5.92l-5.78-11.98c4.68-3.21,9.52-5.58,14.53-7.09,5-1.51,10.26-2.27,15.77-2.27,10.28,0,18.29,2.51,24.03,7.54,5.74,5.02,8.61,12.29,8.61,21.79v22.67c0,1.9.34,3.26,1.03,4.07.69.82,1.81,1.31,3.37,1.49v15.01c-1.65.28-3.15.5-4.48.69-1.33.18-2.46.23-3.37.14-3.67,0-6.45-.8-8.33-2.41-1.88-1.61-3.01-3.6-3.38-5.99l-.41-3.72c-3.21,4.04-7.16,7.16-11.84,9.37-4.68,2.2-9.46,3.3-14.32,3.3s-9.07-1-12.88-2.99c-3.81-2-6.79-4.69-8.95-8.1-2.16-3.4-3.24-7.19-3.24-11.36ZM1297.36,461.84c1.01-.89,1.84-1.92,2.48-3.09.64-1.16.96-2.15.96-2.96v-7.12c-2.2-.89-4.59-1.59-7.16-2.08-2.57-.49-5-.74-7.3-.74-4.78,0-8.7,1.01-11.78,3.02-3.08,2.01-4.61,4.68-4.61,7.99,0,1.79.5,3.51,1.51,5.17,1.01,1.66,2.46,2.98,4.34,3.96,1.88.99,4.2,1.48,6.95,1.48s5.46-.54,8.13-1.61c2.66-1.07,4.82-2.42,6.47-4.03Z"/>
        <path class="cls-5" d="M1363.06,480.84c-6.15,0-12.05-1.01-17.7-3.03s-10.45-5-14.39-8.95l6.75-11.98c4.22,3.49,8.4,6.06,12.53,7.71s8.17,2.48,12.12,2.48c3.58,0,6.45-.62,8.61-1.86,2.16-1.24,3.24-3.1,3.24-5.58,0-1.81-.6-3.19-1.79-4.14-1.19-.95-2.92-1.77-5.16-2.45-2.25-.68-4.98-1.47-8.19-2.38-5.33-1.63-9.76-3.29-13.29-4.96-3.54-1.68-6.22-3.76-8.06-6.25-1.84-2.49-2.75-5.69-2.75-9.58,0-4.71,1.22-8.77,3.65-12.17,2.43-3.4,5.83-6.05,10.19-7.95,4.36-1.9,9.48-2.86,15.36-2.86,5.14,0,10.01.8,14.6,2.41,4.59,1.61,8.77,4.2,12.53,7.78l-7.57,11.84c-3.58-2.94-7.02-5.07-10.33-6.4-3.31-1.33-6.66-2-10.05-2-1.93,0-3.74.23-5.44.68-1.7.45-3.08,1.2-4.13,2.24-1.06,1.04-1.58,2.51-1.58,4.4,0,1.63.48,2.94,1.45,3.93.96.99,2.43,1.85,4.41,2.57,1.97.72,4.38,1.54,7.23,2.44,5.78,1.63,10.65,3.28,14.6,4.95,3.95,1.67,6.96,3.77,9.02,6.3,2.07,2.53,3.1,5.96,3.1,10.3,0,7.05-2.62,12.56-7.85,16.54s-12.26,5.96-21.07,5.96Z"/>
      </g>
      <g>
        <g>
          <path class="cls-5" d="M996.02,271.49v194.64c0,18.12-9.05,26.91-26.9,26.91h-195.48c-17.85,0-26.88-9.25-26.88-26.91v-194.64c0-18.88,10.05-28.12,27.92-28.12-.07-.06,193.87,0,193.87,0,18.43,0,27.47,9.71,27.47,28.12Z"/>
          <g>
            <circle class="cls-2" cx="959.59" cy="297.1" r="7.49"/>
            <circle class="cls-2" cx="959.59" cy="349.64" r="11.91"/>
            <line class="cls-2" x1="959.59" y1="337.72" x2="959.59" y2="304.58"/>
            <line class="cls-2" x1="959.59" y1="414.57" x2="959.59" y2="397.64"/>
            <line class="cls-2" x1="959.59" y1="382.36" x2="959.59" y2="361.54"/>
            <line class="cls-2" x1="959.59" y1="446.78" x2="959.59" y2="429.84"/>
          </g>
          <path class="cls-3" d="M891.62,276.72h-76.11c-21.38,0-38.71,17.33-38.71,38.71v100.15c0,10.88,8.55,19.75,19.28,20.3v13.17c0,5.86,4.75,10.62,10.63,10.62s10.63-4.76,10.63-10.62v-13.14h72.48v13.14c0,5.86,4.75,10.62,10.62,10.62s10.63-4.76,10.63-10.62v-13.17c10.73-.56,19.27-9.43,19.27-20.3v-100.15c0-21.38-17.32-38.71-38.71-38.71ZM821.98,286.05h63.16c1.29,0,2.46.52,3.3,1.37s1.37,2,1.37,3.3c0,2.57-2.09,4.67-4.67,4.67h-63.16c-1.28,0-2.44-.52-3.29-1.37s-1.37-2.02-1.37-3.3c0-2.58,2.08-4.67,4.65-4.67ZM806.69,416.9c-5.87,0-10.63-4.76-10.63-10.62s4.76-10.63,10.63-10.63,10.62,4.75,10.62,10.63-4.75,10.62-10.62,10.62ZM900.43,416.9c-5.86,0-10.62-4.76-10.62-10.62s4.76-10.63,10.62-10.63,10.63,4.75,10.63,10.63-4.75,10.62-10.63,10.62ZM917.02,353.13c0,5.35-4.33,9.67-9.68,9.67h-107.54c-5.35,0-9.68-4.32-9.68-9.67v-38.67c0-5.35,4.33-9.68,9.68-9.68h107.54c5.35,0,9.68,4.33,9.68,9.68v38.67Z"/>
        </g>
        <g>
          <path class="cls-5" d="M746.82,388.32c1.86,11.41-5.92,22.21-17.33,24.07s-22.21-5.92-24.07-17.33c-1.86-11.41,5.92-22.21,17.33-24.07,11.41-1.86,22.21,5.92,24.07,17.33Z"/>
          <path class="cls-3" d="M746.23,334.01c-.51,4.24-.9,8.44-2.06,12.56-1.17,4.11-2.67,8.14-4.44,12.05-1.58,3.46-4.71,9.51-6.66,12.81-2.99-.73-7.51-1.34-10.73-.81-1.35.22-3.99-1.67-5.25-1.24-9.66-25.27-10.15-61.93-1.81-90.73.02-.07,5.51-14.19,5.53-14.26,2.91-6.72,5.01-12.66,8.94-17.45,11.59-14.16,35.68-17.81,52.11-17.18,17.82.68,44.89,6.88,61.44,13.78-2.57,1.05-13.36,5.29-16.18,7.19-20.42,13.82-49.82,26.96-80.17,67.91-.08.11-.55,13.95-.71,15.38Z"/>
          <path class="cls-5" d="M760.08,347.65c-.83-1.04-1.78-2.12-2.79-3.25-3.24-3.66-6.69-7.57-8.19-12.14.12-1.49.21-2.99.26-4.49.05-1.88.03-3.76-.04-5.64.64-1.76,1.61-3.61,2.98-5.57,26.37-37.84,67.32-60.22,79.14-66.19,24.8-12.52,29.15-3.42,29.15-3.42,8.08,9.79,18.24,21.6,16.74,28.84-.56,2.69,3.75-.57-6.18,11l-88.14,68.79c-2.54,2.03-4.89,2.94-7.28,2.86-4.25-.16-9.08-3.48-15.64-10.78Z"/>
          <path class="cls-1" d="M758.52,348.97c-5.83-7.33-19.03-17.7-7.89-33.58,25.51-36.61,64.15-58.64,79.73-66.3,26.32-13.41,28.72-4.92,33.37-.06,14.3,17.37,22.17,25.81,7.42,37.76l-84.96,68.71c-10.61,7.6-16.49,5.92-27.67-6.53Z"/>
          <path class="cls-1" d="M843.29,243.53c-32.74-15.26-90.78-23.85-112.02,2.1-21.24,25.95-29.8,88.02-14,126.4"/>
          <path class="cls-4" d="M730.98,370.03c1.12-1.85,2.2-3.72,3.21-5.62.5-.95,1-1.91,1.48-2.87.48-.96.93-1.94,1.38-2.91,1.77-3.91,3.27-7.94,4.44-12.05.15-.51.29-1.03.43-1.55.13-.52.27-1.03.39-1.55.13-.52.24-1.04.36-1.56.11-.52.22-1.04.33-1.57.42-2.09.75-4.21,1-6.33.25-2.12.41-4.26.49-6.4.08-2.14.09-4.28,0-6.43-.02-.54-.04-1.07-.07-1.61-.01-.27-.03-.54-.04-.81-.02-.27-.03-.54-.05-.81-.07-1.07-.16-2.15-.27-3.22-.11-1.07-.23-2.15-.37-3.22-.14-1.07-.29-2.14-.45-3.22-.33-2.14-.72-4.28-1.13-6.43-.41-2.14-.86-4.29-1.32-6.44-.46-2.15-.93-4.32-1.32-6.51-.19-1.1-.38-2.2-.53-3.32-.08-.56-.14-1.12-.21-1.68-.06-.56-.11-1.13-.15-1.7-.08-1.14-.11-2.28-.07-3.44.04-1.15.15-2.32.39-3.46.12-.57.27-1.14.45-1.7.19-.56.41-1.1.68-1.62.53-1.04,1.24-1.98,2.09-2.72.02-.01.04-.01.05,0,.01.01.01.03,0,.04-.26.5-.49,1-.67,1.5l-.13.38-.11.39c-.04.13-.07.26-.1.39-.03.13-.06.26-.09.39-.11.52-.18,1.04-.22,1.56-.05.52-.05,1.05-.05,1.57.03,2.1.39,4.19.82,6.29.44,2.1.98,4.2,1.52,6.31l.82,3.18c.27,1.06.54,2.13.81,3.21.54,2.14,1.07,4.3,1.56,6.47.49,2.17.95,4.36,1.35,6.57.2,1.1.39,2.21.56,3.32.17,1.11.32,2.23.46,3.35.14,1.12.25,2.24.35,3.37.03.28.05.56.07.84.02.28.04.56.06.85.04.56.07,1.13.1,1.69.11,2.26.14,4.53.08,6.8-.06,2.27-.23,4.54-.47,6.8-.26,2.26-.61,4.51-1.06,6.74-.22,1.12-.48,2.22-.75,3.33-.13.55-.28,1.1-.43,1.65-.15.55-.3,1.1-.46,1.64-1.29,4.36-2.95,8.6-4.93,12.67-.5,1.02-1.01,2.02-1.55,3.02-.26.5-.54.99-.81,1.49-.14.25-.28.49-.42.74-.14.24-.28.49-.42.73-1.14,1.94-2.35,3.85-3.64,5.69-.65.93-1.92,1.16-2.85.52-.89-.62-1.14-1.82-.59-2.74h0Z"/>
          <circle class="cls-1" cx="726.13" cy="391.69" r="21.57"/>
        </g>
      </g>
    </g>
  </g>
</svg>