<?xml version="1.0" encoding="utf-8"?>
<!-- Generator: Adobe Illustrator 24.0.1, SVG Export Plug-In . SVG Version: 6.00 Build 0)  -->
<svg version="1.1" xmlns="http://www.w3.org/2000/svg" xmlns:xlink="http://www.w3.org/1999/xlink" x="0px" y="0px"
	 viewBox="0 0 1080 1080" enable-background="new 0 0 1080 1080" xml:space="preserve">
<g id="Fundo">
	<rect fill="#2C0EEB" width="1080" height="1080"/>
</g>
<g id="Elementos">
	<g>
		<g>
			<g>
				<path fill="#ECDCC4" d="M398.3,418v238.1c0,22.2-11.1,32.9-32.9,32.9H126.3c-21.8,0-32.9-11.3-32.9-32.9V418
					c0-23.1,12.3-34.4,34.2-34.4c-0.1-0.1,237.2,0,237.2,0C387.2,383.6,398.3,395.5,398.3,418z"/>
			</g>
			<g>
				<path fill="#2C0EEB" d="M353.7,462.5c-7.3,0-13.2-5.9-13.2-13.2s5.9-13.2,13.2-13.2s13.2,5.9,13.2,13.2S361,462.5,353.7,462.5z
					 M353.7,444.2c-2.8,0-5.2,2.3-5.2,5.2c0,2.8,2.3,5.2,5.2,5.2c2.8,0,5.2-2.3,5.2-5.2C358.9,446.5,356.6,444.2,353.7,444.2z"/>
				<path fill="#2C0EEB" d="M353.7,532.2c-10.2,0-18.6-8.3-18.6-18.6s8.3-18.6,18.6-18.6s18.6,8.3,18.6,18.6S364,532.2,353.7,532.2z
					 M353.7,503c-5.8,0-10.6,4.7-10.6,10.6s4.7,10.6,10.6,10.6s10.6-4.7,10.6-10.6S359.6,503,353.7,503z"/>
				<path fill="#2C0EEB" d="M353.7,503c-2.2,0-4-1.8-4-4v-40.5c0-2.2,1.8-4,4-4s4,1.8,4,4V499C357.7,501.2,355.9,503,353.7,503z"/>
				<path fill="#2C0EEB" d="M353.7,597c-2.2,0-4-1.8-4-4v-20.7c0-2.2,1.8-4,4-4s4,1.8,4,4V593C357.7,595.2,355.9,597,353.7,597z"/>
				<path fill="#2C0EEB" d="M353.7,557.6c-2.2,0-4-1.8-4-4v-25.5c0-2.2,1.8-4,4-4s4,1.8,4,4v25.5
					C357.7,555.8,355.9,557.6,353.7,557.6z"/>
				<path fill="#2C0EEB" d="M353.7,636.4c-2.2,0-4-1.8-4-4v-20.7c0-2.2,1.8-4,4-4s4,1.8,4,4v20.7
					C357.7,634.6,355.9,636.4,353.7,636.4z"/>
			</g>
			<path fill="#2C0EEB" d="M270.6,424.4h-93.1c-26.2,0-47.4,21.2-47.4,47.3v122.5c0,13.3,10.5,24.2,23.6,24.8v16.1
				c0,7.2,5.8,13,13,13c7.2,0,13-5.8,13-13v-16.1h88.7v16.1c0,7.2,5.8,13,13,13c7.2,0,13-5.8,13-13v-16.1
				c13.1-0.7,23.6-11.5,23.6-24.8V471.8C317.9,445.6,296.7,424.4,270.6,424.4z M185.4,435.8h77.3c1.6,0,3,0.6,4,1.7
				c1,1,1.7,2.4,1.7,4c0,3.2-2.6,5.7-5.7,5.7h-77.3c-1.6,0-3-0.6-4-1.7c-1-1-1.7-2.5-1.7-4C179.7,438.4,182.2,435.8,185.4,435.8z
				 M166.7,595.9c-7.2,0-13-5.8-13-13c0-7.2,5.8-13,13-13s13,5.8,13,13C179.7,590.1,173.9,595.9,166.7,595.9z M281.4,595.9
				c-7.2,0-13-5.8-13-13c0-7.2,5.8-13,13-13c7.2,0,13,5.8,13,13C294.4,590.1,288.6,595.9,281.4,595.9z M301.7,517.9
				c0,6.5-5.3,11.8-11.8,11.8H158.3c-6.5,0-11.8-5.3-11.8-11.8v-47.3c0-6.5,5.3-11.8,11.8-11.8h131.6c6.5,0,11.8,5.3,11.8,11.8
				V517.9z"/>
		</g>
		<g>
			<path fill="#ECDCC4" d="M443.5,525.6V411.5h22.2v114.1H443.5z"/>
			<path fill="#ECDCC4" d="M565.7,525.6h-21.5v-47.3c0-6.8-1.2-11.7-3.5-14.8c-2.4-3.1-5.6-4.7-9.8-4.7c-2.1,0-4.3,0.4-6.6,1.3
				c-2.3,0.9-4.4,2.1-6.4,3.6c-2,1.6-3.8,3.4-5.4,5.5c-1.6,2.1-2.8,4.5-3.5,7.1v49.2h-21.5v-84.2h19.5V457
				c3.1-5.4,7.6-9.5,13.5-12.5c5.9-3,12.5-4.5,19.9-4.5c5.3,0,9.5,1,12.9,2.9c3.3,1.9,5.9,4.4,7.7,7.6c1.8,3.1,3.1,6.6,3.8,10.6
				c0.7,4,1,8,1,12.1V525.6z"/>
			<path fill="#ECDCC4" d="M634.2,521.3c-2.9,1.3-6.4,2.6-10.6,3.9s-8.6,1.9-13.2,1.9c-3,0-5.8-0.4-8.4-1.1c-2.6-0.7-4.9-2-6.9-3.6
				c-2-1.7-3.6-3.8-4.7-6.4c-1.2-2.6-1.8-5.8-1.8-9.6v-48.4h-11.1v-16.6h11.1v-27.3h21.5v27.3h17.7v16.6h-17.7v41.2
				c0,3,0.8,5.1,2.3,6.4c1.6,1.2,3.5,1.8,5.7,1.8c2.3,0,4.4-0.4,6.6-1.1c2.1-0.7,3.9-1.4,5.1-1.9L634.2,521.3z"/>
			<path fill="#ECDCC4" d="M682.4,527.2c-6.8,0-12.9-1.2-18.3-3.5c-5.5-2.3-10.1-5.4-14-9.4c-3.9-4-6.8-8.6-8.9-13.8
				c-2.1-5.3-3.1-10.8-3.1-16.6c0-6,1-11.7,3.1-17c2-5.3,5-10,8.8-14c3.9-4,8.5-7.2,14.1-9.6c5.5-2.4,11.7-3.5,18.6-3.5
				c6.9,0,13,1.2,18.4,3.5c5.4,2.4,10,5.5,13.8,9.5c3.8,4,6.7,8.6,8.7,13.8c2,5.3,3,10.7,3,16.4c0,1.4,0,2.7-0.1,4
				c-0.1,1.3-0.2,2.4-0.4,3.2h-65.1c0.3,3.3,1.1,6.3,2.4,8.8s2.9,4.8,5,6.6c2,1.8,4.3,3.2,6.9,4.2c2.6,1,5.3,1.4,8,1.4
				c4.3,0,8.3-1,12.1-3.1c3.8-2.1,6.4-4.8,7.8-8.3l18.5,5.1c-3.1,6.4-8.1,11.7-14.9,15.8C700,525.2,691.9,527.2,682.4,527.2z
				 M704.3,476.4c-0.5-6.3-2.9-11.4-7-15.2c-4.1-3.8-9.1-5.7-15-5.7c-2.9,0-5.6,0.5-8.1,1.5c-2.5,1-4.7,2.4-6.7,4.3
				c-1.9,1.8-3.5,4-4.7,6.6c-1.2,2.6-2,5.4-2.2,8.5H704.3z"/>
			<path fill="#ECDCC4" d="M789.8,460c-6.5,0.1-12.4,1.4-17.5,3.8c-5.1,2.4-8.8,6-11.1,10.9v51h-21.5v-84.2h19.8v18
				c1.5-2.9,3.3-5.5,5.3-7.8c2-2.3,4.2-4.3,6.6-6c2.4-1.7,4.7-3,7.2-3.9c2.4-0.9,4.7-1.4,7-1.4c1.2,0,2.1,0,2.7,0
				c0.6,0,1.2,0.1,1.7,0.2V460z"/>
			<path fill="#ECDCC4" d="M880.2,525.6h-21.5v-47.3c0-6.8-1.2-11.7-3.5-14.8c-2.4-3.1-5.6-4.7-9.8-4.7c-2.1,0-4.3,0.4-6.6,1.3
				c-2.3,0.9-4.4,2.1-6.4,3.6c-2,1.6-3.8,3.4-5.4,5.5c-1.6,2.1-2.8,4.5-3.5,7.1v49.2h-21.5v-84.2h19.5V457
				c3.1-5.4,7.6-9.5,13.5-12.5c5.9-3,12.5-4.5,19.9-4.5c5.3,0,9.5,1,12.9,2.9c3.3,1.9,5.9,4.4,7.7,7.6c1.8,3.1,3.1,6.6,3.8,10.6
				c0.7,4,1,8,1,12.1V525.6z"/>
			<path fill="#ECDCC4" d="M937.9,527.2c-6.9,0-13-1.2-18.5-3.5c-5.5-2.4-10.1-5.5-13.9-9.6c-3.8-4-6.7-8.7-8.8-13.9
				c-2-5.3-3.1-10.8-3.1-16.6c0-5.9,1-11.5,3.1-16.7c2-5.3,5-9.9,8.8-13.9c3.8-4,8.4-7.2,13.9-9.6c5.5-2.4,11.6-3.5,18.5-3.5
				c6.9,0,13,1.2,18.4,3.5c5.4,2.4,10,5.5,13.8,9.6c3.8,4,6.7,8.7,8.8,13.9c2,5.3,3.1,10.8,3.1,16.7c0,5.8-1,11.3-3.1,16.6
				c-2,5.3-4.9,9.9-8.7,13.9c-3.8,4-8.4,7.2-13.8,9.6C950.9,526.1,944.8,527.2,937.9,527.2z M915.9,483.7c0,3.8,0.6,7.2,1.7,10.2
				c1.1,3.1,2.7,5.7,4.7,8c2,2.3,4.3,4,7,5.2c2.7,1.2,5.6,1.8,8.7,1.8c3.1,0,6-0.6,8.7-1.8c2.7-1.2,5-3,7-5.2c2-2.3,3.5-4.9,4.7-8
				c1.1-3.1,1.7-6.5,1.7-10.3c0-3.6-0.6-7-1.7-10.1c-1.1-3.1-2.7-5.8-4.7-8c-2-2.3-4.3-4-7-5.2c-2.7-1.2-5.6-1.8-8.7-1.8
				c-3.1,0-6,0.6-8.7,1.9c-2.7,1.3-5,3.1-7,5.3c-2,2.3-3.5,4.9-4.7,8C916.4,476.7,915.9,480,915.9,483.7z"/>
			<path fill="#ECDCC4" d="M443.5,659.6V545.5H494c5.3,0,10.1,1.1,14.5,3.3c4.4,2.2,8.3,5.1,11.5,8.7c3.2,3.6,5.7,7.7,7.6,12.2
				c1.8,4.6,2.7,9.1,2.7,13.7c0,7.4-1.8,14.1-5.5,20.2c-3.7,6.1-8.7,10.4-15,13.1l26,42.9h-24.9l-23.3-38.3h-21.9v38.3H443.5z
				 M465.7,601.9h27.8c2,0,3.9-0.5,5.7-1.4c1.8-1,3.3-2.3,4.6-3.9c1.3-1.7,2.3-3.6,3.1-5.9c0.7-2.3,1.1-4.7,1.1-7.2
				c0-2.7-0.4-5.1-1.3-7.4c-0.9-2.3-2-4.2-3.5-5.9c-1.4-1.7-3.1-2.9-5-3.9c-1.9-0.9-3.8-1.4-5.7-1.4h-26.8V601.9z"/>
			<path fill="#ECDCC4" d="M584.9,661.2c-6.9,0-13-1.2-18.5-3.5c-5.5-2.4-10.1-5.5-13.9-9.6c-3.8-4-6.7-8.7-8.8-13.9
				c-2-5.3-3.1-10.8-3.1-16.6c0-5.9,1-11.5,3.1-16.7c2-5.3,5-9.9,8.8-13.9c3.8-4,8.4-7.2,13.9-9.6c5.5-2.4,11.6-3.5,18.5-3.5
				c6.9,0,13,1.2,18.4,3.5c5.4,2.4,10,5.5,13.8,9.6c3.8,4,6.7,8.7,8.8,13.9c2,5.3,3.1,10.8,3.1,16.7c0,5.8-1,11.3-3.1,16.6
				c-2,5.3-4.9,9.9-8.7,13.9s-8.4,7.2-13.8,9.6C597.9,660,591.7,661.2,584.9,661.2z M562.8,617.6c0,3.8,0.6,7.2,1.7,10.2
				s2.7,5.7,4.7,8c2,2.3,4.3,4,7,5.2c2.7,1.2,5.6,1.8,8.7,1.8c3.1,0,6-0.6,8.7-1.8c2.7-1.2,5-3,7-5.2c2-2.3,3.5-4.9,4.7-8
				c1.1-3.1,1.7-6.5,1.7-10.3c0-3.6-0.6-7-1.7-10.1c-1.1-3.1-2.7-5.8-4.7-8c-2-2.3-4.3-4-7-5.2c-2.7-1.2-5.6-1.8-8.7-1.8
				c-3.1,0-6,0.6-8.7,1.9c-2.7,1.3-5,3.1-7,5.3c-2,2.3-3.5,4.9-4.7,8C563.4,610.6,562.8,614,562.8,617.6z"/>
			<path fill="#ECDCC4" d="M692.7,655.3c-2.9,1.3-6.4,2.6-10.6,3.9s-8.6,1.9-13.2,1.9c-3,0-5.8-0.4-8.4-1.1c-2.6-0.7-4.9-2-6.9-3.6
				c-2-1.7-3.6-3.8-4.7-6.4c-1.2-2.6-1.8-5.8-1.8-9.6v-48.4H636v-16.6h11.1V548h21.5v27.3h17.7v16.6h-17.7v41.2c0,3,0.8,5.1,2.3,6.4
				c1.6,1.2,3.5,1.8,5.7,1.8c2.3,0,4.4-0.4,6.6-1.1c2.1-0.7,3.9-1.4,5.1-1.9L692.7,655.3z"/>
			<path fill="#ECDCC4" d="M727,661.2c-4.1,0-7.9-0.7-11.4-2s-6.6-3.2-9.2-5.6c-2.6-2.4-4.6-5.2-6-8.4c-1.4-3.2-2.2-6.8-2.2-10.6
				c0-4,0.9-7.6,2.7-11c1.8-3.4,4.2-6.2,7.4-8.6c3.2-2.4,6.9-4.2,11.3-5.5c4.4-1.3,9.2-2,14.5-2c3.8,0,7.4,0.3,11,1
				c3.6,0.6,6.8,1.6,9.6,2.7v-4.8c0-5.6-1.6-9.9-4.7-12.9c-3.2-3-7.9-4.5-14.1-4.5c-4.5,0-8.9,0.8-13.2,2.4c-4.3,1.6-8.7,4-13.2,7.1
				l-6.6-13.7c10.8-7.2,22.5-10.8,35-10.8c12.1,0,21.5,3,28.2,8.9c6.7,5.9,10,14.5,10,25.8v26.2c0,2.3,0.4,3.9,1.2,4.8
				c0.8,1,2.1,1.5,3.9,1.6v18.3c-3.6,0.7-6.8,1.1-9.5,1.1c-4.1,0-7.2-0.9-9.4-2.7c-2.2-1.8-3.6-4.2-4.1-7.2l-0.5-4.7
				c-3.8,4.9-8.3,8.7-13.7,11.3C738.8,659.9,733.1,661.2,727,661.2z M733.1,645.5c3.6,0,7.1-0.6,10.4-1.9c3.3-1.3,5.8-3,7.6-5.1
				c2.4-1.8,3.5-3.9,3.5-6.1v-9.6c-2.6-1-5.4-1.7-8.4-2.3c-3-0.6-5.9-0.9-8.7-0.9c-5.6,0-10.1,1.3-13.7,3.8
				c-3.5,2.5-5.3,5.7-5.3,9.6c0,3.6,1.4,6.7,4.2,9.1C725.6,644.3,729,645.5,733.1,645.5z"/>
			<path fill="#ECDCC4" d="M828.1,661.2c-7.1,0-14-1.1-20.7-3.4c-6.8-2.3-12.5-5.5-17.4-9.6l8-13.5c5.1,3.6,10.2,6.4,15,8.3
				c4.9,1.9,9.7,2.8,14.6,2.8c4.3,0,7.7-0.8,10.1-2.4c2.5-1.6,3.7-3.9,3.7-6.9c0-3-1.4-5.2-4.3-6.6c-2.9-1.4-7.6-3-14.1-4.8
				c-5.5-1.5-10.1-2.9-14-4.3c-3.9-1.4-7-3-9.3-4.7c-2.4-1.8-4.1-3.8-5.1-6.1c-1.1-2.3-1.6-5.1-1.6-8.3c0-4.3,0.8-8.1,2.5-11.6
				c1.7-3.4,4-6.4,7-8.8c3-2.4,6.5-4.3,10.5-5.5s8.4-1.9,13.1-1.9c6.3,0,12.2,0.9,17.8,2.7c5.5,1.8,10.6,4.8,15.2,8.8l-8.7,13
				c-4.3-3.2-8.4-5.6-12.5-7.1c-4-1.5-8-2.3-12-2.3c-3.6,0-6.7,0.8-9.2,2.3c-2.5,1.5-3.7,3.9-3.7,7.2c0,1.5,0.3,2.7,0.9,3.7
				c0.6,1,1.5,1.8,2.8,2.6c1.3,0.8,3,1.5,5.1,2.2c2.1,0.7,4.7,1.4,7.8,2.2c5.8,1.5,10.7,3,14.9,4.5c4.1,1.5,7.5,3.2,10.1,5.1
				c2.6,1.9,4.6,4.2,5.8,6.7c1.2,2.5,1.8,5.5,1.8,9.1c0,8.3-3.1,14.8-9.2,19.5C846.9,658.8,838.6,661.2,828.1,661.2z"/>
		</g>
	</g>
</g>
</svg>
