<?xml version="1.0" encoding="UTF-8"?>
<svg xmlns="http://www.w3.org/2000/svg" viewBox="0 0 1080 1080">
  <defs>
    <style>
      .cls-1 {
        fill: #f10631;
      }

      .cls-2 {
        fill: #ecdcc4;
      }

      .cls-3 {
        fill: #c31a1a;
      }

      .cls-4 {
        fill: none;
        stroke: #290e0e;
        stroke-linecap: round;
        stroke-linejoin: round;
        stroke-width: 10.8px;
      }

      .cls-5 {
        fill: #efebd6;
      }

      .cls-6 {
        fill: #290e0e;
      }
    </style>
  </defs>
  <g id="Fundo">
    <rect class="cls-1" width="1080" height="1080"/>
  </g>
  <g id="Elementos">
    <g>
      <g>
        <path class="cls-2" d="m906.46,295.62v548.54c0,51.07-25.5,75.84-75.82,75.84H279.75c-50.31,0-75.75-26.08-75.75-75.84V295.62c0-53.19,28.31-79.25,78.67-79.25-.21-.16,546.36,0,546.36,0,51.93,0,77.43,27.37,77.43,79.25Z"/>
        <g>
          <path class="cls-1" d="m803.79,398.1c-16.71,0-30.31-13.6-30.31-30.31s13.6-30.31,30.31-30.31,30.31,13.6,30.31,30.31-13.6,30.31-30.31,30.31Zm0-42.2c-6.55,0-11.88,5.33-11.88,11.88s5.33,11.88,11.88,11.88,11.88-5.33,11.88-11.88-5.33-11.88-11.88-11.88Z"/>
          <path class="cls-1" d="m803.79,558.63c-23.59,0-42.78-19.19-42.78-42.78s19.19-42.78,42.78-42.78,42.78,19.19,42.78,42.78-19.19,42.78-42.78,42.78Zm0-67.13c-13.43,0-24.35,10.92-24.35,24.35s10.92,24.35,24.35,24.35,24.35-10.92,24.35-24.35-10.92-24.35-24.35-24.35Z"/>
          <path class="cls-1" d="m803.79,491.47c-5.09,0-9.21-4.13-9.21-9.21v-93.4c0-5.09,4.13-9.21,9.21-9.21s9.21,4.13,9.21,9.21v93.4c0,5.09-4.13,9.21-9.21,9.21Z"/>
          <path class="cls-1" d="m803.79,708.05c-5.09,0-9.21-4.13-9.21-9.21v-47.72c0-5.09,4.13-9.21,9.21-9.21s9.21,4.13,9.21,9.21v47.72c0,5.09-4.13,9.21-9.21,9.21Z"/>
          <path class="cls-1" d="m803.79,617.29c-5.09,0-9.21-4.13-9.21-9.21v-58.69c0-5.09,4.13-9.21,9.21-9.21s9.21,4.13,9.21,9.21v58.69c0,5.09-4.13,9.21-9.21,9.21Z"/>
          <path class="cls-1" d="m803.79,798.82c-5.09,0-9.21-4.13-9.21-9.21v-47.72c0-5.09,4.13-9.21,9.21-9.21s9.21,4.13,9.21,9.21v47.72c0,5.09-4.13,9.21-9.21,9.21Z"/>
        </g>
        <path class="cls-1" d="m612.24,310.36h-214.5c-60.24,0-109.08,48.84-109.08,109.08v282.25c0,30.66,24.1,55.66,54.32,57.2v37.11c0,16.52,13.38,29.93,29.95,29.93s29.95-13.41,29.95-29.93v-37.04h204.27v37.04c0,16.52,13.38,29.93,29.93,29.93s29.95-13.41,29.95-29.93v-37.11c30.25-1.57,54.3-26.56,54.3-57.2v-282.25c0-60.24-48.82-109.08-109.08-109.08Zm-196.26,26.29h178.01c3.64,0,6.93,1.47,9.31,3.85,2.37,2.37,3.85,5.64,3.85,9.31,0,7.26-5.9,13.15-13.15,13.15h-178.01c-3.62,0-6.89-1.47-9.26-3.85s-3.85-5.69-3.85-9.31c0-7.28,5.85-13.15,13.11-13.15Zm-43.08,368.76c-16.54,0-29.95-13.41-29.95-29.93s13.41-29.95,29.95-29.95,29.93,13.38,29.93,29.95-13.38,29.93-29.93,29.93Zm264.17,0c-16.52,0-29.93-13.41-29.93-29.93s13.41-29.95,29.93-29.95,29.95,13.38,29.95,29.95-13.38,29.93-29.95,29.93Zm46.74-179.72c0,15.07-12.21,27.25-27.28,27.25h-303.08c-15.07,0-27.28-12.19-27.28-27.25v-108.97c0-15.07,12.21-27.28,27.28-27.28h303.08c15.07,0,27.28,12.21,27.28,27.28v108.97Z"/>
      </g>
      <g>
        <circle class="cls-5" cx="150.36" cy="576.69" r="51.41"/>
        <path class="cls-3" d="m209.82,429.17c-2.27,11.03-5.37,21.87-9.32,32.42-3.97,10.54-8.78,20.77-14.28,30.67-4.9,8.74-10.34,17.21-16.17,25.44-7.69-2.58-16-3.69-24.58-3.01-3.6.28-7.09.89-10.48,1.75-19.85-68.42-10.82-164.58,17.31-238.36.08-.19,16.39-36.13,16.44-36.33,9.11-17,19.42-31.84,30.77-43.58,33.49-34.64,91.76-35.69,134.75-30.47,46.63,5.66,99.62,22.22,141.54,43.94-6.96,2.21-14.54,4.98-22.83,8.38-32.99,12.96-146.79,62.69-225.88,158.27-.22.27-16.54,47.16-17.28,50.88Z"/>
        <path class="cls-5" d="m249.06,468.46c-1.95-2.91-4.21-5.94-6.6-9.15-7.7-10.31-15.91-21.33-18.87-33.64.65-3.89,1.21-7.8,1.66-11.72.54-4.93.9-9.87,1.12-14.81,2.06-4.48,5.02-9.13,9.04-13.97,77.45-93.6,189.81-143.42,222.13-156.52,67.82-27.48,77.25-2.64,77.25-2.64,19.07,27.46,43.19,60.66,37.66,79.33-2.06,6.94-6.67,13.67-15.67,18.66-5.65,6-234,157.93-249.27,170.25-7.11,4.77-13.48,6.66-19.72,5.91-11.13-1.33-23.07-11.11-38.72-31.7Z"/>
        <path class="cls-4" d="m244.66,471.6c-13.7-20.5-46.1-50.59-13.42-89.86,74.93-90.55,181.13-139.97,223.7-156.7,72-29.47,76.45-6.68,87.61,7.11,33.75,48.7,52.57,72.57,11.26,100.73q-114.44,67.26-237.95,161.88c-25.21,20.52-44.56,11.95-71.2-23.15Z"/>
        <path class="cls-4" d="m490.11,213.26c-82.61-47.19-233.1-82.34-294.49-18.85-61.38,63.49-97.37,224.56-64.25,328.73"/>
        <path class="cls-6" d="m167.79,520.87c3.34-4.62,6.57-9.3,9.66-14.06,1.53-2.39,3.04-4.79,4.5-7.22,1.47-2.42,2.87-4.88,4.26-7.35,5.5-9.89,10.32-20.12,14.27-30.67.5-1.31.98-2.64,1.45-3.96.46-1.33.93-2.66,1.36-3.99.45-1.33.86-2.68,1.29-4.02.4-1.35.81-2.69,1.2-4.05,1.57-5.4,2.88-10.88,4-16.39,1.11-5.52,2.01-11.08,2.67-16.68.68-5.6,1.16-11.23,1.41-16.88.06-1.41.12-2.83.16-4.24.03-.71.04-1.41.06-2.12.02-.71.03-1.42.04-2.12.04-2.83.04-5.67-.01-8.51-.05-2.84-.14-5.68-.28-8.53-.13-2.84-.29-5.69-.49-8.54-.4-5.7-.95-11.4-1.58-17.12-.62-5.72-1.33-11.44-2.07-17.19-.74-5.75-1.5-11.53-2.05-17.38-.27-2.93-.51-5.87-.66-8.83-.08-1.48-.13-2.97-.17-4.46-.02-1.49-.05-2.99-.02-4.49.04-3,.2-6.02.56-9.04.37-3.02.91-6.05,1.79-9,.43-1.48.96-2.93,1.56-4.36.61-1.42,1.32-2.8,2.13-4.1,1.62-2.61,3.67-4.93,6.07-6.68.05-.03.11-.02.14.02.03.03.02.08,0,.11-.79,1.24-1.49,2.51-2.08,3.81l-.42.98-.38.99c-.12.33-.23.66-.35.99-.11.33-.21.67-.31,1-.39,1.34-.69,2.69-.91,4.05-.23,1.36-.37,2.74-.47,4.11-.37,5.51.11,11.09.79,16.69.7,5.6,1.65,11.23,2.62,16.9l1.45,8.53c.48,2.85.94,5.72,1.42,8.59.94,5.74,1.86,11.52,2.7,17.33.82,5.81,1.54,11.66,2.12,17.54.29,2.94.54,5.89.75,8.84.2,2.95.36,5.92.47,8.88.11,2.97.18,5.94.2,8.91,0,.74,0,1.49,0,2.23,0,.74,0,1.49-.02,2.23-.02,1.49-.06,2.98-.1,4.47-.19,5.96-.61,11.92-1.26,17.86-.66,5.94-1.58,11.86-2.72,17.74-1.17,5.87-2.58,11.7-4.25,17.46-.83,2.88-1.73,5.74-2.7,8.57-.47,1.42-.98,2.83-1.48,4.24-.52,1.4-1.03,2.81-1.58,4.2-4.34,11.16-9.61,21.94-15.71,32.18-1.53,2.56-3.09,5.1-4.72,7.59-.8,1.25-1.63,2.49-2.46,3.72-.41.62-.84,1.23-1.26,1.84-.42.61-.84,1.22-1.27,1.83-3.42,4.86-7.02,9.58-10.78,14.16-1.9,2.3-5.3,2.64-7.6.74-2.21-1.82-2.61-5.03-.95-7.33l.02-.03Z"/>
        <path class="cls-6" d="m210.97,316.68c4.59-4.09,8.99-8.37,13.12-12.89,4.14-4.52,8.05-9.26,11.71-14.22,3.68-4.94,7.08-10.1,10.31-15.39.83-1.31,1.59-2.66,2.38-4,.39-.67.79-1.33,1.18-2.01l1.14-2.04,1.14-2.04,1.1-2.06,1.1-2.06c.37-.69.72-1.39,1.07-2.08,2.85-5.56,5.55-11.21,8.09-16.97,2.56-5.75,5.03-11.56,7.49-17.4,2.45-5.85,4.9-11.74,7.42-17.64,1.27-2.94,2.54-5.9,3.88-8.83,1.34-2.94,2.71-5.87,4.22-8.74.03-.06.1-.08.16-.05.04.02.07.07.06.12-.39,3.23-.88,6.41-1.39,9.6-.51,3.19-1.09,6.35-1.69,9.52-1.24,6.33-2.67,12.63-4.37,18.87-1.69,6.25-3.63,12.44-5.86,18.56-2.24,6.11-4.69,12.16-7.43,18.11-.34.74-.67,1.49-1.03,2.23l-1.07,2.21-1.08,2.21-1.13,2.19-1.13,2.19c-.38.73-.78,1.45-1.18,2.16-.8,1.44-1.59,2.88-2.44,4.29l-1.26,2.13-.63,1.06-.66,1.05-1.33,2.09c-.45.69-.88,1.4-1.35,2.08-.93,1.37-1.85,2.74-2.8,4.1l-2.94,4.01c-4.02,5.27-8.38,10.32-13.12,15-4.74,4.68-9.83,9.02-15.3,12.82-2.35,1.64-5.59,1.05-7.23-1.3-1.52-2.18-1.13-5.12.81-6.84l.05-.04Z"/>
        <path class="cls-6" d="m265.64,236.32c-.14-.47-.25-.94-.34-1.41-.02-.12-.06-.23-.09-.34l-.09-.34c-.06-.23-.11-.45-.16-.68l-.03-.17-.05-.16c-.03-.11-.07-.22-.1-.33-.06-.22-.12-.44-.18-.66-.04-.23-.14-.43-.2-.65l-.2-.65-.05-.16c-.02-.05-.04-.1-.06-.16l-.12-.32c-.08-.21-.16-.43-.23-.64-.03-.11-.08-.21-.13-.31s-.09-.21-.14-.31l-.27-.63-.62-1.24c-.25-.4-.48-.8-.74-1.21-1.06-1.58-2.41-3.06-4-4.38-1.58-1.34-3.39-2.52-5.34-3.53-1.95-1.01-4.04-1.89-6.21-2.6-1.09-.36-2.19-.67-3.32-.96l-.85-.21c-.28-.07-.56-.14-.85-.2-.57-.11-1.14-.25-1.72-.35-4.61-.85-9.39-1.17-14.24-.91h0c-.15,0-.28-.11-.29-.26,0-.13.07-.24.18-.28,4.64-1.6,9.58-2.5,14.62-2.73.63-.04,1.26-.03,1.89-.05.32-.01.63,0,.95,0h.95c1.27.04,2.55.13,3.83.26,2.56.27,5.14.71,7.69,1.45,2.55.73,5.09,1.72,7.54,3.05,2.44,1.35,4.78,3.05,6.86,5.15.51.53,1,1.09,1.5,1.64.46.59.93,1.17,1.37,1.78l.61.95.3.48c.1.16.2.32.28.49.18.33.35.67.52,1.01l.25.51.12.26.11.26c1.19,2.78,1.84,5.78,1.77,8.69-.07,2.99-2.54,5.36-5.53,5.29-2.4-.05-4.41-1.67-5.06-3.85l-.17-.59Z"/>
        <circle class="cls-4" cx="150.36" cy="576.69" r="56.81"/>
        <path class="cls-6" d="m168.47,242.56c-.88,2.18-1.66,4.39-2.34,6.64-.3,1.15-.64,2.27-.89,3.44-.29,1.15-.5,2.33-.73,3.5-.06.29-.1.59-.15.89l-.14.89c-.1.59-.2,1.18-.26,1.79l-.23,1.8c-.08.6-.11,1.21-.17,1.82-.24,2.42-.34,4.88-.41,7.35-.08,4.95.13,9.96.62,15,.06.63.12,1.26.19,1.89l.23,1.89c.08.63.14,1.26.23,1.89l.27,1.89c.09.63.18,1.26.28,1.89l.32,1.89.32,1.89.36,1.89c.95,5.04,2.1,10.08,3.38,15.1,1.29,5.02,2.73,10.01,4.26,15,1.52,4.99,3.18,9.94,4.88,14.9,1.71,4.95,3.52,9.88,5.32,14.83h0c.07.19-.03.39-.21.46-.16.06-.34,0-.43-.16l-1.98-3.42c-.33-.57-.66-1.14-.98-1.72l-.95-1.73-1.9-3.47-1.84-3.51c-.62-1.17-1.21-2.35-1.8-3.53-.59-1.18-1.2-2.36-1.77-3.55l-1.72-3.58-1.66-3.61c-2.18-4.83-4.24-9.73-6.13-14.72-1.88-4.99-3.6-10.06-5.1-15.22l-.57-1.94-.52-1.95-.52-1.95c-.17-.65-.32-1.31-.48-1.97l-.47-1.97c-.15-.66-.29-1.32-.43-1.99l-.42-1.99c-.13-.67-.25-1.34-.37-2.01-.98-5.35-1.67-10.81-1.85-16.36-.01-.69-.01-1.39-.02-2.09,0-.7-.02-1.39,0-2.09.05-1.4.08-2.79.2-4.2l.08-1.05c.03-.35.05-.7.09-1.05l.25-2.11c.08-.7.2-1.4.31-2.1l.17-1.05c.06-.35.11-.7.19-1.05l.45-2.1.11-.52c.04-.17.09-.35.14-.52l.28-1.04c.34-1.39.82-2.76,1.27-4.13.98-2.72,2.17-5.38,3.61-7.92,1.47-2.58,4.75-3.49,7.34-2.02,2.38,1.35,3.33,4.23,2.33,6.7l-.06.15Z"/>
      </g>
    </g>
  </g>
</svg>