<?xml version="1.0" encoding="utf-8"?>
<!-- Generator: Adobe Illustrator 24.0.1, SVG Export Plug-In . SVG Version: 6.00 Build 0)  -->
<svg version="1.1" xmlns="http://www.w3.org/2000/svg" xmlns:xlink="http://www.w3.org/1999/xlink" x="0px" y="0px"
	 viewBox="0 0 1080 1080" enable-background="new 0 0 1080 1080" xml:space="preserve">
<g id="Fundo">
	<rect fill="#2C0EEB" width="1080" height="1080"/>
</g>
<g id="Elementos">
	<g>
		<g>
			<g>
				<path fill="#ECDCC4" d="M216,474.8V606c0,12.2-6.1,18.1-18.1,18.1H66.1c-12,0-18.1-6.2-18.1-18.1V474.8c0-12.7,6.8-19,18.8-19
					c0,0,130.7,0,130.7,0C209.9,455.9,216,462.4,216,474.8z"/>
			</g>
			<g>
				<path fill="#2C0EEB" d="M191.4,499.3c-4,0-7.3-3.3-7.3-7.3s3.3-7.3,7.3-7.3c4,0,7.3,3.3,7.3,7.3S195.4,499.3,191.4,499.3z
					 M191.4,489.2c-1.6,0-2.8,1.3-2.8,2.8c0,1.6,1.3,2.8,2.8,2.8c1.6,0,2.8-1.3,2.8-2.8C194.3,490.5,193,489.2,191.4,489.2z"/>
				<path fill="#2C0EEB" d="M191.4,537.7c-5.6,0-10.2-4.6-10.2-10.2s4.6-10.2,10.2-10.2c5.6,0,10.2,4.6,10.2,10.2
					S197.1,537.7,191.4,537.7z M191.4,521.7c-3.2,0-5.8,2.6-5.8,5.8s2.6,5.8,5.8,5.8c3.2,0,5.8-2.6,5.8-5.8S194.6,521.7,191.4,521.7
					z"/>
				<path fill="#2C0EEB" d="M191.4,521.7c-1.2,0-2.2-1-2.2-2.2v-22.3c0-1.2,1-2.2,2.2-2.2c1.2,0,2.2,1,2.2,2.2v22.3
					C193.6,520.7,192.6,521.7,191.4,521.7z"/>
				<path fill="#2C0EEB" d="M191.4,573.5c-1.2,0-2.2-1-2.2-2.2v-11.4c0-1.2,1-2.2,2.2-2.2c1.2,0,2.2,1,2.2,2.2v11.4
					C193.6,572.5,192.6,573.5,191.4,573.5z"/>
				<path fill="#2C0EEB" d="M191.4,551.8c-1.2,0-2.2-1-2.2-2.2v-14c0-1.2,1-2.2,2.2-2.2c1.2,0,2.2,1,2.2,2.2v14
					C193.6,550.8,192.6,551.8,191.4,551.8z"/>
				<path fill="#2C0EEB" d="M191.4,595.2c-1.2,0-2.2-1-2.2-2.2v-11.4c0-1.2,1-2.2,2.2-2.2c1.2,0,2.2,1,2.2,2.2V593
					C193.6,594.2,192.6,595.2,191.4,595.2z"/>
			</g>
			<path fill="#2C0EEB" d="M145.6,478.3H94.3c-14.4,0-26.1,11.7-26.1,26.1v67.5c0,7.3,5.8,13.3,13,13.7v8.9c0,4,3.2,7.2,7.2,7.2
				c4,0,7.2-3.2,7.2-7.2v-8.9h48.9v8.9c0,4,3.2,7.2,7.2,7.2c4,0,7.2-3.2,7.2-7.2v-8.9c7.2-0.4,13-6.4,13-13.7v-67.5
				C171.7,490,160,478.3,145.6,478.3z M98.7,484.6h42.6c0.9,0,1.7,0.4,2.2,0.9c0.6,0.6,0.9,1.4,0.9,2.2c0,1.7-1.4,3.1-3.1,3.1H98.7
				c-0.9,0-1.6-0.4-2.2-0.9c-0.6-0.6-0.9-1.4-0.9-2.2C95.5,486,96.9,484.6,98.7,484.6z M88.4,572.8c-4,0-7.2-3.2-7.2-7.2
				c0-4,3.2-7.2,7.2-7.2s7.2,3.2,7.2,7.2C95.5,569.6,92.3,572.8,88.4,572.8z M151.5,572.8c-4,0-7.2-3.2-7.2-7.2c0-4,3.2-7.2,7.2-7.2
				c4,0,7.2,3.2,7.2,7.2C158.7,569.6,155.5,572.8,151.5,572.8z M162.7,529.8c0,3.6-2.9,6.5-6.5,6.5H83.7c-3.6,0-6.5-2.9-6.5-6.5
				v-26.1c0-3.6,2.9-6.5,6.5-6.5h72.5c3.6,0,6.5,2.9,6.5,6.5V529.8z"/>
		</g>
		<g>
			<path fill="#ECDCC4" d="M250.8,578.7v-87.7h17.1v87.7H250.8z"/>
			<path fill="#ECDCC4" d="M344.7,578.7h-16.6v-36.3c0-5.2-0.9-9-2.7-11.4c-1.8-2.4-4.3-3.6-7.5-3.6c-1.6,0-3.3,0.3-5.1,1
				c-1.7,0.7-3.4,1.6-4.9,2.8c-1.5,1.2-2.9,2.6-4.1,4.3c-1.2,1.6-2.1,3.5-2.7,5.4v37.8h-16.6v-64.8h15v12c2.4-4.1,5.8-7.3,10.4-9.6
				c4.5-2.3,9.6-3.5,15.3-3.5c4,0,7.3,0.7,9.9,2.2c2.6,1.5,4.5,3.4,5.9,5.8c1.4,2.4,2.4,5.1,2.9,8.2c0.5,3,0.8,6.1,0.8,9.3V578.7z"
				/>
			<path fill="#ECDCC4" d="M397.3,575.3c-2.2,1-4.9,2-8.2,3c-3.2,1-6.6,1.5-10.1,1.5c-2.3,0-4.5-0.3-6.5-0.9c-2-0.6-3.8-1.5-5.3-2.8
				c-1.5-1.3-2.7-2.9-3.6-4.9c-0.9-2-1.4-4.5-1.4-7.4v-37.2h-8.5v-12.7h8.5v-21h16.6v21h13.6v12.7h-13.6v31.6c0,2.3,0.6,3.9,1.8,4.9
				c1.2,0.9,2.7,1.4,4.4,1.4s3.4-0.3,5.1-0.9c1.6-0.6,3-1.1,4-1.5L397.3,575.3z"/>
			<path fill="#ECDCC4" d="M434.4,579.9c-5.2,0-9.9-0.9-14.1-2.7c-4.2-1.8-7.8-4.2-10.8-7.2c-3-3-5.3-6.6-6.9-10.6
				c-1.6-4-2.4-8.3-2.4-12.7c0-4.6,0.8-9,2.3-13c1.6-4.1,3.8-7.7,6.8-10.8c3-3.1,6.6-5.5,10.8-7.4c4.2-1.8,9-2.7,14.3-2.7
				c5.3,0,10,0.9,14.2,2.7c4.2,1.8,7.7,4.2,10.6,7.3c2.9,3,5.1,6.6,6.7,10.6c1.5,4,2.3,8.2,2.3,12.6c0,1.1,0,2.1-0.1,3.1
				c0,1-0.1,1.8-0.3,2.5h-50.1c0.2,2.6,0.9,4.8,1.9,6.8c1,2,2.3,3.7,3.8,5.1c1.6,1.4,3.3,2.5,5.3,3.2c2,0.7,4,1.1,6.2,1.1
				c3.3,0,6.4-0.8,9.3-2.4c2.9-1.6,4.9-3.7,6-6.4l14.2,4c-2.4,4.9-6.2,9-11.4,12.2C447.9,578.3,441.7,579.9,434.4,579.9z
				 M451.2,540.9c-0.4-4.9-2.2-8.8-5.4-11.7c-3.2-2.9-7-4.4-11.6-4.4c-2.2,0-4.3,0.4-6.2,1.2c-1.9,0.8-3.6,1.9-5.1,3.3
				c-1.5,1.4-2.7,3.1-3.6,5.1c-0.9,2-1.5,4.2-1.7,6.6H451.2z"/>
			<path fill="#ECDCC4" d="M517,528.3c-5,0.1-9.5,1.1-13.5,2.9c-4,1.9-6.8,4.6-8.5,8.3v39.2h-16.6v-64.8h15.2v13.8
				c1.2-2.2,2.5-4.2,4.1-6c1.6-1.8,3.3-3.3,5.1-4.6c1.8-1.3,3.6-2.3,5.5-3c1.9-0.7,3.6-1.1,5.4-1.1c0.9,0,1.6,0,2,0
				c0.5,0,0.9,0,1.3,0.1V528.3z"/>
			<path fill="#ECDCC4" d="M586.4,578.7h-16.6v-36.3c0-5.2-0.9-9-2.7-11.4c-1.8-2.4-4.3-3.6-7.5-3.6c-1.6,0-3.3,0.3-5.1,1
				c-1.7,0.7-3.4,1.6-4.9,2.8c-1.5,1.2-2.9,2.6-4.1,4.3c-1.2,1.6-2.1,3.5-2.7,5.4v37.8h-16.6v-64.8h15v12c2.4-4.1,5.8-7.3,10.4-9.6
				c4.5-2.3,9.6-3.5,15.3-3.5c4,0,7.3,0.7,9.9,2.2c2.6,1.5,4.5,3.4,5.9,5.8c1.4,2.4,2.4,5.1,2.9,8.2c0.5,3,0.8,6.1,0.8,9.3V578.7z"
				/>
			<path fill="#ECDCC4" d="M630.8,579.9c-5.3,0-10-0.9-14.2-2.7c-4.2-1.8-7.8-4.3-10.7-7.4c-2.9-3.1-5.2-6.7-6.7-10.7
				c-1.6-4-2.3-8.3-2.3-12.7c0-4.5,0.8-8.8,2.3-12.9c1.6-4,3.8-7.6,6.7-10.7c2.9-3.1,6.5-5.5,10.7-7.4c4.2-1.8,8.9-2.7,14.2-2.7
				c5.3,0,10,0.9,14.1,2.7c4.2,1.8,7.7,4.3,10.6,7.4c2.9,3.1,5.2,6.7,6.7,10.7c1.6,4,2.3,8.3,2.3,12.9c0,4.4-0.8,8.7-2.3,12.7
				c-1.6,4-3.8,7.6-6.7,10.7c-2.9,3.1-6.4,5.5-10.6,7.4C640.8,579,636,579.9,630.8,579.9z M613.8,546.4c0,2.9,0.4,5.5,1.3,7.8
				c0.9,2.3,2.1,4.4,3.6,6.1c1.5,1.7,3.3,3.1,5.4,4c2.1,0.9,4.3,1.4,6.7,1.4c2.4,0,4.6-0.5,6.7-1.4c2.1-0.9,3.9-2.3,5.4-4
				c1.5-1.7,2.7-3.8,3.6-6.2c0.9-2.4,1.3-5,1.3-7.9c0-2.8-0.4-5.4-1.3-7.8c-0.9-2.4-2.1-4.4-3.6-6.2c-1.5-1.7-3.3-3.1-5.4-4
				c-2.1-0.9-4.3-1.4-6.7-1.4c-2.4,0-4.6,0.5-6.7,1.5c-2.1,1-3.9,2.3-5.4,4.1c-1.5,1.7-2.7,3.8-3.6,6.2
				C614.3,541,613.8,543.6,613.8,546.4z"/>
			<path fill="#ECDCC4" d="M707,578.7v-87.7h38.8c4,0,7.8,0.8,11.2,2.5c3.4,1.7,6.4,3.9,8.8,6.7c2.5,2.8,4.4,5.9,5.8,9.4
				c1.4,3.5,2.1,7,2.1,10.6c0,5.7-1.4,10.9-4.3,15.5c-2.8,4.7-6.7,8-11.6,10.1l20,33h-19.2l-17.9-29.4h-16.8v29.4H707z M724.1,534.3
				h21.4c1.6,0,3-0.4,4.4-1.1c1.4-0.7,2.5-1.7,3.5-3c1-1.3,1.8-2.8,2.3-4.5c0.6-1.7,0.9-3.6,0.9-5.6c0-2.1-0.3-4-1-5.7
				c-0.7-1.7-1.5-3.2-2.7-4.5c-1.1-1.3-2.4-2.3-3.8-3c-1.4-0.7-2.9-1.1-4.4-1.1h-20.6V534.3z"/>
			<path fill="#ECDCC4" d="M815.7,579.9c-5.3,0-10-0.9-14.2-2.7c-4.2-1.8-7.8-4.3-10.7-7.4c-2.9-3.1-5.2-6.7-6.7-10.7
				c-1.6-4-2.3-8.3-2.3-12.7c0-4.5,0.8-8.8,2.3-12.9c1.6-4,3.8-7.6,6.7-10.7c2.9-3.1,6.5-5.5,10.7-7.4c4.2-1.8,8.9-2.7,14.2-2.7
				c5.3,0,10,0.9,14.1,2.7c4.2,1.8,7.7,4.3,10.6,7.4c2.9,3.1,5.2,6.7,6.7,10.7c1.6,4,2.3,8.3,2.3,12.9c0,4.4-0.8,8.7-2.3,12.7
				c-1.6,4-3.8,7.6-6.7,10.7c-2.9,3.1-6.4,5.5-10.6,7.4C825.7,579,820.9,579.9,815.7,579.9z M798.7,546.4c0,2.9,0.4,5.5,1.3,7.8
				c0.9,2.3,2.1,4.4,3.6,6.1c1.5,1.7,3.3,3.1,5.4,4c2.1,0.9,4.3,1.4,6.7,1.4c2.4,0,4.6-0.5,6.7-1.4c2.1-0.9,3.9-2.3,5.4-4
				c1.5-1.7,2.7-3.8,3.6-6.2c0.9-2.4,1.3-5,1.3-7.9c0-2.8-0.4-5.4-1.3-7.8c-0.9-2.4-2.1-4.4-3.6-6.2c-1.5-1.7-3.3-3.1-5.4-4
				c-2.1-0.9-4.3-1.4-6.7-1.4c-2.4,0-4.6,0.5-6.7,1.5c-2.1,1-3.9,2.3-5.4,4.1c-1.5,1.7-2.7,3.8-3.6,6.2
				C799.2,541,798.7,543.6,798.7,546.4z"/>
			<path fill="#ECDCC4" d="M898.6,575.3c-2.2,1-4.9,2-8.2,3c-3.2,1-6.6,1.5-10.1,1.5c-2.3,0-4.5-0.3-6.5-0.9c-2-0.6-3.8-1.5-5.3-2.8
				c-1.5-1.3-2.7-2.9-3.6-4.9c-0.9-2-1.4-4.5-1.4-7.4v-37.2H855v-12.7h8.5v-21H880v21h13.6v12.7H880v31.6c0,2.3,0.6,3.9,1.8,4.9
				c1.2,0.9,2.7,1.4,4.4,1.4s3.4-0.3,5.1-0.9c1.6-0.6,3-1.1,4-1.5L898.6,575.3z"/>
			<path fill="#ECDCC4" d="M924.9,579.9c-3.1,0-6.1-0.5-8.8-1.5s-5.1-2.5-7-4.3s-3.5-4-4.6-6.5s-1.7-5.2-1.7-8.2c0-3,0.7-5.9,2-8.5
				c1.4-2.6,3.3-4.8,5.7-6.6c2.4-1.8,5.3-3.2,8.7-4.3c3.4-1,7.1-1.5,11.1-1.5c2.9,0,5.7,0.2,8.5,0.7c2.8,0.5,5.2,1.2,7.4,2.1v-3.7
				c0-4.3-1.2-7.6-3.6-9.9c-2.4-2.3-6-3.5-10.8-3.5c-3.5,0-6.8,0.6-10.1,1.9c-3.3,1.2-6.7,3-10.1,5.4l-5.1-10.5
				c8.3-5.5,17.3-8.3,26.9-8.3c9.3,0,16.5,2.3,21.7,6.9c5.1,4.6,7.7,11.2,7.7,19.8v20.1c0,1.7,0.3,3,0.9,3.7c0.6,0.7,1.6,1.2,3,1.2
				v14.1c-2.8,0.6-5.2,0.9-7.3,0.9c-3.1,0-5.5-0.7-7.2-2.1c-1.7-1.4-2.7-3.3-3.2-5.6l-0.4-3.6c-2.9,3.8-6.4,6.7-10.5,8.7
				C934,578.9,929.6,579.9,924.9,579.9z M929.6,567.8c2.8,0,5.5-0.5,8-1.5c2.5-1,4.5-2.3,5.9-4c1.8-1.4,2.7-3,2.7-4.7v-7.4
				c-2-0.7-4.1-1.3-6.4-1.8c-2.3-0.5-4.5-0.7-6.7-0.7c-4.3,0-7.8,1-10.5,2.9c-2.7,1.9-4.1,4.4-4.1,7.4c0,2.8,1.1,5.1,3.2,7
				C923.8,566.9,926.5,567.8,929.6,567.8z"/>
			<path fill="#ECDCC4" d="M1002.6,579.9c-5.4,0-10.8-0.9-15.9-2.6c-5.2-1.7-9.6-4.2-13.3-7.4l6.2-10.4c4,2.8,7.8,4.9,11.6,6.4
				c3.7,1.4,7.5,2.2,11.2,2.2c3.3,0,5.9-0.6,7.8-1.9c1.9-1.2,2.8-3,2.8-5.3c0-2.3-1.1-4-3.3-5.1c-2.2-1.1-5.9-2.3-10.9-3.7
				c-4.2-1.2-7.8-2.3-10.8-3.3c-3-1.1-5.4-2.3-7.2-3.6c-1.8-1.4-3.1-2.9-4-4.7c-0.8-1.8-1.2-3.9-1.2-6.4c0-3.3,0.6-6.3,1.9-8.9
				c1.3-2.6,3.1-4.9,5.4-6.7c2.3-1.9,5-3.3,8.1-4.3c3.1-1,6.4-1.5,10.1-1.5c4.9,0,9.4,0.7,13.7,2.1c4.2,1.4,8.1,3.7,11.7,6.8
				l-6.7,10c-3.3-2.5-6.5-4.3-9.6-5.4c-3.1-1.2-6.2-1.7-9.2-1.7c-2.8,0-5.2,0.6-7,1.7c-1.9,1.2-2.8,3-2.8,5.6c0,1.2,0.2,2.1,0.7,2.8
				c0.5,0.7,1.2,1.4,2.2,2c1,0.6,2.3,1.1,3.9,1.7c1.6,0.5,3.6,1.1,6,1.7c4.4,1.2,8.3,2.3,11.4,3.5c3.2,1.2,5.8,2.5,7.8,4
				c2,1.5,3.5,3.2,4.4,5.1c0.9,1.9,1.4,4.3,1.4,7c0,6.3-2.3,11.4-7,15C1017.1,578.1,1010.7,579.9,1002.6,579.9z"/>
		</g>
	</g>
</g>
</svg>
