<?xml version="1.0" encoding="UTF-8"?>
<svg id="Layer_2" data-name="Layer 2" xmlns="http://www.w3.org/2000/svg" viewBox="0 0 1017.34 183.88">
  <defs>
    <style>
      .cls-1 {
        fill: #f10631;
      }

      .cls-2, .cls-3 {
        fill: #ecdcc4;
      }

      .cls-4 {
        fill: none;
        stroke: #290e0e;
        stroke-linecap: round;
        stroke-linejoin: round;
        stroke-width: 2.59px;
      }

      .cls-5 {
        fill: #c31a1a;
      }

      .cls-6 {
        fill: #efebd6;
      }

      .cls-7 {
        fill: #290e0e;
      }

      .cls-3 {
        font-family: RalewayRoman-Bold, Raleway;
        font-size: 123.58px;
        font-variation-settings: 'wght' 700;
        font-weight: 700;
      }
    </style>
  </defs>
  <g id="Elementos">
    <text class="cls-3" transform="translate(222.22 138.41)"><tspan x="0" y="0">Interno Rotas</tspan></text>
  </g>
  <g id="Toucas">
    <g>
      <g>
        <path class="cls-2" d="m196.59,33.88v131.78c0,12.27-6.13,18.22-18.21,18.22H46.03c-12.09,0-18.2-6.27-18.2-18.22V33.88c0-12.78,6.8-19.04,18.9-19.04-.05-.04,131.25,0,131.25,0,12.47,0,18.6,6.57,18.6,19.04Z"/>
        <g>
          <path class="cls-1" d="m171.93,58.5c-4.02,0-7.28-3.27-7.28-7.28s3.27-7.28,7.28-7.28,7.28,3.27,7.28,7.28-3.27,7.28-7.28,7.28Zm0-10.14c-1.57,0-2.85,1.28-2.85,2.85s1.28,2.85,2.85,2.85,2.85-1.28,2.85-2.85-1.28-2.85-2.85-2.85Z"/>
          <path class="cls-1" d="m171.93,97.06c-5.67,0-10.28-4.61-10.28-10.28s4.61-10.28,10.28-10.28,10.28,4.61,10.28,10.28-4.61,10.28-10.28,10.28Zm0-16.13c-3.23,0-5.85,2.62-5.85,5.85s2.62,5.85,5.85,5.85,5.85-2.62,5.85-5.85-2.62-5.85-5.85-5.85Z"/>
          <path class="cls-1" d="m171.93,80.93c-1.22,0-2.21-.99-2.21-2.21v-22.44c0-1.22.99-2.21,2.21-2.21s2.21.99,2.21,2.21v22.44c0,1.22-.99,2.21-2.21,2.21Z"/>
          <path class="cls-1" d="m171.93,132.96c-1.22,0-2.21-.99-2.21-2.21v-11.46c0-1.22.99-2.21,2.21-2.21s2.21.99,2.21,2.21v11.46c0,1.22-.99,2.21-2.21,2.21Z"/>
          <path class="cls-1" d="m171.93,111.15c-1.22,0-2.21-.99-2.21-2.21v-14.1c0-1.22.99-2.21,2.21-2.21s2.21.99,2.21,2.21v14.1c0,1.22-.99,2.21-2.21,2.21Z"/>
          <path class="cls-1" d="m171.93,154.76c-1.22,0-2.21-.99-2.21-2.21v-11.46c0-1.22.99-2.21,2.21-2.21s2.21.99,2.21,2.21v11.46c0,1.22-.99,2.21-2.21,2.21Z"/>
        </g>
        <path class="cls-1" d="m125.91,37.42h-51.53c-14.47,0-26.21,11.73-26.21,26.21v67.81c0,7.37,5.79,13.37,13.05,13.74v8.92c0,3.97,3.22,7.19,7.19,7.19s7.19-3.22,7.19-7.19v-8.9h49.07v8.9c0,3.97,3.22,7.19,7.19,7.19s7.19-3.22,7.19-7.19v-8.92c7.27-.38,13.04-6.38,13.04-13.74V63.62c0-14.47-11.73-26.21-26.21-26.21Zm-47.15,6.31h42.76c.87,0,1.67.35,2.24.92s.92,1.36.92,2.24c0,1.74-1.42,3.16-3.16,3.16h-42.76c-.87,0-1.65-.35-2.22-.92s-.92-1.37-.92-2.24c0-1.75,1.41-3.16,3.15-3.16Zm-10.35,88.59c-3.97,0-7.19-3.22-7.19-7.19s3.22-7.19,7.19-7.19,7.19,3.22,7.19,7.19-3.22,7.19-7.19,7.19Zm63.46,0c-3.97,0-7.19-3.22-7.19-7.19s3.22-7.19,7.19-7.19,7.19,3.22,7.19,7.19-3.22,7.19-7.19,7.19Zm11.23-43.17c0,3.62-2.93,6.55-6.55,6.55H63.74c-3.62,0-6.55-2.93-6.55-6.55v-26.18c0-3.62,2.93-6.55,6.55-6.55h72.81c3.62,0,6.55,2.93,6.55,6.55v26.18Z"/>
      </g>
      <g>
        <circle class="cls-6" cx="14.95" cy="101.4" r="12.35"/>
        <path class="cls-5" d="m29.23,65.96c-.54,2.65-1.29,5.25-2.24,7.79-.95,2.53-2.11,4.99-3.43,7.37-1.18,2.1-2.49,4.13-3.89,6.11-1.85-.62-3.84-.89-5.91-.72-.86.07-1.7.21-2.52.42-4.77-16.44-2.6-39.54,4.16-57.26.02-.05,3.94-8.68,3.95-8.73,2.19-4.08,4.67-7.65,7.39-10.47C34.8,2.14,48.8,1.89,59.13,3.15c11.2,1.36,23.93,5.34,34,10.56-1.67.53-3.49,1.2-5.49,2.01-7.93,3.11-35.26,15.06-54.26,38.02-.05.06-3.97,11.33-4.15,12.22Z"/>
        <path class="cls-6" d="m38.66,75.4c-.47-.7-1.01-1.43-1.59-2.2-1.85-2.48-3.82-5.12-4.53-8.08.16-.94.29-1.87.4-2.82.13-1.18.22-2.37.27-3.56.5-1.08,1.21-2.19,2.17-3.36,18.61-22.49,45.6-34.46,53.36-37.6,16.29-6.6,18.56-.63,18.56-.63,4.58,6.6,10.38,14.57,9.05,19.06-.49,1.67-1.6,3.28-3.76,4.48-1.36,1.44-56.22,37.94-59.88,40.9-1.71,1.15-3.24,1.6-4.74,1.42-2.67-.32-5.54-2.67-9.3-7.62Z"/>
        <path class="cls-4" d="m37.6,76.16c-3.29-4.92-11.07-12.15-3.22-21.59,18-21.75,43.51-33.63,53.74-37.64,17.3-7.08,18.37-1.6,21.05,1.71,8.11,11.7,12.63,17.43,2.71,24.2q-27.49,16.16-57.16,38.89c-6.06,4.93-10.71,2.87-17.11-5.56Z"/>
        <path class="cls-4" d="m96.57,14.09C76.72,2.76,40.57-5.69,25.82,9.56,11.08,24.82,2.43,63.51,10.39,88.54"/>
        <path class="cls-7" d="m19.14,87.99c.8-1.11,1.58-2.23,2.32-3.38.37-.57.73-1.15,1.08-1.73.35-.58.69-1.17,1.02-1.76,1.32-2.38,2.48-4.83,3.43-7.37.12-.32.23-.63.35-.95.11-.32.22-.64.33-.96.11-.32.21-.64.31-.97.1-.32.2-.65.29-.97.38-1.3.69-2.61.96-3.94.27-1.33.48-2.66.64-4.01.16-1.34.28-2.7.34-4.05.02-.34.03-.68.04-1.02,0-.17.01-.34.01-.51,0-.17,0-.34,0-.51.01-.68,0-1.36,0-2.04-.01-.68-.03-1.37-.07-2.05-.03-.68-.07-1.37-.12-2.05-.1-1.37-.23-2.74-.38-4.11-.15-1.37-.32-2.75-.5-4.13-.18-1.38-.36-2.77-.49-4.18-.06-.7-.12-1.41-.16-2.12-.02-.36-.03-.71-.04-1.07,0-.36-.01-.72,0-1.08,0-.72.05-1.45.13-2.17.09-.73.22-1.45.43-2.16.1-.36.23-.7.38-1.05.15-.34.32-.67.51-.99.39-.63.88-1.18,1.46-1.6.01,0,.03,0,.03,0,0,0,0,.02,0,.03-.19.3-.36.6-.5.91l-.1.23-.09.24c-.03.08-.06.16-.08.24-.03.08-.05.16-.07.24-.09.32-.17.65-.22.97-.06.33-.09.66-.11.99-.09,1.32.03,2.66.19,4.01.17,1.35.4,2.7.63,4.06l.35,2.05c.12.69.23,1.37.34,2.06.23,1.38.45,2.77.65,4.16.2,1.4.37,2.8.51,4.21.07.71.13,1.41.18,2.12.05.71.09,1.42.11,2.13.03.71.04,1.43.05,2.14,0,.18,0,.36,0,.54,0,.18,0,.36,0,.54,0,.36-.01.72-.03,1.07-.05,1.43-.15,2.86-.3,4.29-.16,1.43-.38,2.85-.65,4.26-.28,1.41-.62,2.81-1.02,4.19-.2.69-.42,1.38-.65,2.06-.11.34-.24.68-.36,1.02-.12.34-.25.68-.38,1.01-1.04,2.68-2.31,5.27-3.77,7.73-.37.61-.74,1.22-1.13,1.82-.19.3-.39.6-.59.89-.1.15-.2.29-.3.44-.1.15-.2.29-.31.44-.82,1.17-1.69,2.3-2.59,3.4-.46.55-1.27.63-1.83.18-.53-.44-.63-1.21-.23-1.76h0Z"/>
        <path class="cls-7" d="m29.51,38.94c1.1-.98,2.16-2.01,3.15-3.1.99-1.09,1.93-2.23,2.81-3.42.88-1.19,1.7-2.43,2.48-3.7.2-.31.38-.64.57-.96.09-.16.19-.32.28-.48l.27-.49.27-.49.26-.5.27-.5c.09-.16.17-.33.26-.5.68-1.33,1.33-2.69,1.94-4.08.61-1.38,1.21-2.78,1.8-4.18.59-1.41,1.18-2.82,1.78-4.24.31-.71.61-1.42.93-2.12.32-.71.65-1.41,1.01-2.1,0-.01.02-.02.04-.01.01,0,.02.02.01.03-.09.78-.21,1.54-.33,2.31-.12.77-.26,1.53-.41,2.29-.3,1.52-.64,3.03-1.05,4.53-.41,1.5-.87,2.99-1.41,4.46-.54,1.47-1.13,2.92-1.78,4.35-.08.18-.16.36-.25.54l-.26.53-.26.53-.27.53-.27.53c-.09.17-.19.35-.28.52-.19.34-.38.69-.59,1.03l-.3.51-.15.26-.16.25-.32.5c-.11.17-.21.34-.32.5-.22.33-.45.66-.67.98l-.71.96c-.97,1.27-2.01,2.48-3.15,3.6-1.14,1.12-2.36,2.17-3.68,3.08-.57.39-1.34.25-1.74-.31-.36-.52-.27-1.23.19-1.64h.01Z"/>
        <path class="cls-7" d="m42.64,19.63c-.03-.11-.06-.23-.08-.34,0-.03-.01-.06-.02-.08l-.02-.08c-.01-.05-.03-.11-.04-.16v-.04s-.02-.04-.02-.04c0-.03-.02-.05-.02-.08-.01-.05-.03-.11-.04-.16-.01-.05-.03-.1-.05-.16l-.05-.16v-.04s-.02-.03-.03-.04l-.03-.08c-.02-.05-.04-.1-.06-.15,0-.03-.02-.05-.03-.08s-.02-.05-.03-.08l-.06-.15-.15-.3c-.06-.09-.12-.19-.18-.29-.25-.38-.58-.73-.96-1.05-.38-.32-.81-.6-1.28-.85-.47-.24-.97-.45-1.49-.62-.26-.09-.53-.16-.8-.23l-.2-.05c-.07-.02-.14-.03-.2-.05-.14-.03-.27-.06-.41-.08-1.11-.2-2.26-.28-3.42-.22h0s-.07-.03-.07-.06c0-.03.02-.06.04-.07,1.11-.38,2.3-.6,3.51-.66.15,0,.3,0,.46-.01.08,0,.15,0,.23,0h.23c.31.01.61.03.92.06.61.06,1.23.17,1.85.35.61.18,1.22.41,1.81.73.59.32,1.15.73,1.65,1.24.12.13.24.26.36.39.11.14.22.28.33.43l.15.23.07.12s.05.08.07.12c.04.08.08.16.13.24l.06.12.03.06.03.06c.29.67.44,1.39.43,2.09-.02.72-.61,1.29-1.33,1.27-.58-.01-1.06-.4-1.22-.93l-.04-.14Z"/>
        <circle class="cls-4" cx="14.95" cy="101.4" r="13.65"/>
        <path class="cls-7" d="m19.3,21.13c-.21.52-.4,1.05-.56,1.6-.07.28-.15.55-.21.83-.07.28-.12.56-.18.84-.02.07-.02.14-.04.21l-.03.21c-.02.14-.05.28-.06.43l-.06.43c-.02.14-.03.29-.04.44-.06.58-.08,1.17-.1,1.77-.02,1.19.03,2.39.15,3.6.02.15.03.3.04.45l.06.45c.02.15.03.3.06.45l.07.45c.02.15.04.3.07.45l.08.45.08.45.09.45c.23,1.21.5,2.42.81,3.63.31,1.21.66,2.41,1.02,3.6.37,1.2.76,2.39,1.17,3.58.41,1.19.85,2.37,1.28,3.56h0s0,.09-.05.11c-.04.01-.08,0-.1-.04l-.48-.82c-.08-.14-.16-.27-.24-.41l-.23-.42-.46-.83-.44-.84c-.15-.28-.29-.56-.43-.85-.14-.28-.29-.57-.42-.85l-.41-.86-.4-.87c-.52-1.16-1.02-2.34-1.47-3.54-.45-1.2-.86-2.42-1.22-3.66l-.14-.46-.12-.47-.12-.47c-.04-.16-.08-.32-.11-.47l-.11-.47c-.04-.16-.07-.32-.1-.48l-.1-.48c-.03-.16-.06-.32-.09-.48-.24-1.29-.4-2.6-.44-3.93,0-.17,0-.33,0-.5,0-.17,0-.33,0-.5.01-.34.02-.67.05-1.01l.02-.25c0-.08.01-.17.02-.25l.06-.51c.02-.17.05-.34.08-.51l.04-.25c.01-.08.03-.17.05-.25l.11-.5.03-.13s.02-.08.03-.13l.07-.25c.08-.33.2-.66.3-.99.24-.65.52-1.29.87-1.9.35-.62,1.14-.84,1.76-.49.57.32.8,1.02.56,1.61v.03Z"/>
      </g>
    </g>
  </g>
</svg>