<?xml version="1.0" encoding="UTF-8"?>
<svg xmlns="http://www.w3.org/2000/svg" viewBox="0 0 1080 1080">
  <defs>
    <style>
      .cls-1 {
        fill: #f00631;
      }

      .cls-2 {
        fill: #2b0606;
      }

      .cls-3 {
        stroke: #2b0606;
        stroke-width: 12.26px;
      }

      .cls-3, .cls-4 {
        fill: none;
        stroke-linecap: round;
        stroke-linejoin: round;
      }

      .cls-4 {
        stroke: #f00631;
        stroke-width: 19.55px;
      }

      .cls-5 {
        fill: #ffefdf;
      }
    </style>
  </defs>
  <g id="Fundo">
    <rect class="cls-1" width="1080" height="1080"/>
  </g>
  <g id="Elementos">
    <g>
      <g>
        <path class="cls-5" d="M924.83,261.82v581.85c0,54.18-27.05,80.44-80.42,80.44H260.07c-53.37,0-80.35-27.66-80.35-80.44V261.82c0-56.42,30.03-84.06,83.45-84.06-.22-.17,579.53,0,579.53,0,55.08,0,82.13,29.03,82.13,84.06Z"/>
        <g>
          <circle class="cls-4" cx="815.94" cy="338.38" r="22.38"/>
          <circle class="cls-4" cx="815.94" cy="495.43" r="35.6"/>
          <line class="cls-4" x1="815.94" y1="459.79" x2="815.94" y2="360.72"/>
          <line class="cls-4" x1="815.94" y1="689.52" x2="815.94" y2="638.91"/>
          <line class="cls-4" x1="815.94" y1="593.25" x2="815.94" y2="531"/>
          <line class="cls-4" x1="815.94" y1="785.8" x2="815.94" y2="735.18"/>
        </g>
        <path class="cls-1" d="M612.76,277.46h-227.52c-63.9,0-115.71,51.8-115.71,115.71v299.39c0,32.52,25.56,59.04,57.62,60.67v39.37c0,17.52,14.2,31.74,31.77,31.74s31.77-14.22,31.77-31.74v-39.29h216.68v39.29c0,17.52,14.2,31.74,31.74,31.74s31.77-14.22,31.77-31.74v-39.37c32.08-1.66,57.6-28.17,57.6-60.67v-299.39c0-63.9-51.78-115.71-115.71-115.71ZM404.58,305.34h188.82c3.86,0,7.36,1.56,9.87,4.08,2.52,2.52,4.08,5.99,4.08,9.87,0,7.7-6.26,13.95-13.95,13.95h-188.82c-3.84,0-7.31-1.56-9.82-4.08-2.52-2.52-4.08-6.04-4.08-9.87,0-7.72,6.21-13.95,13.9-13.95ZM358.89,696.49c-17.55,0-31.77-14.22-31.77-31.74s14.22-31.77,31.77-31.77,31.74,14.2,31.74,31.77-14.2,31.74-31.74,31.74ZM639.1,696.49c-17.52,0-31.74-14.22-31.74-31.74s14.22-31.77,31.74-31.77,31.77,14.2,31.77,31.77-14.2,31.74-31.77,31.74ZM688.68,505.86c0,15.98-12.95,28.91-28.93,28.91h-321.48c-15.98,0-28.93-12.93-28.93-28.91v-115.58c0-15.98,12.95-28.93,28.93-28.93h321.48c15.98,0,28.93,12.95,28.93,28.93v115.58Z"/>
      </g>
      <g>
        <path class="cls-5" d="M179.92,611.07c5.55,34.11-17.68,66.39-51.8,71.94-34.11,5.55-66.39-17.68-71.94-51.8-5.55-34.11,17.68-66.39,51.8-71.94,34.11-5.55,66.39,17.68,71.94,51.8Z"/>
        <path class="cls-1" d="M178.14,448.7c-1.53,12.68-2.69,25.24-6.17,37.54-3.51,12.29-7.99,24.32-13.28,36.02-4.72,10.35-14.08,28.43-19.91,38.28-8.94-2.19-22.44-4-32.09-2.43-4.04.66-11.94-4.99-15.69-3.7-28.87-75.53-30.33-185.14-5.42-271.22.07-.22,16.48-42.4,16.52-42.63,8.71-20.08,14.98-37.83,26.72-52.17,34.63-42.31,106.67-53.24,155.79-51.36,53.27,2.03,134.2,20.57,183.65,41.21-7.67,3.15-39.93,15.8-48.36,21.5-61.05,41.3-148.91,80.58-239.65,202.99-.24.32-1.65,41.7-2.13,45.98Z"/>
        <path class="cls-5" d="M219.55,489.47c-2.48-3.11-5.32-6.32-8.33-9.73-9.67-10.95-19.99-22.63-24.5-36.28.37-4.47.64-8.94.78-13.41.15-5.62.1-11.25-.12-16.86,1.92-5.26,4.82-10.8,8.92-16.65,78.83-113.13,201.25-180.01,236.58-197.86,74.13-37.44,87.13-10.22,87.13-10.22,24.15,29.27,54.54,64.57,50.03,86.2-1.68,8.05,11.21-1.72-18.48,32.87l-263.48,205.62c-7.59,6.06-14.62,8.79-21.75,8.54-12.71-.47-27.14-10.41-46.77-32.23Z"/>
        <path class="cls-3" d="M214.87,493.43c-17.41-21.9-56.88-52.9-23.6-100.39,76.26-109.44,191.75-175.29,238.33-198.21,78.67-40.08,85.84-14.72,99.76-.17,42.74,51.92,66.26,77.16,22.18,112.88l-253.97,205.4c-31.7,22.72-49.28,17.7-82.71-19.51Z"/>
        <path class="cls-3" d="M468.29,178.23c-97.86-45.63-271.38-71.29-334.86,6.28-63.48,77.56-89.08,263.12-41.86,377.84"/>
        <path class="cls-2" d="M132.55,556.37c3.35-5.54,6.56-11.13,9.61-16.81,1.51-2.85,2.99-5.7,4.41-8.59,1.43-2.88,2.79-5.79,4.13-8.71,5.29-11.7,9.79-23.73,13.26-36.03.45-1.53.86-3.08,1.27-4.62.4-1.55.8-3.09,1.17-4.65.38-1.55.73-3.11,1.08-4.67.33-1.56.67-3.12.98-4.69,1.27-6.26,2.24-12.57,2.98-18.92.74-6.35,1.24-12.72,1.46-19.12.24-6.39.26-12.81.02-19.22-.06-1.6-.13-3.21-.22-4.81-.04-.8-.08-1.6-.13-2.41-.05-.8-.09-1.6-.15-2.41-.22-3.21-.49-6.42-.81-9.63-.32-3.21-.7-6.41-1.12-9.62-.41-3.21-.86-6.41-1.36-9.61-.99-6.41-2.15-12.81-3.39-19.21-1.23-6.41-2.58-12.82-3.95-19.25-1.38-6.43-2.78-12.9-3.95-19.47-.58-3.28-1.13-6.59-1.57-9.92-.23-1.67-.42-3.34-.61-5.02-.17-1.69-.33-3.37-.44-5.07-.24-3.4-.33-6.83-.21-10.28.13-3.45.46-6.92,1.18-10.35.35-1.71.81-3.41,1.36-5.07.56-1.66,1.23-3.29,2.02-4.84,1.59-3.11,3.69-5.92,6.24-8.12.05-.04.12-.04.16.01.03.04.04.09.01.13-.78,1.48-1.45,2.98-1.99,4.5l-.39,1.14-.34,1.15c-.11.38-.2.77-.3,1.15-.09.39-.17.78-.26,1.16-.32,1.55-.53,3.11-.65,4.67-.14,1.56-.16,3.13-.15,4.69.1,6.27,1.16,12.54,2.46,18.8,1.32,6.27,2.92,12.55,4.54,18.87l2.44,9.51c.81,3.18,1.6,6.38,2.41,9.58,1.6,6.41,3.19,12.85,4.67,19.35,1.48,6.5,2.83,13.04,4.04,19.64.6,3.3,1.17,6.61,1.68,9.93.51,3.32.96,6.66,1.37,10,.41,3.34.76,6.7,1.06,10.06.08.84.15,1.68.21,2.52.07.84.13,1.68.19,2.53.12,1.69.21,3.37.3,5.06.34,6.76.43,13.54.25,20.32-.19,6.78-.68,13.56-1.42,20.32-.78,6.75-1.83,13.48-3.17,20.14-.67,3.33-1.42,6.65-2.25,9.95-.4,1.65-.84,3.29-1.28,4.94-.45,1.64-.9,3.28-1.39,4.9-3.86,13.03-8.81,25.71-14.75,37.87-1.49,3.04-3.02,6.05-4.62,9.02-.79,1.49-1.61,2.97-2.43,4.44-.41.74-.84,1.47-1.25,2.2-.42.73-.84,1.46-1.27,2.19-3.42,5.81-7.04,11.5-10.87,17.02-1.93,2.78-5.75,3.48-8.53,1.55-2.67-1.85-3.42-5.45-1.77-8.2l.02-.03Z"/>
        <circle class="cls-3" cx="118.05" cy="621.14" r="64.48"/>
      </g>
    </g>
  </g>
</svg>