<?xml version="1.0" encoding="UTF-8"?>
<svg id="Elementos" xmlns="http://www.w3.org/2000/svg" viewBox="0 0 1080 1080">
  <defs>
    <style>
      .cls-1 {
        fill: #f00631;
      }

      .cls-2 {
        fill: #2b0606;
      }

      .cls-3 {
        stroke: #2b0606;
        stroke-width: 12.51px;
      }

      .cls-3, .cls-4 {
        fill: none;
        stroke-linecap: round;
        stroke-linejoin: round;
      }

      .cls-4 {
        stroke: #f00631;
        stroke-width: 19.94px;
      }

      .cls-5 {
        fill: #ffefdf;
      }
    </style>
  </defs>
  <path class="cls-1" d="M1080,120.99v843.36c0,78.52-39.21,116.6-116.56,116.6H116.46c-77.36,0-116.46-40.09-116.46-116.6V120.99C0,39.21,43.53-.85,120.96-.85c-.32-.25,840,0,840,0,79.83,0,119.04,42.08,119.04,121.84Z"/>
  <g>
    <g>
      <path class="cls-5" d="M926.87,256.98v593.53c0,55.26-27.59,82.06-82.03,82.06H248.76c-54.44,0-81.96-28.22-81.96-82.06V256.98c0-57.56,30.64-85.75,85.12-85.75-.22-.17,591.16,0,591.16,0,56.18,0,83.78,29.61,83.78,85.75Z"/>
      <g>
        <circle class="cls-4" cx="815.79" cy="335.08" r="22.83"/>
        <circle class="cls-4" cx="815.79" cy="495.28" r="36.32"/>
        <line class="cls-4" x1="815.79" y1="458.93" x2="815.79" y2="357.87"/>
        <line class="cls-4" x1="815.79" y1="693.27" x2="815.79" y2="641.64"/>
        <line class="cls-4" x1="815.79" y1="595.06" x2="815.79" y2="531.56"/>
        <line class="cls-4" x1="815.79" y1="791.49" x2="815.79" y2="739.85"/>
      </g>
      <path class="cls-1" d="M608.53,272.94h-232.09c-65.18,0-118.03,52.84-118.03,118.03v305.4c0,33.18,26.07,60.22,58.78,61.89v40.16c0,17.87,14.48,32.38,32.4,32.38s32.4-14.51,32.4-32.38v-40.08h221.03v40.08c0,17.87,14.48,32.38,32.38,32.38s32.4-14.51,32.4-32.38v-40.16c32.73-1.7,58.75-28.74,58.75-61.89v-305.4c0-65.18-52.82-118.03-118.03-118.03ZM396.18,301.38h192.61c3.94,0,7.5,1.6,10.07,4.16,2.57,2.57,4.16,6.11,4.16,10.07,0,7.85-6.38,14.23-14.23,14.23h-192.61c-3.91,0-7.45-1.6-10.02-4.16-2.57-2.57-4.16-6.16-4.16-10.07,0-7.88,6.33-14.23,14.18-14.23ZM349.56,700.38c-17.9,0-32.4-14.51-32.4-32.38s14.51-32.4,32.4-32.4,32.38,14.48,32.38,32.4-14.48,32.38-32.38,32.38ZM635.4,700.38c-17.87,0-32.38-14.51-32.38-32.38s14.51-32.4,32.38-32.4,32.4,14.48,32.4,32.4-14.48,32.38-32.4,32.38ZM685.97,505.93c0,16.3-13.21,29.49-29.51,29.49h-327.94c-16.3,0-29.51-13.19-29.51-29.49v-117.9c0-16.3,13.21-29.51,29.51-29.51h327.94c16.3,0,29.51,13.21,29.51,29.51v117.9Z"/>
    </g>
    <g>
      <path class="cls-5" d="M167.01,613.24c5.67,34.8-18.04,67.72-52.84,73.39-34.8,5.67-67.72-18.04-73.39-52.84-5.67-34.8,18.04-67.72,52.84-73.39,34.8-5.67,67.72,18.04,73.39,52.84Z"/>
      <path class="cls-1" d="M165.19,447.62c-1.56,12.94-2.74,25.75-6.29,38.29-3.58,12.54-8.15,24.81-13.54,36.75-4.82,10.56-14.37,29-20.31,39.05-9.12-2.24-22.9-4.08-32.73-2.48-4.12.67-12.18-5.09-16-3.78-29.45-77.05-30.94-188.86-5.53-276.67.07-.23,16.81-43.26,16.86-43.48,8.88-20.48,15.28-38.59,27.26-53.22,35.33-43.16,108.81-54.31,158.91-52.4,54.34,2.07,136.9,20.98,187.34,42.03-7.82,3.22-40.73,16.12-49.33,21.93-62.28,42.13-151.9,82.2-244.46,207.07-.24.33-1.68,42.54-2.18,46.9Z"/>
      <path class="cls-5" d="M207.43,489.21c-2.53-3.17-5.43-6.45-8.49-9.92-9.87-11.17-20.39-23.08-24.99-37.01.38-4.55.65-9.12.8-13.68.15-5.74.1-11.47-.13-17.19,1.95-5.37,4.92-11.02,9.1-16.98,80.41-115.4,205.29-183.63,241.33-201.83,75.62-38.19,88.88-10.43,88.88-10.43,24.63,29.86,55.63,65.86,51.03,87.93-1.71,8.21,11.44-1.75-18.86,33.53l-268.77,209.75c-7.75,6.18-14.91,8.97-22.19,8.71-12.97-.47-27.69-10.62-47.7-32.88Z"/>
      <path class="cls-3" d="M202.65,493.25c-17.76-22.34-58.02-53.96-24.07-102.4,77.79-111.64,195.6-178.81,243.12-202.18,80.25-40.88,87.57-15.01,101.76-.18,43.59,52.96,67.59,78.71,22.63,115.14l-259.07,209.53c-32.34,23.18-50.27,18.05-84.37-19.9Z"/>
      <path class="cls-3" d="M461.16,171.71c-99.82-46.54-276.82-72.72-341.58,6.4-64.75,79.12-90.87,268.4-42.7,385.43"/>
      <path class="cls-2" d="M118.68,557.45c3.41-5.65,6.69-11.36,9.8-17.15,1.54-2.9,3.05-5.82,4.5-8.76,1.46-2.94,2.85-5.91,4.22-8.88,5.4-11.93,9.98-24.2,13.53-36.75.46-1.56.87-3.14,1.3-4.71.4-1.58.82-3.15,1.19-4.74.39-1.58.74-3.17,1.1-4.76.34-1.59.68-3.18,1-4.78,1.29-6.38,2.28-12.83,3.04-19.3.75-6.47,1.26-12.98,1.49-19.5.25-6.52.26-13.06.02-19.61-.06-1.64-.13-3.27-.22-4.91-.04-.82-.08-1.64-.14-2.46-.05-.82-.1-1.64-.16-2.46-.22-3.27-.5-6.55-.83-9.82-.33-3.27-.71-6.54-1.14-9.81-.42-3.27-.88-6.54-1.39-9.81-1-6.54-2.19-13.06-3.46-19.6-1.26-6.54-2.63-13.08-4.03-19.64-1.41-6.56-2.83-13.16-4.03-19.86-.59-3.35-1.15-6.72-1.61-10.12-.24-1.7-.43-3.41-.63-5.13-.17-1.72-.34-3.44-.45-5.17-.24-3.46-.34-6.97-.22-10.49.13-3.52.47-7.06,1.2-10.56.36-1.75.83-3.48,1.39-5.17.57-1.7,1.25-3.35,2.06-4.94,1.62-3.17,3.77-6.04,6.37-8.29.05-.04.12-.04.17.01.03.04.04.09.01.13-.79,1.51-1.48,3.03-2.03,4.59l-.4,1.17-.35,1.17c-.11.39-.21.79-.31,1.18-.09.39-.17.79-.26,1.18-.33,1.58-.54,3.17-.67,4.77-.14,1.59-.16,3.19-.15,4.79.1,6.39,1.19,12.79,2.51,19.18,1.35,6.39,2.98,12.8,4.63,19.25l2.49,9.71c.83,3.25,1.64,6.51,2.46,9.78,1.63,6.54,3.25,13.11,4.77,19.74,1.51,6.63,2.89,13.31,4.12,20.03.61,3.36,1.19,6.74,1.71,10.13.52,3.39.98,6.79,1.4,10.2.41,3.41.78,6.83,1.08,10.26.08.86.15,1.72.22,2.57.07.86.14,1.72.2,2.58.12,1.72.22,3.44.31,5.16.35,6.89.44,13.81.26,20.73-.19,6.92-.69,13.84-1.45,20.73-.79,6.89-1.86,13.75-3.24,20.55-.68,3.4-1.45,6.78-2.29,10.15-.41,1.68-.86,3.36-1.3,5.03-.46,1.67-.92,3.34-1.42,5-3.94,13.29-8.99,26.23-15.05,38.63-1.52,3.1-3.08,6.17-4.72,9.2-.81,1.52-1.65,3.03-2.48,4.53-.41.75-.85,1.5-1.28,2.24-.43.74-.85,1.49-1.29,2.23-3.49,5.93-7.18,11.73-11.09,17.36-1.97,2.84-5.86,3.55-8.7,1.58-2.73-1.89-3.49-5.56-1.8-8.36l.02-.03Z"/>
      <circle class="cls-3" cx="103.89" cy="623.52" r="65.77"/>
    </g>
  </g>
</svg>