<?xml version="1.0" encoding="UTF-8"?>
<svg xmlns="http://www.w3.org/2000/svg" viewBox="0 0 1080 1080">
  <defs>
    <style>
      .cls-1 {
        fill: #f10631;
      }

      .cls-2 {
        font-family: RalewayRoman-Bold, Raleway;
        font-size: 160.77px;
        font-variation-settings: 'wght' 700;
        font-weight: 700;
      }

      .cls-2, .cls-3 {
        fill: #ecdcc4;
      }

      .cls-4 {
        fill: #c31a1a;
      }

      .cls-5 {
        fill: none;
        stroke: #290e0e;
        stroke-linecap: round;
        stroke-linejoin: round;
        stroke-width: 4.69px;
      }

      .cls-6 {
        fill: #efebd6;
      }

      .cls-7 {
        fill: #290e0e;
      }
    </style>
  </defs>
  <g id="Fundo">
    <rect class="cls-1" width="1080" height="1080"/>
  </g>
  <g id="Toucas">
    <g>
      <g>
        <g>
          <path class="cls-3" d="m398.3,418v238.11c0,22.17-11.07,32.92-32.91,32.92H126.26c-21.84,0-32.88-11.32-32.88-32.92v-238.11c0-23.09,12.29-34.4,34.15-34.4-.09-.07,237.16,0,237.16,0,22.54,0,33.61,11.88,33.61,34.4Z"/>
          <g>
            <path class="cls-1" d="m353.73,462.49c-7.26,0-13.16-5.9-13.16-13.16s5.9-13.16,13.16-13.16,13.16,5.9,13.16,13.16-5.9,13.16-13.16,13.16Zm0-18.32c-2.84,0-5.16,2.31-5.16,5.16s2.31,5.16,5.16,5.16,5.16-2.31,5.16-5.16-2.31-5.16-5.16-5.16Z"/>
            <path class="cls-1" d="m353.73,532.17c-10.24,0-18.57-8.33-18.57-18.57s8.33-18.57,18.57-18.57,18.57,8.33,18.57,18.57-8.33,18.57-18.57,18.57Zm0-29.14c-5.83,0-10.57,4.74-10.57,10.57s4.74,10.57,10.57,10.57,10.57-4.74,10.57-10.57-4.74-10.57-10.57-10.57Z"/>
            <path class="cls-1" d="m353.73,503.02c-2.21,0-4-1.79-4-4v-40.54c0-2.21,1.79-4,4-4s4,1.79,4,4v40.54c0,2.21-1.79,4-4,4Z"/>
            <path class="cls-1" d="m353.73,597.03c-2.21,0-4-1.79-4-4v-20.71c0-2.21,1.79-4,4-4s4,1.79,4,4v20.71c0,2.21-1.79,4-4,4Z"/>
            <path class="cls-1" d="m353.73,557.63c-2.21,0-4-1.79-4-4v-25.47c0-2.21,1.79-4,4-4s4,1.79,4,4v25.47c0,2.21-1.79,4-4,4Z"/>
            <path class="cls-1" d="m353.73,636.43c-2.21,0-4-1.79-4-4v-20.71c0-2.21,1.79-4,4-4s4,1.79,4,4v20.71c0,2.21-1.79,4-4,4Z"/>
          </g>
          <path class="cls-1" d="m270.59,424.4h-93.11c-26.15,0-47.35,21.2-47.35,47.35v122.52c0,13.31,10.46,24.16,23.58,24.83v16.11c0,7.17,5.81,12.99,13,12.99s13-5.82,13-12.99v-16.08h88.67v16.08c0,7.17,5.81,12.99,12.99,12.99s13-5.82,13-12.99v-16.11c13.13-.68,23.57-11.53,23.57-24.83v-122.52c0-26.15-21.19-47.35-47.35-47.35Zm-85.19,11.41h77.27c1.58,0,3.01.64,4.04,1.67s1.67,2.45,1.67,4.04c0,3.15-2.56,5.71-5.71,5.71h-77.27c-1.57,0-2.99-.64-4.02-1.67s-1.67-2.47-1.67-4.04c0-3.16,2.54-5.71,5.69-5.71Zm-18.7,160.07c-7.18,0-13-5.82-13-12.99s5.82-13,13-13,12.99,5.81,12.99,13-5.81,12.99-12.99,12.99Zm114.67,0c-7.17,0-12.99-5.82-12.99-12.99s5.82-13,12.99-13,13,5.81,13,13-5.81,12.99-13,12.99Zm20.29-78.01c0,6.54-5.3,11.83-11.84,11.83h-131.56c-6.54,0-11.84-5.29-11.84-11.83v-47.3c0-6.54,5.3-11.84,11.84-11.84h131.56c6.54,0,11.84,5.3,11.84,11.84v47.3Z"/>
        </g>
        <text class="cls-2" transform="translate(431.64 525.63)"><tspan x="0" y="0">Interno</tspan><tspan x="0" y="133.98">Rotas</tspan></text>
      </g>
      <g>
        <circle class="cls-6" cx="70.09" cy="540.01" r="22.32"/>
        <path class="cls-4" d="m95.9,475.97c-.98,4.79-2.33,9.49-4.04,14.07-1.73,4.57-3.81,9.02-6.2,13.31-2.13,3.8-4.49,7.47-7.02,11.04-3.34-1.12-6.95-1.6-10.67-1.31-1.56.12-3.08.39-4.55.76-8.62-29.7-4.7-71.44,7.52-103.46.03-.08,7.11-15.68,7.14-15.77,3.95-7.38,8.43-13.82,13.36-18.92,14.54-15.03,39.83-15.49,58.49-13.23,20.24,2.46,43.24,9.64,61.44,19.07-3.02.96-6.31,2.16-9.91,3.64-14.32,5.63-63.72,27.21-98.05,68.7-.1.12-7.18,20.47-7.5,22.09Z"/>
        <path class="cls-6" d="m112.94,493.03c-.85-1.26-1.83-2.58-2.87-3.97-3.34-4.48-6.91-9.26-8.19-14.6.28-1.69.53-3.39.72-5.09.23-2.14.39-4.28.48-6.43.9-1.95,2.18-3.96,3.92-6.06,33.62-40.63,82.39-62.26,96.42-67.94,29.44-11.93,33.53-1.14,33.53-1.14,8.28,11.92,18.75,26.33,16.35,34.43-.89,3.01-2.89,5.93-6.8,8.1-2.45,2.6-101.57,68.55-108.2,73.9-3.09,2.07-5.85,2.89-8.56,2.57-4.83-.58-10.02-4.82-16.81-13.76Z"/>
        <path class="cls-5" d="m111.03,494.39c-5.95-8.9-20.01-21.96-5.82-39.01,32.52-39.3,78.62-60.76,97.1-68.02,31.25-12.79,33.18-2.9,38.03,3.08,14.65,21.14,22.82,31.5,4.89,43.72q-49.68,29.2-103.29,70.27c-10.94,8.91-19.34,5.19-30.91-10.05Z"/>
        <path class="cls-5" d="m217.57,382.25c-35.86-20.48-101.18-35.74-127.83-8.18-26.65,27.56-42.26,97.48-27.89,142.69"/>
        <path class="cls-7" d="m77.66,515.78c1.45-2,2.85-4.04,4.19-6.1.66-1.04,1.32-2.08,1.95-3.13.64-1.05,1.25-2.12,1.85-3.19,2.39-4.29,4.48-8.73,6.19-13.31.22-.57.42-1.15.63-1.72.2-.58.4-1.15.59-1.73.2-.58.37-1.16.56-1.74.18-.58.35-1.17.52-1.76.68-2.35,1.25-4.72,1.74-7.12.48-2.4.87-4.81,1.16-7.24.29-2.43.5-4.87.61-7.33.03-.61.05-1.23.07-1.84.01-.31.02-.61.03-.92,0-.31.01-.61.02-.92.02-1.23.02-2.46,0-3.69-.02-1.23-.06-2.47-.12-3.7-.06-1.23-.13-2.47-.21-3.71-.17-2.47-.41-4.95-.68-7.43-.27-2.48-.58-4.97-.9-7.46-.32-2.5-.65-5-.89-7.54-.12-1.27-.22-2.55-.29-3.83-.04-.64-.06-1.29-.07-1.93-.01-.65-.02-1.3,0-1.95.02-1.3.09-2.61.24-3.92.16-1.31.4-2.62.78-3.91.19-.64.42-1.27.68-1.89.26-.62.57-1.21.92-1.78.7-1.13,1.59-2.14,2.64-2.9.02-.01.05,0,.06,0,.01.02.01.03,0,.05-.34.54-.65,1.09-.9,1.65l-.18.42-.17.43c-.05.14-.1.29-.15.43-.05.14-.09.29-.13.43-.17.58-.3,1.17-.4,1.76-.1.59-.16,1.19-.2,1.78-.16,2.39.05,4.81.34,7.24.31,2.43.72,4.88,1.14,7.33l.63,3.7c.21,1.24.41,2.48.62,3.73.41,2.49.81,5,1.17,7.52.36,2.52.67,5.06.92,7.61.12,1.28.24,2.56.33,3.84.09,1.28.16,2.57.21,3.86.05,1.29.08,2.58.09,3.87,0,.32,0,.65,0,.97,0,.32,0,.65,0,.97,0,.65-.03,1.29-.05,1.94-.08,2.59-.26,5.17-.55,7.75-.29,2.58-.69,5.15-1.18,7.7-.51,2.55-1.12,5.08-1.85,7.58-.36,1.25-.75,2.49-1.17,3.72-.2.62-.43,1.23-.64,1.84-.22.61-.45,1.22-.68,1.83-1.88,4.84-4.17,9.52-6.82,13.97-.66,1.11-1.34,2.21-2.05,3.29-.35.54-.71,1.08-1.07,1.62-.18.27-.36.53-.55.8-.18.26-.37.53-.55.79-1.49,2.11-3.05,4.16-4.68,6.15-.82,1-2.3,1.14-3.3.32-.96-.79-1.13-2.18-.41-3.18h0Z"/>
        <path class="cls-7" d="m96.4,427.15c1.99-1.78,3.9-3.63,5.7-5.6,1.8-1.96,3.49-4.02,5.08-6.17,1.6-2.14,3.07-4.39,4.48-6.68.36-.57.69-1.15,1.03-1.74.17-.29.34-.58.51-.87l.49-.88.49-.88.48-.9.48-.89c.16-.3.31-.6.47-.9,1.24-2.41,2.41-4.87,3.51-7.37,1.11-2.49,2.18-5.02,3.25-7.55,1.06-2.54,2.13-5.1,3.22-7.66.55-1.28,1.1-2.56,1.69-3.83.58-1.27,1.18-2.55,1.83-3.8.01-.03.04-.03.07-.02.02.01.03.03.03.05-.17,1.4-.38,2.78-.6,4.17-.22,1.38-.47,2.76-.74,4.13-.54,2.75-1.16,5.48-1.9,8.19-.73,2.71-1.58,5.4-2.54,8.06-.97,2.65-2.03,5.28-3.23,7.86-.15.32-.29.65-.45.97l-.47.96-.47.96-.49.95-.49.95c-.17.32-.34.63-.51.94-.35.62-.69,1.25-1.06,1.86l-.55.92-.27.46-.29.45-.58.91c-.19.3-.38.61-.59.9-.4.59-.8,1.19-1.22,1.78l-1.28,1.74c-1.75,2.29-3.64,4.48-5.7,6.51-2.06,2.03-4.27,3.92-6.64,5.57-1.02.71-2.43.46-3.14-.56-.66-.95-.49-2.22.35-2.97l.02-.02Z"/>
        <path class="cls-7" d="m120.13,392.26c-.06-.2-.11-.41-.15-.61,0-.05-.02-.1-.04-.15l-.04-.15c-.02-.1-.05-.2-.07-.3l-.02-.07-.02-.07s-.03-.09-.04-.14c-.03-.1-.05-.19-.08-.29-.02-.1-.06-.19-.09-.28l-.09-.28-.02-.07s-.02-.05-.03-.07l-.05-.14c-.04-.09-.07-.18-.1-.28-.01-.05-.04-.09-.06-.14s-.04-.09-.06-.14l-.12-.28-.27-.54c-.11-.17-.21-.35-.32-.52-.46-.69-1.05-1.33-1.74-1.9-.69-.58-1.47-1.09-2.32-1.53-.85-.44-1.75-.82-2.7-1.13-.47-.16-.95-.29-1.44-.42l-.37-.09c-.12-.03-.25-.06-.37-.09-.25-.05-.5-.11-.75-.15-2-.37-4.08-.51-6.18-.39h0c-.07,0-.12-.05-.13-.11,0-.05.03-.1.08-.12,2.01-.7,4.16-1.08,6.34-1.18.27-.02.55-.02.82-.02.14,0,.28,0,.41,0h.41c.55.02,1.11.06,1.66.11,1.11.12,2.23.31,3.34.63,1.11.32,2.21.75,3.27,1.33,1.06.58,2.08,1.32,2.98,2.23.22.23.44.47.65.71.2.26.4.51.6.77l.27.41.13.21c.04.07.09.14.12.21.08.14.15.29.23.44l.11.22.05.11.05.11c.52,1.21.8,2.51.77,3.77-.03,1.3-1.1,2.32-2.4,2.3-1.04-.02-1.91-.72-2.2-1.67l-.08-.26Z"/>
        <circle class="cls-5" cx="70.09" cy="540.01" r="24.66"/>
        <path class="cls-7" d="m77.96,394.97c-.38.94-.72,1.9-1.02,2.88-.13.5-.28.99-.39,1.49-.13.5-.22,1.01-.32,1.52-.03.13-.04.26-.07.39l-.06.39c-.04.26-.09.51-.11.78l-.1.78c-.03.26-.05.53-.08.79-.11,1.05-.15,2.12-.18,3.19-.03,2.15.06,4.33.27,6.51.03.27.05.55.08.82l.1.82c.03.27.06.55.1.82l.12.82c.04.27.08.55.12.82l.14.82.14.82.15.82c.41,2.19.91,4.38,1.47,6.55.56,2.18,1.19,4.35,1.85,6.51.66,2.16,1.38,4.32,2.12,6.47.74,2.15,1.53,4.29,2.31,6.44h0c.03.08-.01.17-.09.2-.07.03-.15,0-.19-.07l-.86-1.49c-.14-.25-.29-.5-.43-.75l-.41-.75-.83-1.51-.8-1.52c-.27-.51-.52-1.02-.78-1.53-.26-.51-.52-1.02-.77-1.54l-.75-1.55-.72-1.57c-.95-2.1-1.84-4.23-2.66-6.39-.81-2.17-1.56-4.37-2.21-6.61l-.25-.84-.23-.85-.22-.85c-.07-.28-.14-.57-.21-.85l-.2-.86c-.07-.29-.12-.57-.19-.86l-.18-.86c-.06-.29-.11-.58-.16-.87-.43-2.32-.72-4.69-.8-7.1,0-.3,0-.6,0-.91,0-.3-.01-.6,0-.91.02-.61.03-1.21.08-1.82l.04-.46c.01-.15.02-.3.04-.46l.11-.91c.03-.3.09-.61.14-.91l.08-.46c.03-.15.05-.3.08-.46l.2-.91.05-.23c.02-.08.04-.15.06-.23l.12-.45c.15-.6.36-1.2.55-1.79.43-1.18.94-2.34,1.57-3.44.64-1.12,2.06-1.51,3.19-.88,1.03.59,1.45,1.84,1.01,2.91l-.03.06Z"/>
      </g>
    </g>
  </g>
</svg>