<?xml version="1.0" encoding="utf-8"?>
<!-- Generator: Adobe Illustrator 27.4.0, SVG Export Plug-In . SVG Version: 6.00 Build 0)  -->
<svg version="1.1" id="Layer_1" xmlns="http://www.w3.org/2000/svg" xmlns:xlink="http://www.w3.org/1999/xlink" x="0px" y="0px"
	 viewBox="0 0 5580 6660" style="enable-background:new 0 0 5580 6660;" xml:space="preserve">
<style type="text/css">
	.st0{fill:#F10631;}
	.st1{fill:#ECDCC4;}
	.st2{fill:none;stroke:#F10631;stroke-width:19.904;stroke-linecap:round;stroke-linejoin:round;stroke-miterlimit:10;}
</style>
<g id="Fundo">
	<rect class="st0" width="1080" height="1080"/>
</g>
<g id="Elementos">
	<g>
		<g>
			<path class="st1" d="M919.3,245.7v592.4c0,55.2-27.5,81.9-81.9,81.9h-595c-54.3,0-81.8-28.2-81.8-81.9V245.7
				c0-57.4,30.6-85.6,85-85.6c-0.2-0.2,590.1,0,590.1,0C891.8,160.1,919.3,189.6,919.3,245.7z"/>
		</g>
		<g>
			<circle class="st2" cx="808.5" cy="323.6" r="22.8"/>
			<circle class="st2" cx="808.5" cy="483.5" r="36.2"/>
			<line class="st2" x1="808.5" y1="447.2" x2="808.5" y2="346.4"/>
			<line class="st2" x1="808.5" y1="681.1" x2="808.5" y2="629.6"/>
			<line class="st2" x1="808.5" y1="583.1" x2="808.5" y2="519.7"/>
			<line class="st2" x1="808.5" y1="779.2" x2="808.5" y2="727.6"/>
		</g>
		<path class="st0" d="M601.6,261.6H369.9c-65.1,0-117.8,52.7-117.8,117.8v304.8c0,33.1,26,60.1,58.7,61.8v40.1
			c0,17.8,14.5,32.3,32.3,32.3s32.3-14.5,32.3-32.3v-40H596v40c0,17.8,14.5,32.3,32.3,32.3c17.9,0,32.3-14.5,32.3-32.3V746
			c32.7-1.7,58.6-28.7,58.6-61.8V379.4C719.4,314.3,666.7,261.6,601.6,261.6z M389.6,290h192.3c3.9,0,7.5,1.6,10.1,4.2
			s4.2,6.1,4.2,10.1c0,7.8-6.4,14.2-14.2,14.2H389.6c-3.9,0-7.4-1.6-10-4.2s-4.2-6.1-4.2-10.1C375.5,296.3,381.8,290,389.6,290z
			 M343.1,688.2c-17.9,0-32.3-14.5-32.3-32.3c0-17.9,14.5-32.3,32.3-32.3c17.9,0,32.3,14.5,32.3,32.3
			C375.4,673.8,361,688.2,343.1,688.2z M628.4,688.2c-17.8,0-32.3-14.5-32.3-32.3c0-17.9,14.5-32.3,32.3-32.3
			c17.9,0,32.3,14.5,32.3,32.3C660.7,673.8,646.3,688.2,628.4,688.2z M678.9,494.1c0,16.3-13.2,29.4-29.5,29.4H322.1
			c-16.3,0-29.5-13.2-29.5-29.4V376.5c0-16.3,13.2-29.5,29.5-29.5h327.3c16.3,0,29.5,13.2,29.5,29.5V494.1z"/>
	</g>
</g>
</svg>
