<?xml version="1.0" encoding="UTF-8"?>
<svg id="Elementos" xmlns="http://www.w3.org/2000/svg" viewBox="0 0 879.44 1254.29">
  <defs>
    <style>
      .cls-1 {
        fill: #f10631;
      }

      .cls-2 {
        fill: #ecdcc4;
      }

      .cls-3 {
        fill: #c31a1a;
      }

      .cls-4 {
        fill: #efebd6;
      }

      .cls-5 {
        fill: #290e0e;
      }

      .cls-6 {
        fill: #494949;
      }

      .cls-7 {
        fill: #888;
      }

      .cls-8 {
        fill: none;
        stroke: #290e0e;
        stroke-linecap: round;
        stroke-linejoin: round;
        stroke-width: 10.43px;
      }
    </style>
  </defs>
  <path class="cls-1" d="m879.44,99.3v686.75c0,63.94-31.93,94.95-94.92,94.95H94.83c-62.99,0-94.83-32.65-94.83-94.95V99.3C0,32.71,35.45.09,98.49.09c-.26-.2,684.01,0,684.01,0,65.01,0,96.94,34.26,96.94,99.22Z"/>
  <rect class="cls-7" x="381.22" y="948.5" width="117" height="305.79"/>
  <rect class="cls-6" x="381.22" y="881" width="117" height="85.5"/>
  <g>
    <g>
      <path class="cls-2" d="m807.14,165.45v529.84c0,49.33-24.63,73.25-73.23,73.25H201.8c-48.6,0-73.16-25.19-73.16-73.25V165.45c0-51.38,27.35-76.55,75.99-76.55-.2-.16,527.73,0,527.73,0,50.16,0,74.79,26.44,74.79,76.55Z"/>
      <g>
        <path class="cls-1" d="m707.98,264.44c-16.14,0-29.28-13.13-29.28-29.28s13.13-29.28,29.28-29.28,29.28,13.13,29.28,29.28-13.13,29.28-29.28,29.28Zm0-40.76c-6.33,0-11.48,5.15-11.48,11.48s5.15,11.48,11.48,11.48,11.48-5.15,11.48-11.48-5.15-11.48-11.48-11.48Z"/>
        <path class="cls-1" d="m707.98,419.5c-22.78,0-41.32-18.54-41.32-41.32s18.54-41.32,41.32-41.32,41.32,18.54,41.32,41.32-18.54,41.32-41.32,41.32Zm0-64.84c-12.97,0-23.52,10.55-23.52,23.52s10.55,23.52,23.52,23.52,23.52-10.55,23.52-23.52-10.55-23.52-23.52-23.52Z"/>
        <path class="cls-1" d="m707.98,354.63c-4.92,0-8.9-3.99-8.9-8.9v-90.22c0-4.92,3.99-8.9,8.9-8.9s8.9,3.99,8.9,8.9v90.22c0,4.92-3.99,8.9-8.9,8.9Z"/>
        <path class="cls-1" d="m707.98,563.82c-4.92,0-8.9-3.99-8.9-8.9v-46.09c0-4.92,3.99-8.9,8.9-8.9s8.9,3.99,8.9,8.9v46.09c0,4.92-3.99,8.9-8.9,8.9Z"/>
        <path class="cls-1" d="m707.98,476.15c-4.92,0-8.9-3.99-8.9-8.9v-56.69c0-4.92,3.99-8.9,8.9-8.9s8.9,3.99,8.9,8.9v56.69c0,4.92-3.99,8.9-8.9,8.9Z"/>
        <path class="cls-1" d="m707.98,651.49c-4.92,0-8.9-3.99-8.9-8.9v-46.09c0-4.92,3.99-8.9,8.9-8.9s8.9,3.99,8.9,8.9v46.09c0,4.92-3.99,8.9-8.9,8.9Z"/>
      </g>
      <path class="cls-1" d="m522.96,179.69h-207.19c-58.19,0-105.36,47.17-105.36,105.36v272.63c0,29.62,23.28,53.76,52.47,55.25v35.85c0,15.95,12.93,28.91,28.93,28.91s28.93-12.95,28.93-28.91v-35.78h197.31v35.78c0,15.95,12.93,28.91,28.91,28.91s28.93-12.95,28.93-28.91v-35.85c29.22-1.51,52.45-25.66,52.45-55.25v-272.63c0-58.19-47.15-105.36-105.36-105.36Zm-189.56,25.39h171.94c3.52,0,6.7,1.42,8.99,3.72,2.29,2.29,3.72,5.45,3.72,8.99,0,7.01-5.7,12.71-12.71,12.71h-171.94c-3.49,0-6.65-1.42-8.95-3.72-2.29-2.29-3.72-5.5-3.72-8.99,0-7.03,5.65-12.71,12.66-12.71Zm-41.61,356.19c-15.98,0-28.93-12.95-28.93-28.91s12.95-28.93,28.93-28.93,28.91,12.93,28.91,28.93-12.93,28.91-28.91,28.91Zm255.16,0c-15.95,0-28.91-12.95-28.91-28.91s12.95-28.93,28.91-28.93,28.93,12.93,28.93,28.93-12.93,28.91-28.93,28.91Zm45.15-173.59c0,14.55-11.79,26.32-26.35,26.32h-292.75c-14.55,0-26.35-11.77-26.35-26.32v-105.25c0-14.55,11.79-26.35,26.35-26.35h292.75c14.55,0,26.35,11.79,26.35,26.35v105.25Z"/>
    </g>
    <g>
      <circle class="cls-4" cx="76.82" cy="436.94" r="49.66"/>
      <path class="cls-3" d="m134.25,294.44c-2.19,10.65-5.18,21.12-9,31.31-3.84,10.18-8.48,20.07-13.79,29.62-4.73,8.44-9.99,16.62-15.62,24.57-7.43-2.49-15.46-3.56-23.75-2.91-3.48.27-6.85.86-10.12,1.69-19.18-66.09-10.46-158.97,16.72-230.23.07-.18,15.83-34.9,15.88-35.09,8.8-16.42,18.76-30.75,29.72-42.09,32.35-33.45,88.63-34.47,130.16-29.43,45.04,5.47,96.22,21.46,136.71,42.44-6.72,2.14-14.04,4.81-22.05,8.1-31.87,12.52-141.78,60.55-218.17,152.87-.22.26-15.97,45.55-16.69,49.15Z"/>
      <path class="cls-4" d="m172.16,332.4c-1.89-2.81-4.07-5.74-6.38-8.83-7.43-9.96-15.37-20.6-18.23-32.49.63-3.76,1.17-7.53,1.6-11.32.52-4.76.87-9.53,1.08-14.3,1.99-4.33,4.85-8.82,8.73-13.49,74.81-90.41,183.34-138.53,214.56-151.18,65.51-26.54,74.61-2.55,74.61-2.55,18.42,26.52,41.72,58.59,36.37,76.62-1.99,6.71-6.44,13.2-15.13,18.02-5.46,5.8-226.02,152.54-240.77,164.44-6.87,4.61-13.02,6.43-19.05,5.71-10.75-1.29-22.29-10.73-37.4-30.62Z"/>
      <path class="cls-8" d="m167.91,335.43c-13.23-19.8-44.52-48.86-12.96-86.8,72.37-87.46,174.95-135.2,216.07-151.36,69.54-28.46,73.84-6.45,84.62,6.86,32.6,47.04,50.78,70.1,10.88,97.29q-110.54,64.97-229.84,156.36c-24.35,19.82-43.04,11.54-68.78-22.36Z"/>
      <path class="cls-8" d="m404.99,85.9C325.2,40.33,179.84,6.37,120.55,67.69c-59.29,61.32-94.05,216.9-62.06,317.52"/>
      <path class="cls-5" d="m93.66,383.03c3.23-4.46,6.35-8.98,9.33-13.58,1.48-2.31,2.94-4.63,4.35-6.97,1.42-2.34,2.77-4.72,4.12-7.1,5.31-9.55,9.97-19.43,13.78-29.62.49-1.27.94-2.55,1.41-3.83.44-1.28.9-2.57,1.32-3.86.43-1.29.83-2.59,1.24-3.88.39-1.3.79-2.6,1.16-3.91,1.51-5.22,2.78-10.51,3.86-15.83,1.07-5.33,1.95-10.7,2.58-16.11.66-5.41,1.12-10.84,1.36-16.3.06-1.36.12-2.73.15-4.1.02-.68.04-1.37.06-2.05.02-.68.03-1.37.04-2.05.04-2.74.04-5.48-.01-8.22-.05-2.74-.14-5.49-.27-8.24-.12-2.75-.28-5.5-.48-8.25-.39-5.5-.92-11.01-1.52-16.53-.6-5.52-1.29-11.05-2-16.61-.72-5.55-1.45-11.14-1.98-16.79-.26-2.83-.49-5.67-.64-8.53-.08-1.43-.13-2.87-.17-4.3-.02-1.44-.05-2.88-.02-4.33.04-2.9.2-5.81.54-8.73.35-2.92.88-5.84,1.73-8.7.42-1.43.93-2.83,1.51-4.21.59-1.37,1.27-2.7,2.05-3.96,1.56-2.52,3.55-4.76,5.87-6.45.04-.03.11-.02.14.02.02.03.02.08,0,.11-.76,1.2-1.44,2.42-2.01,3.68l-.41.94-.37.95c-.12.32-.23.64-.34.96-.11.32-.2.65-.3.97-.38,1.29-.67,2.6-.88,3.92-.23,1.31-.36,2.64-.45,3.97-.36,5.32.11,10.71.77,16.12.68,5.41,1.6,10.85,2.53,16.32l1.4,8.24c.47,2.76.91,5.52,1.37,8.3.91,5.55,1.8,11.13,2.6,16.74.8,5.61,1.48,11.26,2.04,16.94.28,2.84.52,5.69.73,8.54.19,2.85.35,5.71.46,8.58.11,2.87.17,5.74.19,8.61,0,.72,0,1.44,0,2.16,0,.72,0,1.44-.02,2.16-.02,1.44-.06,2.88-.1,4.32-.18,5.75-.59,11.51-1.21,17.25-.64,5.74-1.53,11.46-2.63,17.14-1.13,5.67-2.5,11.3-4.11,16.86-.8,2.78-1.68,5.54-2.6,8.28-.46,1.37-.95,2.73-1.43,4.1-.5,1.36-1,2.72-1.52,4.06-4.19,10.78-9.28,21.19-15.17,31.08-1.47,2.47-2.98,4.92-4.56,7.33-.77,1.21-1.58,2.4-2.37,3.6-.4.6-.81,1.18-1.22,1.78-.41.59-.81,1.18-1.23,1.77-3.31,4.69-6.78,9.26-10.41,13.67-1.83,2.23-5.12,2.55-7.35.71-2.14-1.76-2.52-4.86-.92-7.08l.02-.03Z"/>
      <path class="cls-5" d="m135.36,185.8c4.44-3.95,8.68-8.08,12.68-12.45,4-4.37,7.77-8.95,11.31-13.73,3.55-4.77,6.84-9.76,9.96-14.86.8-1.26,1.54-2.57,2.3-3.86.37-.65.77-1.29,1.14-1.94l1.1-1.97,1.1-1.97,1.06-1.99,1.07-1.99c.36-.66.69-1.34,1.04-2.01,2.75-5.37,5.36-10.83,7.81-16.39,2.47-5.55,4.86-11.16,7.24-16.81,2.37-5.65,4.74-11.34,7.17-17.03,1.23-2.84,2.46-5.7,3.75-8.53,1.29-2.84,2.62-5.67,4.08-8.45.03-.06.1-.08.15-.05.04.02.07.07.06.12-.38,3.12-.85,6.19-1.35,9.27-.49,3.08-1.05,6.14-1.64,9.2-1.2,6.11-2.58,12.2-4.22,18.23-1.63,6.04-3.51,12.02-5.66,17.93-2.17,5.9-4.53,11.75-7.18,17.49-.33.72-.65,1.44-.99,2.16l-1.04,2.14-1.05,2.13-1.09,2.11-1.09,2.11c-.37.7-.76,1.4-1.14,2.09-.78,1.39-1.53,2.78-2.36,4.15l-1.22,2.06-.61,1.03-.64,1.01-1.29,2.02c-.43.67-.85,1.35-1.3,2.01-.9,1.32-1.79,2.65-2.71,3.96l-2.84,3.87c-3.89,5.09-8.1,9.97-12.68,14.49-4.58,4.52-9.5,8.71-14.78,12.39-2.27,1.58-5.4,1.02-6.98-1.26-1.46-2.11-1.09-4.94.78-6.61l.04-.04Z"/>
      <path class="cls-5" d="m188.17,108.17c-.14-.45-.24-.91-.32-1.36-.02-.11-.06-.22-.08-.33l-.09-.33c-.05-.22-.11-.44-.15-.66l-.03-.17-.05-.16c-.03-.11-.07-.21-.09-.32-.06-.21-.12-.43-.17-.64-.04-.22-.13-.42-.2-.63l-.2-.63-.05-.16c-.02-.05-.04-.1-.06-.15l-.12-.3c-.08-.2-.15-.41-.22-.62-.03-.11-.08-.21-.13-.3s-.09-.2-.13-.3l-.26-.61-.6-1.2c-.24-.38-.47-.78-.71-1.17-1.02-1.53-2.33-2.95-3.87-4.23-1.53-1.29-3.27-2.43-5.16-3.41-1.89-.97-3.9-1.82-6-2.51-1.05-.35-2.12-.65-3.2-.92l-.82-.2c-.27-.07-.55-.14-.82-.19-.55-.11-1.1-.24-1.66-.34-4.45-.82-9.07-1.13-13.75-.88h0c-.15,0-.27-.1-.28-.25,0-.12.07-.23.18-.27,4.48-1.55,9.25-2.41,14.12-2.64.61-.03,1.22-.03,1.83-.05.31-.01.61,0,.92,0h.92c1.23.04,2.46.12,3.7.25,2.47.26,4.96.69,7.43,1.4,2.46.71,4.92,1.66,7.28,2.95,2.35,1.3,4.62,2.94,6.62,4.97.49.51.97,1.05,1.45,1.59.44.57.9,1.13,1.32,1.72l.59.92.29.46c.1.16.19.31.27.47.17.32.34.65.5.97l.24.49.12.25.1.25c1.15,2.68,1.77,5.58,1.71,8.39-.06,2.89-2.46,5.17-5.34,5.11-2.32-.05-4.26-1.61-4.89-3.72l-.17-.57Z"/>
      <circle class="cls-8" cx="76.82" cy="436.94" r="54.87"/>
      <path class="cls-5" d="m94.32,114.2c-.85,2.1-1.6,4.24-2.26,6.42-.29,1.11-.62,2.2-.86,3.32-.28,1.11-.48,2.25-.71,3.38-.06.28-.1.57-.15.86l-.14.86c-.09.57-.19,1.14-.25,1.73l-.22,1.74c-.07.58-.11,1.17-.17,1.75-.24,2.34-.33,4.71-.39,7.1-.08,4.78.13,9.62.6,14.49.06.61.11,1.22.18,1.83l.23,1.83c.08.61.14,1.22.22,1.83l.26,1.83c.09.61.17,1.22.27,1.83l.31,1.83.31,1.83.34,1.83c.92,4.87,2.02,9.74,3.26,14.58,1.25,4.85,2.64,9.67,4.11,14.49,1.47,4.82,3.07,9.61,4.72,14.39,1.65,4.78,3.4,9.54,5.14,14.33h0c.06.18-.03.38-.21.44-.16.06-.33,0-.41-.15l-1.91-3.31c-.32-.55-.64-1.1-.95-1.66l-.92-1.67-1.84-3.35-1.78-3.39c-.6-1.13-1.17-2.27-1.74-3.41-.57-1.14-1.16-2.28-1.71-3.43l-1.66-3.46-1.6-3.49c-2.11-4.67-4.09-9.4-5.92-14.22-1.81-4.82-3.47-9.71-4.92-14.7l-.55-1.87-.5-1.89-.5-1.89c-.16-.63-.31-1.27-.46-1.9l-.46-1.91c-.15-.64-.28-1.28-.42-1.92l-.4-1.92c-.13-.64-.24-1.29-.36-1.94-.95-5.17-1.61-10.44-1.78-15.8-.01-.67-.01-1.34-.02-2.02,0-.67-.02-1.34,0-2.02.05-1.35.07-2.7.19-4.06l.08-1.02c.03-.34.05-.68.09-1.02l.24-2.03c.07-.68.19-1.36.3-2.03l.17-1.02c.06-.34.11-.68.19-1.01l.44-2.02.11-.51c.04-.17.09-.34.13-.5l.27-1c.33-1.34.8-2.66,1.22-3.99.95-2.63,2.1-5.2,3.49-7.65,1.42-2.5,4.59-3.37,7.09-1.95,2.29,1.3,3.22,4.09,2.25,6.47l-.06.14Z"/>
    </g>
  </g>
</svg>