<svg xmlns="http://www.w3.org/2000/svg" width="1080" height="1080" viewBox="0 0 1080 1080">
  <title>logo</title>
  <g id="a2928f38-22a9-4c73-87b9-2bdaf5513efb" data-name="Elementos">
    <g>
      <path d="M540,60.35c-169.29,0-306.5,137.21-306.5,306.5A304.71,304.71,0,0,0,301.82,559.4c13.75,16.93,36.75,43.6,48.74,61.83,69,104.88,157.6,257.19,183.41,382.19,4.43,21.34,9.76,21.71,15.51.69,18.41-67.4,66.15-214.66,164.75-368.76,11.76-18.37,35.59-44.09,50.39-60.1a309,309,0,0,0,52.83-78.77,304.83,304.83,0,0,0,29-129.6C846.5,197.58,709.29,60.35,540,60.35Z" fill="#2c0eeb"/>
      <path d="M612.88,180.14H467.12A74.13,74.13,0,0,0,393,254.26V446.07a38.94,38.94,0,0,0,36.92,38.87v25.22a20.35,20.35,0,0,0,40.7,0V485H609.42v25.17a20.35,20.35,0,0,0,40.69,0V484.94A38.92,38.92,0,0,0,687,446.07V254.26A74.12,74.12,0,0,0,612.88,180.14ZM479.52,198h121a8.94,8.94,0,0,1,0,17.88h-121a8.94,8.94,0,0,1,0-17.88ZM450.24,448.59a20.35,20.35,0,1,1,20.34-20.33A20.34,20.34,0,0,1,450.24,448.59Zm179.52,0a20.35,20.35,0,1,1,20.35-20.33A20.35,20.35,0,0,1,629.76,448.59Zm31.76-122.12A18.52,18.52,0,0,1,643,345H437a18.53,18.53,0,0,1-18.54-18.52V252.42A18.54,18.54,0,0,1,437,233.88H643a18.53,18.53,0,0,1,18.53,18.54Z" fill="#ecdcc4"/>
    </g>
  </g>
</svg>
