<svg xmlns="http://www.w3.org/2000/svg" width="1080" height="1080" viewBox="0 0 1080 1080">
  <title>logo</title>
  <g id="bd56e4dd-9894-4db3-a05e-648f2426f801" data-name="Elementos">
    <g>
      <path d="M1067,131.08V954.14c0,76.64-38.27,113.8-113.76,113.8H126.65C51.16,1067.94,13,1028.81,13,954.14V131.08C13,51.27,55.48,12.17,131,12.17c-.31-.24,819.78,0,819.78,0C1028.73,12.17,1067,53.24,1067,131.08Z" fill="#2c0eeb"/>
      <g>
        <circle cx="912.96" cy="239.37" r="31.66" fill="none" stroke="#ecdcc4" stroke-linecap="round" stroke-linejoin="round" stroke-width="27.65"/>
        <circle cx="912.96" cy="461.53" r="50.36" fill="none" stroke="#ecdcc4" stroke-linecap="round" stroke-linejoin="round" stroke-width="27.65"/>
        <line x1="912.96" y1="411.12" x2="912.96" y2="270.98" fill="none" stroke="#ecdcc4" stroke-linecap="round" stroke-linejoin="round" stroke-width="27.65"/>
        <line x1="912.96" y1="736.09" x2="912.96" y2="664.49" fill="none" stroke="#ecdcc4" stroke-linecap="round" stroke-linejoin="round" stroke-width="27.65"/>
        <line x1="912.96" y1="599.9" x2="912.96" y2="511.85" fill="none" stroke="#ecdcc4" stroke-linecap="round" stroke-linejoin="round" stroke-width="27.65"/>
        <line x1="912.96" y1="872.28" x2="912.96" y2="800.68" fill="none" stroke="#ecdcc4" stroke-linecap="round" stroke-linejoin="round" stroke-width="27.65"/>
      </g>
      <path d="M625.55,153.2H303.7A163.67,163.67,0,0,0,140,316.87V740.38a86,86,0,0,0,81.5,85.83V881.9a44.94,44.94,0,0,0,89.88,0V826.31h306.5V881.9a44.92,44.92,0,0,0,89.83,0V826.21a86,86,0,0,0,81.48-85.83V316.87A163.65,163.65,0,0,0,625.55,153.2ZM331.07,192.64h267.1a19.74,19.74,0,0,1,0,39.48H331.07a19.74,19.74,0,0,1,0-39.48ZM266.44,746a44.92,44.92,0,1,1,44.9-44.9A44.93,44.93,0,0,1,266.44,746Zm396.37,0a44.92,44.92,0,1,1,44.93-44.9A44.92,44.92,0,0,1,662.81,746Zm70.13-269.66A40.9,40.9,0,0,1,692,517.19H237.26a40.9,40.9,0,0,1-40.93-40.9V312.79a40.92,40.92,0,0,1,40.93-40.92H692a40.92,40.92,0,0,1,40.92,40.92Z" fill="#ecdcc4"/>
    </g>
  </g>
</svg>
