<svg width="880" height="1255" viewBox="0 0 880 1255" fill="none" xmlns="http://www.w3.org/2000/svg">
<g clip-path="url(#clip0_634_2)">
<path d="M879.44 99.3V786.05C879.44 849.99 847.51 881 784.52 881H94.83C31.84 881 0 848.35 0 786.05V99.3C0 32.71 35.45 0.0899875 98.49 0.0899875C98.23 -0.110012 782.5 0.0899875 782.5 0.0899875C847.51 0.0899875 879.44 34.35 879.44 99.31V99.3Z" fill="#2C0EEB"/>
<path d="M549 948.5H330.44V1254.29H549V948.5Z" fill="#888888"/>
<path d="M549 881H330.44V997.06H549V881Z" fill="#494949"/>
<path d="M767.14 186.44V697.8C767.14 745.41 743.37 768.5 696.46 768.5H182.91C136.01 768.5 112.3 744.19 112.3 697.8V186.44C112.3 136.85 138.69 112.56 185.64 112.56C185.45 112.41 694.96 112.56 694.96 112.56C743.37 112.56 767.14 138.07 767.14 186.44Z" fill="#ECDCC4"/>
<path d="M539.7 200.19H339.74C283.58 200.19 238.05 245.72 238.05 301.88V565C238.05 593.58 260.51 616.89 288.69 618.32V652.92C288.69 668.32 301.17 680.82 316.61 680.82C332.05 680.82 344.53 668.32 344.53 652.92V618.39H534.96V652.92C534.96 668.32 547.44 680.82 562.86 680.82C578.28 680.82 590.78 668.32 590.78 652.92V618.32C618.98 616.86 641.4 593.56 641.4 565V301.88C641.4 245.72 595.89 200.19 539.71 200.19H539.7ZM356.75 224.69H522.69C526.08 224.69 529.15 226.06 531.37 228.28C533.58 230.49 534.96 233.54 534.96 236.96C534.96 243.72 529.46 249.22 522.7 249.22H356.76C353.39 249.22 350.34 247.85 348.13 245.63C345.92 243.41 344.54 240.33 344.54 236.95C344.54 230.16 349.99 224.69 356.76 224.69H356.75ZM316.59 568.45C301.17 568.45 288.67 555.95 288.67 540.55C288.67 525.15 301.17 512.63 316.59 512.63C332.01 512.63 344.49 525.11 344.49 540.55C344.49 555.99 332.01 568.45 316.59 568.45ZM562.85 568.45C547.45 568.45 534.95 555.95 534.95 540.55C534.95 525.15 547.45 512.63 562.85 512.63C578.25 512.63 590.77 525.11 590.77 540.55C590.77 555.99 578.29 568.45 562.85 568.45ZM606.43 400.92C606.43 414.97 595.05 426.33 581 426.33H298.47C284.42 426.33 273.04 414.97 273.04 400.92V299.34C273.04 285.29 284.42 273.91 298.47 273.91H581C595.05 273.91 606.43 285.29 606.43 299.34V400.92Z" fill="#2C0EEB"/>
</g>
<defs>
<clipPath id="clip0_634_2">
<rect width="879.44" height="1254.29" fill="white"/>
</clipPath>
</defs>
</svg>
