<svg xmlns="http://www.w3.org/2000/svg" width="879.44" height="1254.29" viewBox="0 0 879.44 1254.29">
  <title>logo</title>
  <g id="bd06e6bb-940b-4768-bda9-37d531f3c500" data-name="Elementos">
    <path d="M879.44,99.3V786.05c0,64-31.93,95-94.92,95H94.83c-63,0-94.83-32.65-94.83-95V99.3C0,32.71,35.45.09,98.49.09c-.26-.2,684,0,684,0C847.51.09,879.44,34.35,879.44,99.3Z" fill="#2c0eeb"/>
    <rect x="381.22" y="948.5" width="117" height="305.79" fill="#888"/>
    <rect x="381.22" y="881" width="117" height="85.5" fill="#494949"/>
    <g>
      <path d="M767.14,186.44V697.8c0,47.61-23.77,70.7-70.68,70.7H182.91c-46.9,0-70.61-24.31-70.61-70.7V186.44c0-49.58,26.39-73.87,73.34-73.87-.19-.15,509.32,0,509.32,0C743.37,112.57,767.14,138.08,767.14,186.44Z" fill="#ecdcc4"/>
      <g>
        <circle cx="671.44" cy="253.72" r="19.67" fill="none" stroke="#2c0eeb" stroke-linecap="round" stroke-linejoin="round" stroke-width="17.18"/>
        <circle cx="671.44" cy="391.75" r="31.29" fill="none" stroke="#2c0eeb" stroke-linecap="round" stroke-linejoin="round" stroke-width="17.18"/>
        <line x1="671.44" y1="360.43" x2="671.44" y2="273.36" fill="none" stroke="#2c0eeb" stroke-linecap="round" stroke-linejoin="round" stroke-width="17.18"/>
        <line x1="671.44" y1="562.33" x2="671.44" y2="517.84" fill="none" stroke="#2c0eeb" stroke-linecap="round" stroke-linejoin="round" stroke-width="17.18"/>
        <line x1="671.44" y1="477.72" x2="671.44" y2="423.01" fill="none" stroke="#2c0eeb" stroke-linecap="round" stroke-linejoin="round" stroke-width="17.18"/>
        <line x1="671.44" y1="646.94" x2="671.44" y2="602.46" fill="none" stroke="#2c0eeb" stroke-linecap="round" stroke-linejoin="round" stroke-width="17.18"/>
      </g>
      <path d="M492.87,200.19h-200A101.69,101.69,0,0,0,191.22,301.87V565a53.41,53.41,0,0,0,50.64,53.33v34.6a27.92,27.92,0,0,0,55.84,0V618.38H488.12v34.54a27.91,27.91,0,0,0,55.82,0v-34.6A53.41,53.41,0,0,0,594.56,565V301.87A101.68,101.68,0,0,0,492.87,200.19Zm-182.95,24.5H475.86a12.27,12.27,0,0,1,0,24.53H309.92a12.27,12.27,0,0,1,0-24.53ZM269.76,568.45a27.91,27.91,0,1,1,27.89-27.89A27.91,27.91,0,0,1,269.76,568.45Zm246.26,0a27.91,27.91,0,1,1,27.92-27.89A27.91,27.91,0,0,1,516,568.45Zm43.57-167.53a25.4,25.4,0,0,1-25.42,25.41H251.63a25.41,25.41,0,0,1-25.43-25.41V299.34a25.43,25.43,0,0,1,25.43-25.43H534.17a25.42,25.42,0,0,1,25.42,25.43Z" fill="#2c0eeb"/>
    </g>
  </g>
</svg>
